G04*
G04 #@! TF.GenerationSoftware,Altium Limited,Altium Designer,21.4.1 (30)*
G04*
G04 Layer_Physical_Order=5*
G04 Layer_Color=8421376*
%FSLAX25Y25*%
%MOIN*%
G70*
G04*
G04 #@! TF.SameCoordinates,52388346-E8D1-4751-8710-1ABE23D8764D*
G04*
G04*
G04 #@! TF.FilePolarity,Negative*
G04*
G01*
G75*
%ADD16C,0.02000*%
%ADD229C,0.04000*%
%ADD231C,0.05200*%
G04:AMPARAMS|DCode=232|XSize=72mil|YSize=72mil|CornerRadius=0mil|HoleSize=0mil|Usage=FLASHONLY|Rotation=0.000|XOffset=0mil|YOffset=0mil|HoleType=Round|Shape=Relief|Width=10mil|Gap=8mil|Entries=4|*
%AMTHD232*
7,0,0,0.07200,0.05600,0.01000,45*
%
%ADD232THD232*%
%ADD234O,0.05937X0.09480*%
G04:AMPARAMS|DCode=235|XSize=61.654mil|YSize=61.654mil|CornerRadius=0mil|HoleSize=0mil|Usage=FLASHONLY|Rotation=0.000|XOffset=0mil|YOffset=0mil|HoleType=Round|Shape=Relief|Width=10mil|Gap=8mil|Entries=4|*
%AMTHD235*
7,0,0,0.06165,0.04565,0.01000,45*
%
%ADD235THD235*%
%ADD236C,0.04165*%
%ADD237C,0.12000*%
%ADD238C,0.03000*%
%ADD240C,0.02787*%
%ADD241C,0.02984*%
%ADD242R,0.27200X0.48200*%
D16*
X376600Y203100D02*
X378200Y204700D01*
X383800D01*
X150579Y76521D02*
Y103100D01*
X321600Y80700D02*
X345700Y104800D01*
X371200Y130300D01*
X150579Y80700D02*
X321600D01*
X371200Y130300D02*
Y164800D01*
X383800Y204700D02*
X399300D01*
X140600Y113700D02*
X144700D01*
X133400Y136700D02*
X141300D01*
X141200Y136600D02*
X141300Y136700D01*
X133027Y117273D02*
X136406D01*
X144700Y113700D02*
X189200Y158200D01*
Y175000D01*
X186100Y178100D02*
X189200Y175000D01*
X170900Y178100D02*
X186100D01*
X152400Y159600D02*
X170900Y178100D01*
X152400Y142300D02*
Y159600D01*
X146700Y136600D02*
X152400Y142300D01*
X141200Y136600D02*
X146700D01*
X133491Y133991D02*
Y191401D01*
X130800Y131300D02*
X133491Y133991D01*
X130800Y119500D02*
X133027Y117273D01*
X285300Y423300D02*
X285300Y279400D01*
X272135Y423300D02*
X297600D01*
X177961Y278600D02*
X177961Y422331D01*
X136406Y117273D02*
X150579Y103100D01*
X365442Y298328D02*
Y303545D01*
X346347Y279233D02*
X365442Y298328D01*
X98513Y298722D02*
X119575Y277659D01*
X98513Y298722D02*
Y303249D01*
X249595Y286123D02*
X257149Y278569D01*
X281780Y279233D02*
X346347D01*
X119575Y277659D02*
X236800D01*
X111505Y353446D02*
Y359352D01*
X236800Y277659D02*
X243690Y284548D01*
X244280D01*
X202056Y251900D02*
Y257383D01*
X204320Y259647D01*
X224694Y256399D02*
X237169D01*
X254713Y257383D02*
X258060Y254037D01*
X266563D01*
X268200Y252400D01*
Y248724D02*
Y252400D01*
X265343Y245867D02*
X268200Y248724D01*
X257133Y245867D02*
X265343D01*
X251100Y251900D02*
X257133Y245867D01*
X202056Y251900D02*
X251100D01*
X221446Y259647D02*
X224694Y256399D01*
X204320Y259647D02*
X221446D01*
X237169Y256399D02*
X238153Y257383D01*
X254713D01*
X257149Y267053D02*
Y278569D01*
Y267053D02*
X261406Y262796D01*
X244280Y284548D02*
X245855Y286123D01*
X249595D01*
X267705Y265159D02*
X281780Y279233D01*
X265343Y262796D02*
X267705Y265159D01*
X262000Y262796D02*
X265343D01*
X150579Y50887D02*
Y80700D01*
X130800Y119500D02*
Y131300D01*
X119594Y191401D02*
X133491D01*
X100194Y172001D02*
X119594Y191401D01*
X64294Y172001D02*
X100194D01*
X64294D02*
Y175401D01*
D229*
X64550Y75431D02*
G03*
X77050Y62931I12500J0D01*
G01*
X86571Y59941D02*
G03*
X82750Y62931I-3821J-948D01*
G01*
X86571Y59941D02*
G03*
X98703Y50450I12132J3009D01*
G01*
X365042D02*
G03*
X377175Y59941I0J12500D01*
G01*
X380996Y62931D02*
G03*
X377175Y59941I0J-3937D01*
G01*
X386696Y62931D02*
G03*
X399196Y75431I0J12500D01*
G01*
Y76434D02*
G03*
X390214Y88429I-12500J0D01*
G01*
X387385Y92207D02*
G03*
X390214Y88429I3937J0D01*
G01*
Y122866D02*
G03*
X387385Y119088I1108J-3778D01*
G01*
X390214Y122866D02*
G03*
X399196Y134861I-3518J11995D01*
G01*
Y290982D02*
G03*
X386696Y303482I-12500J0D01*
G01*
X351952Y315982D02*
G03*
X364452Y303482I12500J0D01*
G01*
X99294D02*
G03*
X111794Y315982I0J12500D01*
G01*
X77050Y303482D02*
G03*
X64550Y290982I0J-12500D01*
G01*
Y134861D02*
G03*
X73532Y122866I12500J0D01*
G01*
X76361Y119088D02*
G03*
X73532Y122866I-3937J0D01*
G01*
Y88429D02*
G03*
X76361Y92207I-1108J3778D01*
G01*
X73532Y88429D02*
G03*
X64550Y76434I3518J-11995D01*
G01*
X77050Y62931D02*
X82750D01*
X86571Y59941D02*
X86571D01*
X98703Y50450D02*
X365042D01*
X377175Y59941D02*
X377175D01*
X380996Y62931D02*
X386696D01*
X399196Y75431D02*
Y76434D01*
X390214Y88429D02*
X390214D01*
X387385Y92207D02*
Y119088D01*
X390214Y122866D02*
X390214D01*
X399196Y134861D02*
Y290982D01*
X364452Y303482D02*
X386696D01*
X351952Y315982D02*
Y423403D01*
X111794D02*
X351952D01*
X111794Y315982D02*
Y423403D01*
X77050Y303482D02*
X99294D01*
X64550Y134861D02*
Y290982D01*
X73532Y122866D02*
X73532D01*
X76361Y92207D02*
Y119088D01*
X73532Y88429D02*
X73532D01*
X64550Y75431D02*
Y76434D01*
D231*
X135827Y154016D02*
D03*
X145827D02*
D03*
X155827D02*
D03*
Y124016D02*
D03*
X165827Y154016D02*
D03*
Y124016D02*
D03*
X175827Y154016D02*
D03*
Y124016D02*
D03*
X185827Y154016D02*
D03*
Y124016D02*
D03*
X195827Y154016D02*
D03*
Y124016D02*
D03*
X205827Y154016D02*
D03*
Y124016D02*
D03*
X215827Y154016D02*
D03*
Y124016D02*
D03*
X226002Y153998D02*
D03*
Y123998D02*
D03*
X236002Y153998D02*
D03*
Y123998D02*
D03*
X246002Y153998D02*
D03*
Y123998D02*
D03*
X256002Y153998D02*
D03*
Y123998D02*
D03*
X266002Y153998D02*
D03*
Y123998D02*
D03*
X276002Y153998D02*
D03*
Y123998D02*
D03*
X286002Y153998D02*
D03*
Y123998D02*
D03*
X296002Y153998D02*
D03*
Y123998D02*
D03*
X306002Y153998D02*
D03*
Y123998D02*
D03*
X316002Y153998D02*
D03*
Y123998D02*
D03*
X325915Y154234D02*
D03*
Y124234D02*
D03*
D232*
X135827Y124016D02*
D03*
X145827D02*
D03*
D234*
X222080Y69402D02*
D03*
X241765D02*
D03*
X176805Y69402D02*
D03*
X196490D02*
D03*
X143734Y69402D02*
D03*
X99442D02*
D03*
X267356D02*
D03*
X301805D02*
D03*
X334876Y69402D02*
D03*
X364403D02*
D03*
D235*
X227002Y66942D02*
D03*
X231923Y71863D02*
D03*
X186647Y71863D02*
D03*
X191569Y66942D02*
D03*
X119128Y71863D02*
D03*
Y66942D02*
D03*
X277198D02*
D03*
X287041D02*
D03*
X291962D02*
D03*
X277198Y71863D02*
D03*
X287041D02*
D03*
X291962D02*
D03*
X272277Y66942D02*
D03*
Y71863D02*
D03*
X339797Y66942D02*
D03*
X344718D02*
D03*
X354561D02*
D03*
X339797Y71863D02*
D03*
X349639D02*
D03*
X354561D02*
D03*
D236*
X231923Y66942D02*
D03*
X236844D02*
D03*
X227002Y71863D02*
D03*
X236844D02*
D03*
X181726Y71863D02*
D03*
X191569D02*
D03*
X181726Y66942D02*
D03*
X186647D02*
D03*
X104364Y71863D02*
D03*
Y66942D02*
D03*
X109285Y71863D02*
D03*
Y66942D02*
D03*
X114206Y71863D02*
D03*
Y66942D02*
D03*
X138813Y71863D02*
D03*
X133891D02*
D03*
X128970D02*
D03*
X124049D02*
D03*
X138813Y66942D02*
D03*
X133891D02*
D03*
X128970D02*
D03*
X124049D02*
D03*
X282120D02*
D03*
X296883D02*
D03*
X282120Y71863D02*
D03*
X296883D02*
D03*
X349639Y66942D02*
D03*
X359482D02*
D03*
X344718Y71863D02*
D03*
X359482D02*
D03*
D237*
X387402Y76772D02*
D03*
Y133858D02*
D03*
X76378Y76772D02*
D03*
Y133858D02*
D03*
X231496Y90551D02*
D03*
X113386D02*
D03*
X349606D02*
D03*
X350000Y266142D02*
D03*
X113780D02*
D03*
X231890D02*
D03*
X387402Y289370D02*
D03*
X76378D02*
D03*
X340157Y407087D02*
D03*
X290945D02*
D03*
X172835D02*
D03*
X123622D02*
D03*
D238*
X383700Y250500D02*
D03*
X340233Y241088D02*
D03*
X340895Y238264D02*
D03*
X342600Y245800D02*
D03*
X351700Y208100D02*
D03*
X340510Y235390D02*
D03*
X352561Y224828D02*
D03*
X349791Y225687D02*
D03*
X351400Y228100D02*
D03*
X342699Y242614D02*
D03*
X345221Y248882D02*
D03*
X348281Y245500D02*
D03*
X335200Y237300D02*
D03*
X380100Y250000D02*
D03*
X383300Y259786D02*
D03*
X387800Y259500D02*
D03*
X380766Y245965D02*
D03*
X360416Y240716D02*
D03*
X384500Y234500D02*
D03*
X384575Y237575D02*
D03*
X258300Y295200D02*
D03*
X328900Y226900D02*
D03*
X342200Y249000D02*
D03*
X352600Y143300D02*
D03*
X386300Y220900D02*
D03*
X371194Y217407D02*
D03*
X371100Y221500D02*
D03*
X364018Y217705D02*
D03*
X366831Y218408D02*
D03*
X382800Y209500D02*
D03*
X343000Y215500D02*
D03*
X344396Y212958D02*
D03*
X335000Y158100D02*
D03*
X175900Y163300D02*
D03*
X202700Y158400D02*
D03*
X224800Y235400D02*
D03*
X293600Y232200D02*
D03*
X364700Y168100D02*
D03*
X357500Y194500D02*
D03*
X350100Y238200D02*
D03*
X350600Y234400D02*
D03*
X351800Y231300D02*
D03*
X353064Y140236D02*
D03*
X233400Y209100D02*
D03*
X317100Y201000D02*
D03*
X246600Y228820D02*
D03*
X182100Y209600D02*
D03*
X367300Y145500D02*
D03*
X297338Y195000D02*
D03*
X221500Y214800D02*
D03*
X217500Y235800D02*
D03*
X340716Y182516D02*
D03*
X352800Y221938D02*
D03*
X355483Y220800D02*
D03*
X273300Y251700D02*
D03*
X275486Y237089D02*
D03*
X269100Y235000D02*
D03*
X281876Y214476D02*
D03*
X150900Y265900D02*
D03*
X354976Y217476D02*
D03*
X333600Y192000D02*
D03*
X342729Y208929D02*
D03*
X325377Y225125D02*
D03*
X328600Y229983D02*
D03*
X335776Y226700D02*
D03*
X321500Y225300D02*
D03*
X332300Y235800D02*
D03*
X328700Y204600D02*
D03*
X252200Y225800D02*
D03*
X250244Y227941D02*
D03*
X254301Y227799D02*
D03*
X185600Y166700D02*
D03*
X221000Y158000D02*
D03*
X237400Y158400D02*
D03*
X244861Y158143D02*
D03*
X265593Y158278D02*
D03*
X273687Y157621D02*
D03*
X293000Y157600D02*
D03*
X304418Y157995D02*
D03*
X312000Y158000D02*
D03*
X317452Y158046D02*
D03*
X338293Y158107D02*
D03*
X324500Y206200D02*
D03*
X320700Y206300D02*
D03*
X291600Y234500D02*
D03*
X283100Y262600D02*
D03*
X220600Y236300D02*
D03*
X217600Y222300D02*
D03*
X217800Y228800D02*
D03*
X210121Y238500D02*
D03*
X201400Y236900D02*
D03*
X87876Y227524D02*
D03*
X349900Y220700D02*
D03*
X335976Y221000D02*
D03*
X378000Y165950D02*
D03*
Y169950D02*
D03*
X377900Y195500D02*
D03*
Y191500D02*
D03*
X382500Y142500D02*
D03*
X341250Y90000D02*
D03*
X371250Y105000D02*
D03*
X338710Y190991D02*
D03*
X370538Y240500D02*
D03*
X367804Y239400D02*
D03*
X363666Y239892D02*
D03*
X364900Y237100D02*
D03*
X383900Y230400D02*
D03*
X371300Y225900D02*
D03*
X324500Y177800D02*
D03*
X216927Y189000D02*
D03*
X214009Y212331D02*
D03*
X216970Y225631D02*
D03*
X242300Y169700D02*
D03*
X215900Y170100D02*
D03*
X295000Y247000D02*
D03*
X316844Y251357D02*
D03*
X333750Y255024D02*
D03*
X328437Y248712D02*
D03*
X355079Y238870D02*
D03*
X358800Y146200D02*
D03*
X355100Y146300D02*
D03*
X344144Y203562D02*
D03*
X333500Y248000D02*
D03*
X182231Y219300D02*
D03*
X355600Y121400D02*
D03*
X361832Y121700D02*
D03*
X356000Y256200D02*
D03*
X228900Y178700D02*
D03*
X228340Y170400D02*
D03*
X232300D02*
D03*
X339000Y129200D02*
D03*
X332200Y146000D02*
D03*
X307100Y179000D02*
D03*
X308701Y157623D02*
D03*
X238450Y172350D02*
D03*
X212193Y169706D02*
D03*
X208870Y172283D02*
D03*
X210200Y167600D02*
D03*
X197300Y192500D02*
D03*
Y196500D02*
D03*
X308700Y166800D02*
D03*
X186000Y235100D02*
D03*
X180900Y229200D02*
D03*
X329300Y133000D02*
D03*
X275550Y210375D02*
D03*
X271500Y225400D02*
D03*
X92600Y172500D02*
D03*
X96563Y54423D02*
D03*
X102063Y54323D02*
D03*
X108063D02*
D03*
X114063D02*
D03*
X120063D02*
D03*
X126063D02*
D03*
X132063D02*
D03*
X138063D02*
D03*
X144063D02*
D03*
X150063D02*
D03*
X303800Y215100D02*
D03*
X306700Y215856D02*
D03*
X183000Y183600D02*
D03*
X179700Y183700D02*
D03*
X177100Y198800D02*
D03*
X165500Y196200D02*
D03*
X176500Y183700D02*
D03*
X208110Y177500D02*
D03*
X184929Y180354D02*
D03*
X211400Y173700D02*
D03*
X218800Y177500D02*
D03*
X199600D02*
D03*
X212000D02*
D03*
X191643Y182755D02*
D03*
X204349Y229562D02*
D03*
X69000Y264000D02*
D03*
Y252000D02*
D03*
Y240000D02*
D03*
Y228000D02*
D03*
Y216000D02*
D03*
Y204000D02*
D03*
Y192000D02*
D03*
Y180000D02*
D03*
Y168000D02*
D03*
Y156000D02*
D03*
X366000Y54000D02*
D03*
X360000D02*
D03*
X354000D02*
D03*
X348000D02*
D03*
X342000D02*
D03*
X336000D02*
D03*
X330000D02*
D03*
X324000D02*
D03*
X318000D02*
D03*
X312000D02*
D03*
X306000D02*
D03*
X300000D02*
D03*
X294000D02*
D03*
X288000D02*
D03*
X282000D02*
D03*
X276000D02*
D03*
X270000D02*
D03*
X264000D02*
D03*
X258000D02*
D03*
X252000D02*
D03*
X246000D02*
D03*
X240000D02*
D03*
X234000D02*
D03*
X228000D02*
D03*
X222000D02*
D03*
X216000D02*
D03*
X210000D02*
D03*
X204000D02*
D03*
X198000D02*
D03*
X192000D02*
D03*
X186000D02*
D03*
X180000D02*
D03*
X174000D02*
D03*
X168000D02*
D03*
X162000D02*
D03*
X156000D02*
D03*
X333000Y276000D02*
D03*
X327000D02*
D03*
X321000D02*
D03*
X315000D02*
D03*
X309000D02*
D03*
X303000D02*
D03*
X291000D02*
D03*
X279000D02*
D03*
X273000D02*
D03*
X267000D02*
D03*
X249000D02*
D03*
X237000D02*
D03*
X225000D02*
D03*
X222000Y270000D02*
D03*
X219000Y276000D02*
D03*
X195000D02*
D03*
X189000D02*
D03*
X177000D02*
D03*
X171000D02*
D03*
X159000D02*
D03*
X153000D02*
D03*
X147000D02*
D03*
X141000D02*
D03*
X135000D02*
D03*
X129000D02*
D03*
X393750Y285000D02*
D03*
X390000Y277500D02*
D03*
X393750Y270000D02*
D03*
Y255000D02*
D03*
Y240000D02*
D03*
Y225000D02*
D03*
Y210000D02*
D03*
Y195000D02*
D03*
Y180000D02*
D03*
Y165000D02*
D03*
Y150000D02*
D03*
X390000Y142500D02*
D03*
Y67500D02*
D03*
X382500Y277500D02*
D03*
Y127500D02*
D03*
Y112500D02*
D03*
Y97500D02*
D03*
Y67500D02*
D03*
X375000Y292500D02*
D03*
X378750Y285000D02*
D03*
X375000Y277500D02*
D03*
X378750Y105000D02*
D03*
Y90000D02*
D03*
Y75000D02*
D03*
X375000Y67500D02*
D03*
X367500Y292500D02*
D03*
X371250Y285000D02*
D03*
X367500Y277500D02*
D03*
Y97500D02*
D03*
X371250Y90000D02*
D03*
X363750Y300000D02*
D03*
Y285000D02*
D03*
X360000Y277500D02*
D03*
Y262500D02*
D03*
X363750Y105000D02*
D03*
X360000Y97500D02*
D03*
X363750Y90000D02*
D03*
X352500Y307500D02*
D03*
X356250Y300000D02*
D03*
X352500Y292500D02*
D03*
Y277500D02*
D03*
X356250Y105000D02*
D03*
X348750Y405000D02*
D03*
Y390000D02*
D03*
Y375000D02*
D03*
Y360000D02*
D03*
Y345000D02*
D03*
Y330000D02*
D03*
Y315000D02*
D03*
Y300000D02*
D03*
Y285000D02*
D03*
Y255000D02*
D03*
X337500Y277500D02*
D03*
X341250Y270000D02*
D03*
Y105000D02*
D03*
X330000Y412500D02*
D03*
X333750Y105000D02*
D03*
X330000Y97500D02*
D03*
X322500Y412500D02*
D03*
X326250Y105000D02*
D03*
Y90000D02*
D03*
X315000Y412500D02*
D03*
X318750Y105000D02*
D03*
X315000Y97500D02*
D03*
X307500Y412500D02*
D03*
X311250Y105000D02*
D03*
X307500Y97500D02*
D03*
X300000Y412500D02*
D03*
X303750Y105000D02*
D03*
X300000Y97500D02*
D03*
X296250Y105000D02*
D03*
X292500Y97500D02*
D03*
X296250Y90000D02*
D03*
X285000Y412500D02*
D03*
X288750Y105000D02*
D03*
X285000Y97500D02*
D03*
X288750Y90000D02*
D03*
X277500Y412500D02*
D03*
X281250Y405000D02*
D03*
Y105000D02*
D03*
X277500Y97500D02*
D03*
X281250Y90000D02*
D03*
X270000Y412500D02*
D03*
X273750Y105000D02*
D03*
X270000Y97500D02*
D03*
X273750Y90000D02*
D03*
X262500Y412500D02*
D03*
Y232500D02*
D03*
Y217500D02*
D03*
X266250Y105000D02*
D03*
X262500Y97500D02*
D03*
X266250Y90000D02*
D03*
X255000Y412500D02*
D03*
X258750Y105000D02*
D03*
X255000Y97500D02*
D03*
X258750Y90000D02*
D03*
X247500Y412500D02*
D03*
X240000D02*
D03*
X243750Y105000D02*
D03*
X240000Y97500D02*
D03*
X243750Y90000D02*
D03*
X232500Y412500D02*
D03*
X236250Y255000D02*
D03*
Y105000D02*
D03*
X225000Y412500D02*
D03*
Y262500D02*
D03*
X228750Y255000D02*
D03*
X225000Y97500D02*
D03*
X217500Y412500D02*
D03*
X221250Y105000D02*
D03*
Y90000D02*
D03*
X210000Y412500D02*
D03*
X213750Y105000D02*
D03*
X210000Y97500D02*
D03*
X213750Y90000D02*
D03*
X202500Y412500D02*
D03*
X206250Y105000D02*
D03*
X202500Y97500D02*
D03*
X206250Y90000D02*
D03*
X195000Y412500D02*
D03*
X198750Y105000D02*
D03*
X195000Y97500D02*
D03*
X198750Y90000D02*
D03*
X187500Y412500D02*
D03*
X191250Y105000D02*
D03*
X187500Y97500D02*
D03*
X191250Y90000D02*
D03*
X180000Y412500D02*
D03*
X183750Y105000D02*
D03*
X180000Y97500D02*
D03*
X183750Y90000D02*
D03*
X176250Y105000D02*
D03*
X172500Y97500D02*
D03*
X176250Y90000D02*
D03*
X165000Y412500D02*
D03*
X168750Y105000D02*
D03*
X165000Y97500D02*
D03*
X168750Y90000D02*
D03*
X157500Y412500D02*
D03*
X161250Y105000D02*
D03*
X157500Y97500D02*
D03*
X161250Y90000D02*
D03*
X150000Y412500D02*
D03*
X153750Y210000D02*
D03*
Y105000D02*
D03*
Y90000D02*
D03*
X142500Y412500D02*
D03*
X146250Y105000D02*
D03*
Y90000D02*
D03*
X135000Y412500D02*
D03*
X138750Y105000D02*
D03*
X135000Y97500D02*
D03*
X138750Y90000D02*
D03*
X131250Y405000D02*
D03*
Y240000D02*
D03*
Y105000D02*
D03*
X127500Y97500D02*
D03*
X131250Y90000D02*
D03*
X123750Y270000D02*
D03*
Y105000D02*
D03*
X120000Y97500D02*
D03*
X123750Y90000D02*
D03*
X116250Y405000D02*
D03*
Y390000D02*
D03*
Y375000D02*
D03*
Y360000D02*
D03*
Y345000D02*
D03*
Y330000D02*
D03*
Y315000D02*
D03*
X112500Y307500D02*
D03*
X116250Y300000D02*
D03*
X112500Y292500D02*
D03*
X116250Y285000D02*
D03*
X112500Y277500D02*
D03*
X116250Y255000D02*
D03*
Y105000D02*
D03*
X108750Y300000D02*
D03*
X105000Y277500D02*
D03*
Y262500D02*
D03*
X108750Y255000D02*
D03*
Y105000D02*
D03*
X105000Y97500D02*
D03*
X101250Y300000D02*
D03*
X97500Y292500D02*
D03*
X101250Y285000D02*
D03*
X97500Y277500D02*
D03*
X101250Y105000D02*
D03*
X97500Y97500D02*
D03*
X101250Y90000D02*
D03*
X90000Y292500D02*
D03*
X93750Y285000D02*
D03*
X90000Y277500D02*
D03*
X93750Y105000D02*
D03*
X90000Y97500D02*
D03*
X93750Y90000D02*
D03*
X90000Y82500D02*
D03*
X86250Y285000D02*
D03*
X82500Y277500D02*
D03*
Y127500D02*
D03*
Y112500D02*
D03*
X86250Y105000D02*
D03*
X82500Y97500D02*
D03*
X86250Y90000D02*
D03*
X82500Y82500D02*
D03*
X86250Y75000D02*
D03*
X82500Y67500D02*
D03*
X75000Y277500D02*
D03*
Y142500D02*
D03*
Y67500D02*
D03*
X102508Y190208D02*
D03*
X273300Y257200D02*
D03*
X204000Y393400D02*
D03*
X197100Y223000D02*
D03*
X289600Y315400D02*
D03*
X275500Y373000D02*
D03*
X212163Y256111D02*
D03*
X217000Y211709D02*
D03*
X191615Y225394D02*
D03*
X188896Y229884D02*
D03*
X279900Y315500D02*
D03*
X290369Y248631D02*
D03*
X207429Y237370D02*
D03*
X283900Y315500D02*
D03*
X293900Y315400D02*
D03*
X304100D02*
D03*
X300100Y315500D02*
D03*
X171600Y307700D02*
D03*
Y311000D02*
D03*
X213400Y296700D02*
D03*
X338300Y307600D02*
D03*
X265700Y307500D02*
D03*
X260500Y307600D02*
D03*
X214862Y234300D02*
D03*
X298400Y345800D02*
D03*
X301300D02*
D03*
X163500Y348900D02*
D03*
X295600Y266620D02*
D03*
X299600Y266300D02*
D03*
X262900Y229100D02*
D03*
X235501Y231200D02*
D03*
X253263Y250293D02*
D03*
X262809Y259409D02*
D03*
X231800Y236900D02*
D03*
X234700Y237500D02*
D03*
X246222Y248323D02*
D03*
X262700Y224300D02*
D03*
X220200Y359100D02*
D03*
X212300Y363100D02*
D03*
X148446Y259771D02*
D03*
X215900Y397300D02*
D03*
X208700Y393900D02*
D03*
X211500Y385100D02*
D03*
X286301Y239697D02*
D03*
X315700Y194800D02*
D03*
X199500Y367700D02*
D03*
X279450Y340100D02*
D03*
X279950Y390700D02*
D03*
X272550Y392200D02*
D03*
X215550Y371500D02*
D03*
X236150Y371300D02*
D03*
X200550Y372800D02*
D03*
X282750Y370500D02*
D03*
X279500Y286000D02*
D03*
X273000Y403000D02*
D03*
Y312000D02*
D03*
X266500Y403000D02*
D03*
X269750Y396500D02*
D03*
Y383500D02*
D03*
X260000Y403000D02*
D03*
X263250Y396500D02*
D03*
Y383500D02*
D03*
X260000Y377000D02*
D03*
X253500Y403000D02*
D03*
X256750Y396500D02*
D03*
X253500Y390000D02*
D03*
X256750Y383500D02*
D03*
Y370500D02*
D03*
X247000Y403000D02*
D03*
X250250Y396500D02*
D03*
Y383500D02*
D03*
X240500Y403000D02*
D03*
X243750Y396500D02*
D03*
X234000Y403000D02*
D03*
X237250Y396500D02*
D03*
X221000Y286000D02*
D03*
X214500Y403000D02*
D03*
Y377000D02*
D03*
X208000Y403000D02*
D03*
X211250Y396500D02*
D03*
X208000Y390000D02*
D03*
X211250Y370500D02*
D03*
X208000Y351000D02*
D03*
X201500Y403000D02*
D03*
X204750Y396500D02*
D03*
X201500Y364000D02*
D03*
X195000Y403000D02*
D03*
X198250Y383500D02*
D03*
X195000Y325000D02*
D03*
Y286000D02*
D03*
X188500Y390000D02*
D03*
Y377000D02*
D03*
Y286000D02*
D03*
X182000Y390000D02*
D03*
X178750Y383500D02*
D03*
X289299Y211300D02*
D03*
X281400Y167600D02*
D03*
X293100Y211200D02*
D03*
X207600Y305200D02*
D03*
X221600Y309100D02*
D03*
X211500Y311926D02*
D03*
X214400Y311900D02*
D03*
X254400Y354400D02*
D03*
X251200Y354700D02*
D03*
X249685Y342885D02*
D03*
X263300Y363100D02*
D03*
X246200Y350500D02*
D03*
X258224Y333785D02*
D03*
X254592Y336798D02*
D03*
X257485Y336590D02*
D03*
X250000Y351800D02*
D03*
X222500Y293500D02*
D03*
X213100Y292800D02*
D03*
X151700Y226369D02*
D03*
X215400Y166500D02*
D03*
X267400Y164900D02*
D03*
X341700Y202000D02*
D03*
X180640Y251900D02*
D03*
X330600Y185500D02*
D03*
X336519Y192890D02*
D03*
X140500Y205300D02*
D03*
X133300Y205100D02*
D03*
X187900Y218900D02*
D03*
X329500Y260400D02*
D03*
X96494Y131891D02*
D03*
X104194Y131691D02*
D03*
X93600Y166400D02*
D03*
X78300Y170200D02*
D03*
X100400Y131900D02*
D03*
X111500Y130900D02*
D03*
X297900Y248300D02*
D03*
X224400Y217600D02*
D03*
X318100Y167100D02*
D03*
X222100D02*
D03*
X237300Y178000D02*
D03*
X309700Y188900D02*
D03*
X312300Y213600D02*
D03*
X311623Y250363D02*
D03*
X204571Y211075D02*
D03*
X266700Y245900D02*
D03*
X185900Y245100D02*
D03*
X185700Y241700D02*
D03*
X200500Y252300D02*
D03*
X84800Y231700D02*
D03*
X126575Y239961D02*
D03*
X175800Y247900D02*
D03*
X191989Y250926D02*
D03*
X186000Y249900D02*
D03*
X87800Y234200D02*
D03*
X112500Y202300D02*
D03*
X114800Y183300D02*
D03*
X110000Y183200D02*
D03*
X227600Y383900D02*
D03*
X227800Y402500D02*
D03*
X223100Y402300D02*
D03*
X245000Y375600D02*
D03*
X239500D02*
D03*
X246800Y395400D02*
D03*
X240600Y395600D02*
D03*
X111500Y246900D02*
D03*
X106600Y247000D02*
D03*
X192400Y203900D02*
D03*
X187100Y204000D02*
D03*
X229400Y217300D02*
D03*
X294400Y194033D02*
D03*
X112500Y125000D02*
D03*
X110000Y120000D02*
D03*
X112500Y168000D02*
D03*
X111000Y165000D02*
D03*
X109500Y168000D02*
D03*
X108000Y165000D02*
D03*
X106500Y168000D02*
D03*
X78000Y165000D02*
D03*
X256900Y290300D02*
D03*
X264665Y265453D02*
D03*
X343400Y169200D02*
D03*
X252063Y170137D02*
D03*
X255200Y167900D02*
D03*
X295100Y170500D02*
D03*
X326300Y169700D02*
D03*
X323300Y188700D02*
D03*
X321613Y192133D02*
D03*
X327400Y192800D02*
D03*
X319815Y228634D02*
D03*
X315800Y229200D02*
D03*
X303400Y251500D02*
D03*
X299400Y168000D02*
D03*
X307000Y251000D02*
D03*
X341137Y194137D02*
D03*
X327794Y200894D02*
D03*
X312200Y173300D02*
D03*
X315500Y172300D02*
D03*
X311300Y179200D02*
D03*
X82500Y256900D02*
D03*
X97900Y191400D02*
D03*
X185365Y210531D02*
D03*
X196700Y236400D02*
D03*
X148991Y209646D02*
D03*
X154300Y265800D02*
D03*
X158100Y256800D02*
D03*
X167379Y261839D02*
D03*
X141399Y256001D02*
D03*
X253274Y219501D02*
D03*
X245100Y221700D02*
D03*
X146200Y250600D02*
D03*
X146800Y225900D02*
D03*
X249500Y218400D02*
D03*
X261300Y179680D02*
D03*
X270421Y180657D02*
D03*
X288500Y230700D02*
D03*
X285200Y230300D02*
D03*
X281700Y238500D02*
D03*
X281791Y218110D02*
D03*
X282311Y254900D02*
D03*
X181981Y173426D02*
D03*
X308042Y261396D02*
D03*
X325603Y262068D02*
D03*
X185341Y261986D02*
D03*
X270200Y211000D02*
D03*
X226500Y212000D02*
D03*
X276900Y199800D02*
D03*
X251752Y178648D02*
D03*
X171779Y163521D02*
D03*
X149400Y158100D02*
D03*
X267712Y241672D02*
D03*
X212300Y247100D02*
D03*
X161417Y218701D02*
D03*
X316200Y240800D02*
D03*
X196683Y252097D02*
D03*
X173200Y209600D02*
D03*
X200984Y261122D02*
D03*
X302500Y209000D02*
D03*
X334791Y180791D02*
D03*
X287231Y202569D02*
D03*
X222861Y202761D02*
D03*
X169193Y209547D02*
D03*
X123327Y240059D02*
D03*
X160925Y209055D02*
D03*
X164370D02*
D03*
X85628Y191609D02*
D03*
X81790Y190624D02*
D03*
X87697Y214961D02*
D03*
X87598Y210039D02*
D03*
X98819Y203150D02*
D03*
X341929Y157972D02*
D03*
X290059D02*
D03*
X252264Y158169D02*
D03*
X239616Y284203D02*
D03*
X236516Y284252D02*
D03*
X197043Y219900D02*
D03*
X192900Y366300D02*
D03*
X233800Y364700D02*
D03*
X254800Y374700D02*
D03*
X262985Y372985D02*
D03*
X229569Y381469D02*
D03*
X257600Y391900D02*
D03*
X225600Y373200D02*
D03*
X267200Y365000D02*
D03*
X195300Y373400D02*
D03*
X194300Y397600D02*
D03*
X190000Y386300D02*
D03*
X205438Y371362D02*
D03*
Y381638D02*
D03*
X206500Y364700D02*
D03*
X283900Y385400D02*
D03*
X268600Y378800D02*
D03*
X268202Y391207D02*
D03*
X270004Y386973D02*
D03*
X223395Y364090D02*
D03*
X225295Y381890D02*
D03*
X251220Y375138D02*
D03*
X215945Y383957D02*
D03*
X99000Y197400D02*
D03*
X246000Y299300D02*
D03*
X241220Y289604D02*
D03*
X238269Y294012D02*
D03*
X191400Y231800D02*
D03*
X147300Y232700D02*
D03*
X328799Y395701D02*
D03*
X176046Y255771D02*
D03*
X182000Y261300D02*
D03*
X99602Y236898D02*
D03*
X171446Y260871D02*
D03*
X149500Y325000D02*
D03*
X260700Y250818D02*
D03*
X217449Y306400D02*
D03*
X254900Y311800D02*
D03*
X266400Y297300D02*
D03*
X282302Y259102D02*
D03*
X141400Y260800D02*
D03*
X133402Y372911D02*
D03*
X135900Y374900D02*
D03*
X242300Y188500D02*
D03*
X239000Y194518D02*
D03*
X195600Y359800D02*
D03*
X235300Y358954D02*
D03*
X129701Y358201D02*
D03*
X226993Y295118D02*
D03*
X195800Y307400D02*
D03*
X241710Y350657D02*
D03*
X242700Y354000D02*
D03*
X221334Y299372D02*
D03*
X227796Y355600D02*
D03*
X224900Y297300D02*
D03*
X217000Y350100D02*
D03*
X223796Y354787D02*
D03*
X335500Y352000D02*
D03*
X283705Y306095D02*
D03*
X273143Y307157D02*
D03*
X282900Y292900D02*
D03*
X262432Y297232D02*
D03*
X259472Y299928D02*
D03*
X200700Y347400D02*
D03*
X235900Y362100D02*
D03*
X247859Y290059D02*
D03*
X277500Y357200D02*
D03*
X163600Y344800D02*
D03*
X160600Y324600D02*
D03*
X151841Y316300D02*
D03*
X132972Y250984D02*
D03*
X112400Y215700D02*
D03*
X179800Y293500D02*
D03*
X185000Y292500D02*
D03*
X143300Y294600D02*
D03*
X165500Y292500D02*
D03*
X136433Y316378D02*
D03*
X137600Y297200D02*
D03*
X155300Y292700D02*
D03*
X152300Y293900D02*
D03*
X170300Y294700D02*
D03*
X170349Y325851D02*
D03*
X172400Y323800D02*
D03*
X165800Y325000D02*
D03*
X173999Y293267D02*
D03*
X204600Y300000D02*
D03*
X218858Y302334D02*
D03*
X220000Y305000D02*
D03*
X208245Y314406D02*
D03*
X204600Y316000D02*
D03*
X155841Y316372D02*
D03*
X142849Y316400D02*
D03*
X207100Y319838D02*
D03*
X202400Y321900D02*
D03*
X140000Y325700D02*
D03*
X146392Y316400D02*
D03*
X133126Y316362D02*
D03*
X180000Y307900D02*
D03*
X187700Y300700D02*
D03*
X210900Y355200D02*
D03*
X191985Y357500D02*
D03*
X144700Y355900D02*
D03*
X141100Y355500D02*
D03*
X137900Y330000D02*
D03*
X160300Y293200D02*
D03*
X163700Y301300D02*
D03*
X163900Y261400D02*
D03*
X178800Y298200D02*
D03*
X155100Y361800D02*
D03*
X156500Y385600D02*
D03*
X138891Y349700D02*
D03*
X158000Y356300D02*
D03*
X187400Y369750D02*
D03*
X138234Y377534D02*
D03*
X187400Y372650D02*
D03*
X137207Y381524D02*
D03*
X197749Y328749D02*
D03*
X199800Y330800D02*
D03*
X174660Y379524D02*
D03*
X143900Y383524D02*
D03*
X126549Y341549D02*
D03*
X128600Y343600D02*
D03*
X172609Y376609D02*
D03*
X139900Y382600D02*
D03*
X206900Y333900D02*
D03*
X209800Y336400D02*
D03*
X219009Y338509D02*
D03*
X209600Y342400D02*
D03*
X212100Y345000D02*
D03*
X214600Y347300D02*
D03*
X232891Y350955D02*
D03*
X226400Y344900D02*
D03*
X328300Y178400D02*
D03*
X285300Y179200D02*
D03*
X292500Y172500D02*
D03*
X290200Y178600D02*
D03*
X276900Y166661D02*
D03*
X344700Y163500D02*
D03*
X287700Y259000D02*
D03*
X274200Y286800D02*
D03*
X242600Y296100D02*
D03*
X182700Y375100D02*
D03*
Y384500D02*
D03*
X233760Y291142D02*
D03*
X226000Y288300D02*
D03*
X248000Y200900D02*
D03*
X250900D02*
D03*
X249439Y299631D02*
D03*
X281000Y196300D02*
D03*
X266700Y326500D02*
D03*
X311600Y261600D02*
D03*
X190853Y167456D02*
D03*
X204100Y295500D02*
D03*
X197681Y158097D02*
D03*
X240200Y220100D02*
D03*
X237200Y188100D02*
D03*
X230000Y192800D02*
D03*
X250300Y302400D02*
D03*
X254600Y304500D02*
D03*
X243800Y179100D02*
D03*
X256991Y314209D02*
D03*
X259243Y316600D02*
D03*
X266800Y200200D02*
D03*
X281000Y209200D02*
D03*
X278732Y237738D02*
D03*
X263600Y313100D02*
D03*
X292100Y385600D02*
D03*
X281900Y357900D02*
D03*
X296600Y190100D02*
D03*
X277450Y188250D02*
D03*
X260774Y187271D02*
D03*
X267453Y335553D02*
D03*
X265179Y337900D02*
D03*
X287191Y325091D02*
D03*
X276500Y328500D02*
D03*
X289313Y334600D02*
D03*
X246600Y353400D02*
D03*
X271666Y335366D02*
D03*
X312300Y321500D02*
D03*
X193600Y260500D02*
D03*
X200295Y286713D02*
D03*
X328000Y297900D02*
D03*
X308200Y296300D02*
D03*
X319800Y309291D02*
D03*
Y312598D02*
D03*
X317800Y357600D02*
D03*
X315800Y316700D02*
D03*
X322300Y293800D02*
D03*
X325300Y338700D02*
D03*
X297018Y321829D02*
D03*
X291700Y373600D02*
D03*
Y294300D02*
D03*
X294600Y295200D02*
D03*
X295200Y379400D02*
D03*
X294400Y356900D02*
D03*
X287900Y292727D02*
D03*
X288000Y303400D02*
D03*
X330800Y314700D02*
D03*
Y317600D02*
D03*
X327200Y377100D02*
D03*
X324100Y373400D02*
D03*
X329852Y356052D02*
D03*
X332700Y356600D02*
D03*
X329000Y371400D02*
D03*
X327300Y373800D02*
D03*
X338500Y338000D02*
D03*
X313500Y345200D02*
D03*
X282706Y346675D02*
D03*
X327530Y294073D02*
D03*
X312963Y293876D02*
D03*
X317294Y294172D02*
D03*
X301818Y293713D02*
D03*
X278908Y291613D02*
D03*
X277588Y346675D02*
D03*
X235500Y200200D02*
D03*
X262500Y200748D02*
D03*
X206700Y158800D02*
D03*
X278445Y157874D02*
D03*
X272244Y200394D02*
D03*
X248622Y178248D02*
D03*
X247933Y135827D02*
D03*
X131100Y235100D02*
D03*
X152500Y223100D02*
D03*
X107677Y211910D02*
D03*
X200400Y155700D02*
D03*
X125318Y215818D02*
D03*
X320900Y134900D02*
D03*
X321000Y158900D02*
D03*
X321700Y170500D02*
D03*
X279100Y193900D02*
D03*
X232400Y141000D02*
D03*
X228000Y130300D02*
D03*
X224606Y132300D02*
D03*
X201900Y148700D02*
D03*
X207000Y166300D02*
D03*
X272400Y236000D02*
D03*
X271400Y149800D02*
D03*
X280413Y221555D02*
D03*
X147300Y237800D02*
D03*
X313900Y209500D02*
D03*
X299600Y228300D02*
D03*
X293100Y205600D02*
D03*
X317400Y247700D02*
D03*
X269700Y220900D02*
D03*
X236583Y209659D02*
D03*
X240583Y209700D02*
D03*
X87695Y173597D02*
D03*
X318307Y190133D02*
D03*
X202461Y201870D02*
D03*
X203761Y170221D02*
D03*
X262106Y221161D02*
D03*
X257496Y251311D02*
D03*
X253496Y137055D02*
D03*
X208563Y292421D02*
D03*
X287402Y218110D02*
D03*
X247234Y359009D02*
D03*
X172146Y235433D02*
D03*
X175984Y230318D02*
D03*
X273327Y141732D02*
D03*
X87992Y239370D02*
D03*
X87205Y219390D02*
D03*
X240059Y224114D02*
D03*
X172343Y244094D02*
D03*
X115748Y180118D02*
D03*
X116634Y203937D02*
D03*
X106791Y177657D02*
D03*
X124606Y167028D02*
D03*
X118504Y175000D02*
D03*
X310039Y149606D02*
D03*
X301279Y131890D02*
D03*
X301584Y157380D02*
D03*
X298524Y157874D02*
D03*
X283563Y158268D02*
D03*
X281496Y133563D02*
D03*
X281502Y154921D02*
D03*
X279232Y149213D02*
D03*
X268110Y134843D02*
D03*
X261319Y133661D02*
D03*
X261811Y157579D02*
D03*
X248917Y158169D02*
D03*
X228346Y159449D02*
D03*
X220276Y154724D02*
D03*
X224080Y157956D02*
D03*
X212795Y148622D02*
D03*
X219685Y149016D02*
D03*
X209744Y129921D02*
D03*
X209819Y157084D02*
D03*
X196161Y130512D02*
D03*
X212894Y157480D02*
D03*
X191667Y157634D02*
D03*
X190748Y132776D02*
D03*
X181398Y156496D02*
D03*
X180118Y145079D02*
D03*
X190453Y148032D02*
D03*
D240*
X307075Y241642D02*
D03*
Y237311D02*
D03*
X302744Y241642D02*
D03*
Y237311D02*
D03*
X253198Y237362D02*
D03*
Y241693D02*
D03*
X257528Y237362D02*
D03*
Y241693D02*
D03*
D241*
X232771Y339780D02*
D03*
X236390Y343399D02*
D03*
X254137Y325374D02*
D03*
X232632Y311245D02*
D03*
X236251Y307626D02*
D03*
X243489Y314864D02*
D03*
X239870Y311245D02*
D03*
Y318483D02*
D03*
X236251Y314864D02*
D03*
Y322103D02*
D03*
X232632Y318483D02*
D03*
X229013Y314864D02*
D03*
X232980Y325652D02*
D03*
X229361Y322033D02*
D03*
X225742Y318414D02*
D03*
X229361Y329271D02*
D03*
X225742Y325652D02*
D03*
X222123Y322033D02*
D03*
X225742Y332890D02*
D03*
X222123Y329271D02*
D03*
X218503Y325652D02*
D03*
X250518Y321755D02*
D03*
X246899Y318136D02*
D03*
X250518Y328993D02*
D03*
X246899Y325374D02*
D03*
X243280Y321755D02*
D03*
X246899Y332612D02*
D03*
X243280Y328993D02*
D03*
X239661Y325374D02*
D03*
X243628Y336161D02*
D03*
X240009Y332542D02*
D03*
X236390Y328923D02*
D03*
X240009Y339780D02*
D03*
X236390Y336161D02*
D03*
X232771Y332542D02*
D03*
X229152Y336161D02*
D03*
D242*
X366600Y181400D02*
D03*
M02*
