G04*
G04 #@! TF.GenerationSoftware,Altium Limited,Altium Designer,21.4.1 (30)*
G04*
G04 Layer_Physical_Order=6*
G04 Layer_Color=16440176*
%FSLAX25Y25*%
%MOIN*%
G70*
G04*
G04 #@! TF.SameCoordinates,52388346-E8D1-4751-8710-1ABE23D8764D*
G04*
G04*
G04 #@! TF.FilePolarity,Positive*
G04*
G01*
G75*
%ADD11C,0.00600*%
%ADD13C,0.00800*%
%ADD17C,0.01000*%
%ADD223C,0.03937*%
%ADD224R,0.03937X0.03937*%
%ADD225C,0.02200*%
%ADD243C,0.03000*%
D11*
X332019Y229586D02*
X340697Y238264D01*
X340895D01*
X258300Y291587D02*
Y295200D01*
X222500Y216813D02*
Y221600D01*
X216970Y225631D02*
X217035Y225567D01*
X218533D01*
X222500Y221600D01*
X332019Y195119D02*
Y229586D01*
X342694Y215194D02*
X343000Y215500D01*
X342694Y214438D02*
Y215194D01*
X339029Y205366D02*
Y210773D01*
X343964Y212958D02*
X344396D01*
X339029Y210773D02*
X342694Y214438D01*
X339029Y205366D02*
X341394Y203002D01*
X340829Y206112D02*
Y210027D01*
X343264Y212462D02*
X343467D01*
X343073Y203868D02*
X343837D01*
X340829Y210027D02*
X343264Y212462D01*
X343467D02*
X343964Y212958D01*
X340829Y206112D02*
X343073Y203868D01*
X336127Y216190D02*
Y218322D01*
X335776Y215839D02*
X336127Y216190D01*
X334447Y215839D02*
X335776D01*
X334127Y215518D02*
X334447Y215839D01*
X334127Y214559D02*
Y215518D01*
Y214559D02*
X334447Y214239D01*
X335776D01*
X336127Y213887D01*
Y213587D02*
Y213887D01*
Y213373D02*
Y213587D01*
X335990Y193852D02*
Y210690D01*
X367550Y85403D02*
Y88900D01*
X367198Y85052D02*
X367550Y85403D01*
X365870Y85052D02*
X367198D01*
X365550Y84732D02*
X365870Y85052D01*
X365550Y83772D02*
Y84732D01*
Y83772D02*
X365870Y83451D01*
X367198D01*
X367550Y83100D01*
Y82800D02*
Y83100D01*
Y88900D02*
Y91533D01*
Y80604D02*
Y82800D01*
X336096Y87533D02*
X338531Y89969D01*
X336096Y87036D02*
Y87533D01*
Y87036D02*
X337035Y86096D01*
Y85644D02*
Y86096D01*
X336356Y84965D02*
X337035Y85644D01*
X335904Y84965D02*
X336356D01*
X334942Y85927D02*
X335904Y84965D01*
X334490Y85927D02*
X334942D01*
X333811Y85248D02*
X334490Y85927D01*
X333811Y84795D02*
Y85248D01*
Y84795D02*
X334772Y83834D01*
Y83381D02*
Y83834D01*
X334094Y82702D02*
X334772Y83381D01*
X333641Y82702D02*
X334094D01*
X332702Y83642D02*
X333641Y82702D01*
X332205Y83642D02*
X332702D01*
X330861Y82298D02*
X332205Y83642D01*
X338531Y89969D02*
X355463Y106900D01*
X329400Y80837D02*
X330861Y82298D01*
X329400Y71379D02*
Y80837D01*
X356300Y106900D02*
X376900Y127500D01*
X293906Y230478D02*
Y231894D01*
X293600Y232200D02*
X293906Y231894D01*
Y230478D02*
X295000Y229384D01*
X318594Y205719D02*
X319000Y205313D01*
X318307Y190133D02*
Y198614D01*
X318594Y205719D02*
Y214814D01*
X319000Y199306D02*
Y205313D01*
X318307Y198614D02*
X319000Y199306D01*
X244700Y234137D02*
X248123Y237560D01*
X244700Y224787D02*
X247000Y222487D01*
X244700Y224787D02*
Y234137D01*
X217700Y232149D02*
Y235600D01*
X217500Y235800D02*
X217700Y235600D01*
X271400Y250913D02*
Y252300D01*
X278600Y237870D02*
Y243713D01*
X271400Y250913D02*
X278600Y243713D01*
X267000Y256700D02*
X271400Y252300D01*
X336855Y222950D02*
X337976Y221828D01*
X336006Y222599D02*
X336358Y222950D01*
X336006Y225101D02*
X336358Y224750D01*
X335976Y221000D02*
X336006Y221030D01*
Y222599D01*
X337927Y217577D02*
X339776Y219426D01*
X335990Y210690D02*
X337927Y212627D01*
X336358Y222950D02*
X336855D01*
X336358Y224750D02*
X337600D01*
X336006Y225101D02*
Y226470D01*
X337600Y224750D02*
X339776Y222574D01*
Y219426D02*
Y222574D01*
X335776Y226700D02*
X336006Y226470D01*
X337927Y212627D02*
Y217577D01*
X337976Y220172D02*
Y221828D01*
X336127Y218322D02*
X337976Y220172D01*
X336519Y192890D02*
Y193323D01*
X334190Y211436D02*
X336127Y213373D01*
X334190Y193023D02*
Y211436D01*
X335990Y193852D02*
X336519Y193323D01*
X333600Y192433D02*
X334190Y193023D01*
X333600Y192000D02*
Y192433D01*
X329300Y192400D02*
X332019Y195119D01*
X341394Y202306D02*
Y203002D01*
X343837Y203868D02*
X344144Y203562D01*
X341394Y202306D02*
X341700Y202000D01*
X327000Y226113D02*
X327400Y225713D01*
X326600Y226787D02*
X327000Y226387D01*
Y226113D02*
Y226387D01*
X327400Y216194D02*
Y225713D01*
X326600Y227900D02*
X328600Y229900D01*
Y229983D01*
X326600Y226787D02*
Y227900D01*
X323400Y224513D02*
Y254300D01*
X323000Y224113D02*
X323400Y224513D01*
X326400Y215194D02*
X327400Y216194D01*
X322600Y214563D02*
X323000Y214963D01*
Y224113D01*
X323400Y254300D02*
X329500Y260400D01*
X243100Y202869D02*
X247000Y206769D01*
X253145Y229385D02*
X254301Y228230D01*
Y227799D02*
Y228230D01*
X317915Y215493D02*
X318594Y214814D01*
X322600Y199214D02*
X325200Y196614D01*
X322600Y199214D02*
Y214563D01*
X325894Y204907D02*
X326400Y205413D01*
X325894Y199817D02*
Y204907D01*
X326400Y205413D02*
Y215194D01*
X325894Y199817D02*
X327400Y198310D01*
X195400Y208000D02*
X199500Y212100D01*
Y238900D02*
X204100Y243500D01*
X199500Y212100D02*
Y238900D01*
X374900Y98883D02*
Y122553D01*
X367550Y91533D02*
X374900Y98883D01*
X369350Y90787D02*
X376700Y98137D01*
Y121807D01*
X380600Y125707D01*
X378800Y126453D02*
Y144300D01*
X374900Y122553D02*
X378800Y126453D01*
X380600Y125707D02*
Y143554D01*
X355554Y108700D02*
X375100Y128246D01*
Y151100D01*
X327600Y81583D02*
X354717Y108700D01*
X355554D01*
X355463Y106900D02*
X356300D01*
X376900Y127500D02*
Y150354D01*
X375100Y151100D02*
X383100Y159100D01*
X376900Y150354D02*
X384900Y158354D01*
Y167444D01*
X383100Y159100D02*
Y166699D01*
X382946Y194400D02*
X387800Y189546D01*
X380600Y143554D02*
X387800Y150754D01*
X382200Y192600D02*
X386000Y188800D01*
X378800Y144300D02*
X386000Y151500D01*
X379152Y168850D02*
X383494D01*
X386000Y151500D02*
Y188800D01*
X379152Y167050D02*
X382749D01*
X383100Y166699D01*
X383494Y168850D02*
X384900Y167444D01*
X387800Y150754D02*
Y189546D01*
X378000Y169950D02*
X378051D01*
X379152Y168850D01*
X378000Y165950D02*
X378051D01*
X379152Y167050D01*
X379051Y194400D02*
X382946D01*
X377952Y195500D02*
X379051Y194400D01*
Y192600D02*
X382200D01*
X377900Y195500D02*
X377952D01*
X377900Y191500D02*
X377952D01*
X379051Y192600D01*
X361150Y73531D02*
X362845D01*
X359482Y71863D02*
X361150Y73531D01*
X365550Y73943D02*
X367172Y72321D01*
X363256Y73943D02*
X365550D01*
X367523Y70302D02*
X368020D01*
X367172Y70654D02*
X367523Y70302D01*
X367172Y70654D02*
Y72321D01*
X367550Y80604D02*
X368372Y79782D01*
Y70654D02*
Y79782D01*
X368020Y70302D02*
X368372Y70654D01*
X359482Y66942D02*
X361561Y64862D01*
X367172Y66484D02*
Y68151D01*
X365550Y64862D02*
X367172Y66484D01*
X361561Y64862D02*
X365550D01*
X367523Y68502D02*
X368766D01*
X367172Y68151D02*
X367523Y68502D01*
X369350Y81350D02*
Y90787D01*
Y81350D02*
X370172Y80528D01*
X362845Y73531D02*
X363256Y73943D01*
X370172Y69908D02*
Y80528D01*
X368766Y68502D02*
X370172Y69908D01*
X327600Y70633D02*
Y81583D01*
X326300Y169700D02*
X326400Y169800D01*
Y186550D01*
X324500Y177800D02*
Y184118D01*
X329300Y189450D02*
Y192400D01*
X326400Y186550D02*
X329300Y189450D01*
X216927Y189000D02*
Y196730D01*
X217400Y197203D01*
Y204500D01*
X212109Y209791D02*
X217400Y204500D01*
X218500Y197200D02*
X220900Y194800D01*
X214009Y212012D02*
Y212331D01*
Y212012D02*
X218500Y207522D01*
Y197200D02*
Y207522D01*
X212109Y213509D02*
X215070Y216470D01*
X212109Y209791D02*
Y213509D01*
X215070Y216470D02*
Y229518D01*
X217700Y232149D01*
X314900Y249700D02*
X316557Y251357D01*
X316844D01*
X314900Y242187D02*
Y249700D01*
X327400Y192800D02*
Y198310D01*
X325200Y184818D02*
Y196614D01*
X318100Y229606D02*
Y246567D01*
X317400Y247267D02*
Y247700D01*
Y247267D02*
X318100Y246567D01*
X317915Y229421D02*
X318100Y229606D01*
X313500Y227150D02*
Y240787D01*
X314200Y218000D02*
Y226450D01*
X312393Y216194D02*
X314200Y218000D01*
X313500Y227150D02*
X314200Y226450D01*
X313500Y240787D02*
X314900Y242187D01*
X234046Y178700D02*
X235246Y179900D01*
X228900Y178700D02*
X234046D01*
X208870Y172283D02*
Y172330D01*
X206210Y174990D02*
X208870Y172330D01*
X195400Y160379D02*
Y208000D01*
Y160379D02*
X197681Y158097D01*
X271500Y222433D02*
Y225400D01*
X272100Y219300D02*
Y221833D01*
X271500Y222433D02*
X272100Y221833D01*
X329751Y71027D02*
X331648D01*
X329400Y71379D02*
X329751Y71027D01*
X327600Y70633D02*
X329006Y69227D01*
X331756D01*
X332000Y71379D02*
Y72214D01*
X331648Y71027D02*
X332000Y71379D01*
X332107Y66484D02*
Y68876D01*
X331756Y69227D02*
X332107Y68876D01*
X346871Y64173D02*
X349639Y66942D01*
X334418Y64173D02*
X346871D01*
X332107Y66484D02*
X334418Y64173D01*
X341950Y74631D02*
X344718Y71863D01*
X332000Y72214D02*
X334418Y74631D01*
X341950D01*
X205529Y264051D02*
X208563Y267085D01*
X205529Y231211D02*
X206471Y230269D01*
X205529Y231211D02*
Y264051D01*
X248123Y237560D02*
Y250437D01*
X247000Y206769D02*
Y222487D01*
X243120Y255440D02*
X248123Y250437D01*
X254300Y224599D02*
Y227798D01*
X265700Y227300D02*
Y237432D01*
X266800Y225713D02*
Y237400D01*
X251363Y246853D02*
X251413Y246803D01*
X245959Y256628D02*
X251363Y251224D01*
X251413Y231201D02*
Y246803D01*
X251363Y246853D02*
Y251224D01*
X264797Y258809D02*
X265200Y259212D01*
X265900Y258257D02*
Y258356D01*
X266565Y259022D01*
X265493Y256651D02*
Y257851D01*
X264393Y258306D02*
X264797Y258710D01*
X265493Y257851D02*
X265900Y258257D01*
X264393Y256129D02*
Y258306D01*
X264797Y258710D02*
Y258809D01*
X245959Y256628D02*
Y299259D01*
X251413Y231201D02*
X253145Y229469D01*
X263345Y222400D02*
X263487D01*
X266800Y225713D01*
X262106Y221161D02*
X262106D01*
X263345Y222400D01*
X262700Y224300D02*
X265700Y227300D01*
X269613Y240212D02*
Y252532D01*
X265493Y256651D02*
X269613Y252532D01*
X266800Y237400D02*
X269613Y240212D01*
X295000Y207500D02*
Y229384D01*
X293100Y205600D02*
X295000Y207500D01*
X215400Y166500D02*
X218053Y169153D01*
X218553D01*
X220900Y171500D01*
Y194800D01*
X206471Y202760D02*
Y230269D01*
X206210Y202499D02*
X206471Y202760D01*
X206210Y174990D02*
Y202499D01*
X299400Y219500D02*
X304900Y225000D01*
X299400Y168000D02*
Y219500D01*
X330600Y185500D02*
X331033D01*
X332188Y184345D02*
X332384D01*
X332891Y183838D01*
X331033Y185500D02*
X332188Y184345D01*
X222500Y216813D02*
X223472Y215841D01*
X220961Y211474D02*
X223472Y213985D01*
Y215841D01*
X220961Y201839D02*
Y211474D01*
X235246Y179900D02*
X241100D01*
X245000Y183800D01*
X310400Y204349D02*
Y214387D01*
Y204349D02*
X310800Y203949D01*
Y191016D02*
Y203949D01*
X311600Y179500D02*
Y190216D01*
X310800Y191016D02*
X311600Y190216D01*
X311900Y191472D02*
Y202119D01*
X312000Y213300D02*
X312300Y213600D01*
X312000Y202219D02*
Y213300D01*
X311900Y202119D02*
X312000Y202219D01*
X311300Y179200D02*
X311600Y179500D01*
X311900Y191472D02*
X314370Y189002D01*
X309700Y188900D02*
Y203493D01*
X309300Y218053D02*
X311623Y220376D01*
X309300Y203893D02*
X309700Y203493D01*
X309300Y203893D02*
Y218053D01*
X314370Y179043D02*
Y189002D01*
X310400Y214387D02*
X312207Y216194D01*
X312393D01*
X311623Y220376D02*
Y250363D01*
X185700Y241950D02*
X193889Y250139D01*
X185700Y241700D02*
Y241950D01*
X193889Y250139D02*
Y260211D01*
X193600Y260500D02*
X193889Y260211D01*
X201642Y174368D02*
Y201051D01*
Y174368D02*
X203689Y172321D01*
X201642Y201051D02*
X202461Y201870D01*
X203689Y170294D02*
Y172321D01*
Y170294D02*
X203761Y170221D01*
X269400Y269400D02*
Y308856D01*
Y269400D02*
X279800Y259000D01*
X259200Y267509D02*
Y290687D01*
X258300Y291587D02*
X259200Y290687D01*
X261400Y272961D02*
Y289613D01*
X256800Y253302D02*
Y278387D01*
X255596Y252098D02*
X256800Y253302D01*
X259200Y267509D02*
X265200Y261509D01*
X261400Y289613D02*
X268300Y296513D01*
X255000Y280187D02*
X256800Y278387D01*
X260300Y272505D02*
Y296676D01*
Y272505D02*
X266565Y266240D01*
X261400Y272961D02*
X267665Y266695D01*
X259472Y297504D02*
X260300Y296676D01*
X259472Y297504D02*
Y299928D01*
X255596Y233569D02*
Y252098D01*
X255000Y280187D02*
Y295929D01*
X256991Y297919D01*
X266700Y311556D02*
X269400Y308856D01*
X266700Y311556D02*
Y326500D01*
X267665Y258566D02*
Y266695D01*
X267000Y257901D02*
X267665Y258566D01*
X267000Y309487D02*
X268100Y308387D01*
Y298287D02*
Y308387D01*
X268300Y296513D02*
Y298087D01*
X268100Y298287D02*
X268300Y298087D01*
X266565Y259022D02*
Y266240D01*
X265200Y259212D02*
Y261509D01*
X256991Y297919D02*
Y314209D01*
X267000Y256700D02*
Y257901D01*
X263600Y313100D02*
X267000Y309700D01*
Y309487D02*
Y309700D01*
X264393Y256129D02*
X267800Y252722D01*
X332891Y174222D02*
Y183838D01*
X324500Y184118D02*
X325200Y184818D01*
X317915Y215493D02*
Y229421D01*
X315800Y211400D02*
Y229200D01*
X304900Y225000D02*
Y241990D01*
X307000Y244090D01*
Y251000D01*
X343342Y163771D02*
X344429D01*
X344700Y163500D01*
X340600Y166513D02*
X343342Y163771D01*
X332891Y174222D02*
X340600Y166513D01*
Y166513D02*
Y166513D01*
X314370Y179043D02*
X315500Y177913D01*
Y172300D02*
Y177913D01*
X245959Y299259D02*
X246000Y299300D01*
X242600Y291105D02*
X243120Y290585D01*
Y255440D02*
Y290585D01*
X243100Y192444D02*
Y202869D01*
X242000Y203325D02*
X242483Y203807D01*
X242300Y191644D02*
X243100Y192444D01*
X237200Y188100D02*
X242000Y192900D01*
X249200Y205900D02*
X256968Y213668D01*
X242000Y192900D02*
Y203325D01*
X245000Y183800D02*
Y202143D01*
X248100Y205243D01*
X242300Y188500D02*
Y191644D01*
X248100Y205243D02*
Y206900D01*
X251400Y210200D01*
X243800Y179100D02*
X246100Y181400D01*
Y201687D02*
X249200Y204787D01*
X246100Y181400D02*
Y201687D01*
X249200Y204787D02*
Y205900D01*
X242483Y203807D02*
Y213799D01*
X240000Y216281D02*
X242483Y213799D01*
X256968Y213668D02*
Y232197D01*
X251400Y210200D02*
Y219187D01*
X251374Y219213D02*
X251400Y219187D01*
X251374Y219213D02*
Y221673D01*
X254300Y224599D01*
X253145Y229385D02*
Y229469D01*
X255596Y233569D02*
X256968Y232197D01*
X242600Y291105D02*
Y296100D01*
X276900Y166661D02*
X277175Y166936D01*
Y187975D01*
X287700Y259000D02*
X288737Y260037D01*
Y272263D01*
X274200Y286800D02*
X288737Y272263D01*
X285200Y200500D02*
Y220900D01*
X283600Y235300D02*
Y244200D01*
X279800Y248000D02*
X283600Y244200D01*
X281700Y233400D02*
X283600Y235300D01*
X281000Y196300D02*
X285200Y200500D01*
X282600Y223500D02*
X285200Y220900D01*
X279800Y248000D02*
Y259000D01*
X248000Y200900D02*
X248306Y200594D01*
X250111Y199411D02*
Y199678D01*
X250900Y200467D02*
Y200900D01*
X250111Y199678D02*
X250900Y200467D01*
X248306Y199361D02*
X248355Y199312D01*
X248306Y199361D02*
Y200594D01*
X248355Y199045D02*
Y199312D01*
X250111Y199411D02*
X256800Y192721D01*
X248355Y199045D02*
X255300Y192100D01*
X266537Y247950D02*
X267800Y249213D01*
Y252722D01*
X264800Y238332D02*
Y246687D01*
Y238332D02*
X265700Y237432D01*
X266063Y247950D02*
X266537D01*
X264800Y246687D02*
X266063Y247950D01*
X282600Y223500D02*
Y224613D01*
X281700Y225513D02*
Y233400D01*
Y225513D02*
X282600Y224613D01*
X311900Y261900D02*
Y275797D01*
X311600Y261600D02*
X311900Y261900D01*
X294600Y293097D02*
X311900Y275797D01*
X294600Y293097D02*
Y295200D01*
X204100Y243500D02*
Y295500D01*
X240000Y219900D02*
X240200Y220100D01*
X240000Y216281D02*
Y219900D01*
X220961Y201839D02*
X230000Y192800D01*
X278513Y211687D02*
X281000Y209200D01*
X278513Y211687D02*
Y237519D01*
X278732Y237738D01*
X278600Y237870D02*
X278732Y237738D01*
X277175Y187975D02*
X277450Y188250D01*
X267900Y215100D02*
X272100Y219300D01*
X267900Y208335D02*
Y215100D01*
Y208335D02*
X272244Y203991D01*
Y200394D02*
Y203991D01*
X237833Y199846D02*
Y208380D01*
X239333Y199224D02*
Y208380D01*
X235183Y197196D02*
X237833Y199846D01*
X216612Y67236D02*
Y86600D01*
Y94033D01*
X236683Y194061D02*
Y196574D01*
X235183Y194683D02*
Y197196D01*
X236683Y196574D02*
X239333Y199224D01*
X262500Y201100D02*
X262852D01*
X266100Y204348D02*
Y217300D01*
X262852Y201100D02*
X266100Y204348D01*
Y217300D02*
X269700Y220900D01*
X262500Y200748D02*
Y201100D01*
X255300Y179509D02*
Y192100D01*
X248400Y73170D02*
Y110200D01*
X240837Y165046D02*
X255300Y179509D01*
X240837Y117763D02*
X248400Y110200D01*
X245382Y70152D02*
X248400Y73170D01*
X244534Y70504D02*
Y72321D01*
X240837Y117763D02*
Y165046D01*
X242912Y73943D02*
X244534Y72321D01*
X244885Y70152D02*
X245382D01*
X244534Y70504D02*
X244885Y70152D01*
X240619Y73943D02*
X242912D01*
X240208Y73532D02*
X240619Y73943D01*
X238513Y73532D02*
X240208D01*
X236844Y71863D02*
X238513Y73532D01*
X249900Y72549D02*
Y110821D01*
X246004Y68652D02*
X249900Y72549D01*
X242337Y118385D02*
X249900Y110821D01*
X242337Y164425D02*
X256800Y178888D01*
X244885Y68652D02*
X246004D01*
X244534Y68301D02*
X244885Y68652D01*
X242337Y118385D02*
Y164425D01*
X244534Y66484D02*
Y68301D01*
X236844Y66942D02*
X238924Y64862D01*
X242912D02*
X244534Y66484D01*
X238924Y64862D02*
X242912D01*
X256800Y178888D02*
Y192721D01*
X216612Y94033D02*
X230640Y108062D01*
X218112Y67857D02*
Y83100D01*
Y86600D01*
Y93412D01*
X313900Y209500D02*
X315800Y211400D01*
X236583Y209630D02*
Y209659D01*
Y209630D02*
X237833Y208380D01*
X230640Y108062D02*
Y130708D01*
X228293Y146161D02*
X230246Y148115D01*
X224454Y183954D02*
X235183Y194683D01*
X228293Y133055D02*
X230640Y130708D01*
X224454Y166028D02*
X230246Y160236D01*
X224454Y166028D02*
Y183954D01*
X230246Y148115D02*
Y160236D01*
X228293Y133055D02*
Y146161D01*
X229154Y64173D02*
X231923Y66942D01*
X221622Y64173D02*
X229154D01*
X219790Y66005D02*
X221622Y64173D01*
X217842Y66005D02*
X219790D01*
X216612Y67236D02*
X217842Y66005D01*
X240553Y209600D02*
X240583D01*
X239333Y208380D02*
X240553Y209600D01*
X232140Y107440D02*
Y131330D01*
X231747Y147494D02*
Y160857D01*
X225954Y183333D02*
X236683Y194061D01*
X229793Y145540D02*
X231747Y147494D01*
X229793Y133677D02*
X232140Y131330D01*
X218112Y93412D02*
X232140Y107440D01*
X225954Y166649D02*
X231747Y160857D01*
X229793Y133677D02*
Y145540D01*
X225954Y166649D02*
Y183333D01*
X220933Y73943D02*
X224922D01*
X219312Y72321D02*
X220933Y73943D01*
X224922D02*
X227002Y71863D01*
X219312Y67857D02*
Y72321D01*
X218960Y67506D02*
X219312Y67857D01*
X218463Y67506D02*
X218960D01*
X218112Y67857D02*
X218463Y67506D01*
X208563Y267085D02*
Y292421D01*
D13*
X233760Y275280D02*
X238274Y270766D01*
X233760Y275280D02*
Y291142D01*
X214900Y189802D02*
X215400Y190302D01*
X214900Y175261D02*
Y189802D01*
X215400Y190302D02*
Y203600D01*
X213980Y171493D02*
Y174341D01*
X212193Y169706D02*
X213980Y171493D01*
X210741Y179138D02*
X212000Y177879D01*
Y177500D02*
Y177879D01*
X208500Y182300D02*
X210741Y180059D01*
Y179138D02*
Y180059D01*
X214300Y246272D02*
Y265590D01*
X214163Y265727D02*
X214300Y265590D01*
X214163Y277382D02*
X215354Y278574D01*
X214163Y265727D02*
Y277382D01*
X210909Y208091D02*
X215400Y203600D01*
X210909Y224014D02*
X212370Y225475D01*
X210909Y208091D02*
Y224014D01*
X207530Y234670D02*
X208500Y233700D01*
X207429Y237370D02*
X207530Y237269D01*
Y234670D02*
Y237269D01*
X295700Y266720D02*
Y290300D01*
X295600Y266620D02*
X295700Y266720D01*
X291700Y294300D02*
X295700Y290300D01*
X260106Y187940D02*
Y237380D01*
X258000Y261390D02*
Y278884D01*
Y261390D02*
X263193Y256197D01*
Y240467D02*
Y256197D01*
X246032Y248513D02*
Y250631D01*
Y248513D02*
X246222Y248323D01*
X215354Y286354D02*
X222500Y293500D01*
X215354Y278574D02*
Y286354D01*
X208500Y182300D02*
Y233700D01*
X212370Y225475D02*
Y227078D01*
X212862Y236673D02*
X213908Y237719D01*
X212862Y227570D02*
Y236673D01*
X212370Y227078D02*
X212862Y227570D01*
X213980Y174341D02*
X214900Y175261D01*
X256900Y279984D02*
X258000Y278884D01*
X256900Y279984D02*
Y290300D01*
X260106Y237380D02*
X263193Y240467D01*
X144700Y330400D02*
Y355900D01*
X140000Y325700D02*
X144700Y330400D01*
X182000Y261300D02*
Y295000D01*
X163500Y262179D02*
Y301100D01*
X163700Y301300D01*
X178800Y298200D02*
X182000Y295000D01*
X126600Y349600D02*
X135590Y358590D01*
X128200Y348937D02*
X137190Y357927D01*
X135900Y374900D02*
X136168Y374632D01*
X137190Y357927D02*
Y372509D01*
X136168Y373531D02*
Y374632D01*
X135590Y358590D02*
Y371846D01*
X136168Y373531D02*
X137190Y372509D01*
X134584Y372852D02*
X135590Y371846D01*
X326792Y369008D02*
X339100Y356700D01*
X333400Y335728D02*
X339100Y341428D01*
X325192Y368345D02*
X337500Y356037D01*
X331800Y336391D02*
X337500Y342091D01*
Y356037D01*
X339100Y341428D02*
Y356700D01*
X174660Y379524D02*
X174880Y379304D01*
X176509Y352783D02*
Y376463D01*
X174880Y378092D02*
X176509Y376463D01*
X174880Y378092D02*
Y379304D01*
X173689Y352226D02*
X174909Y353446D01*
X171537Y326118D02*
X173689Y328271D01*
X174181Y376528D02*
X174909Y375800D01*
Y353446D02*
Y375800D01*
X172690Y376528D02*
X174181D01*
X172609Y376609D02*
X172690Y376528D01*
X175289Y351563D02*
X176509Y352783D01*
X173689Y328271D02*
Y352226D01*
X172668Y324987D02*
X175289Y327608D01*
Y351563D01*
X160600Y341800D02*
X163600Y344800D01*
X160600Y324600D02*
Y341800D01*
Y318946D02*
Y324600D01*
X159900Y318246D02*
X160600Y318946D01*
X160300Y293200D02*
Y293579D01*
X159900Y293979D02*
Y318246D01*
Y293979D02*
X160300Y293579D01*
X140000Y315000D02*
Y325700D01*
Y315000D02*
X143300Y311700D01*
Y294600D02*
Y311700D01*
X163500Y262179D02*
X163900Y261779D01*
Y261400D02*
Y261779D01*
X138433Y311862D02*
Y320391D01*
X137900Y320924D02*
X138433Y320391D01*
X137600Y297200D02*
Y311028D01*
X138433Y311862D01*
X137900Y320924D02*
Y330000D01*
X170617Y326118D02*
X171537D01*
X170349Y325851D02*
X170617Y326118D01*
X172400Y323800D02*
X172668Y324068D01*
Y324987D01*
X165800Y325000D02*
X173999Y316801D01*
Y293267D02*
Y316801D01*
X136891Y351291D02*
X141100Y355500D01*
X136891Y340958D02*
Y351291D01*
X137900Y330000D02*
Y339949D01*
X136891Y340958D02*
X137900Y339949D01*
X186371Y370400D02*
X187021Y369750D01*
X187400D01*
X185100Y370400D02*
X186371D01*
X184631Y369931D02*
X185100Y370400D01*
X199532Y331068D02*
X199800Y330800D01*
X198613Y331068D02*
X199532D01*
X184631Y345049D02*
Y369931D01*
Y345049D02*
X198613Y331068D01*
X186371Y372000D02*
X187021Y372650D01*
X187400D01*
X183031Y370594D02*
X184437Y372000D01*
X186371D01*
X197482Y329017D02*
Y329937D01*
Y329017D02*
X197749Y328749D01*
X183031Y344387D02*
Y370594D01*
Y344387D02*
X197482Y329937D01*
X126600Y341600D02*
Y349600D01*
X126549Y341549D02*
X126600Y341600D01*
X128200Y344000D02*
X128600Y343600D01*
X128200Y344000D02*
Y348937D01*
X245463Y251200D02*
X246032Y250631D01*
X245463Y251200D02*
Y251400D01*
X238274Y258589D02*
X245463Y251400D01*
X238274Y258589D02*
Y270766D01*
X193600Y260500D02*
X200295Y267195D01*
Y286713D01*
X260106Y187940D02*
X260774Y187271D01*
X287191Y332478D02*
X289313Y334600D01*
X287191Y325091D02*
Y332478D01*
X276500Y317508D02*
Y345208D01*
X277588Y346296D01*
X275955Y306950D02*
Y316963D01*
X276500Y317508D01*
X277588Y346296D02*
Y346675D01*
X275955Y306950D02*
X278908Y303997D01*
X312300Y322147D02*
X312716Y321731D01*
X312300Y322147D02*
Y325372D01*
X313500Y326572D01*
Y345200D01*
X328000Y297900D02*
Y336000D01*
X325300Y338700D02*
X328000Y336000D01*
X310865Y300601D02*
Y311765D01*
X315800Y316700D01*
X297018Y311287D02*
Y321829D01*
X330800Y317600D02*
X331179D01*
X331647Y318069D01*
X330800Y314700D02*
X333400Y317300D01*
Y335728D01*
X331800Y318069D02*
Y336391D01*
X331647Y318069D02*
X331800D01*
X325192Y368345D02*
Y371018D01*
X326811Y372636D02*
Y372932D01*
X327300Y373421D01*
Y373800D01*
X325192Y371018D02*
X326811Y372636D01*
X328755Y371155D02*
X329000Y371400D01*
X327592Y371155D02*
X328755D01*
X326792Y370355D02*
X327592Y371155D01*
X326792Y369008D02*
Y370355D01*
X310865Y300601D02*
X317294Y294172D01*
X295902Y299629D02*
X301818Y293713D01*
X295902Y310171D02*
X297018Y311287D01*
X295902Y299629D02*
Y310171D01*
X278908Y291613D02*
Y303997D01*
X213908Y237719D02*
Y245879D01*
X214300Y246272D01*
D17*
X320615Y130266D02*
X328300Y137951D01*
X329415Y149007D02*
Y157148D01*
X328300Y137951D02*
Y147892D01*
X331215Y148261D02*
Y157894D01*
X330100Y137205D02*
Y147146D01*
X324352Y164757D02*
X331215Y157894D01*
X317774Y164757D02*
X324352D01*
X322415Y129520D02*
X330100Y137205D01*
X328300Y147892D02*
X329415Y149007D01*
X330100Y147146D02*
X331215Y148261D01*
X316728Y162957D02*
X323606D01*
X329415Y157148D01*
X303800Y214785D02*
X304670Y213914D01*
X304600Y206207D02*
X304670Y206277D01*
X304600Y194818D02*
Y206207D01*
X303800Y214785D02*
Y215100D01*
X306470Y215626D02*
X306700Y215856D01*
X306400Y194073D02*
Y205278D01*
X304670Y206277D02*
Y213914D01*
X306470Y205348D02*
Y215626D01*
X306400Y205278D02*
X306470Y205348D01*
X304800Y192473D02*
X306400Y194073D01*
X304800Y177730D02*
X312409Y170122D01*
Y169822D02*
Y170122D01*
Y169822D02*
X317474Y164757D01*
X310609Y169076D02*
Y169376D01*
X317474Y164757D02*
X317774D01*
X303000Y176985D02*
X310609Y169376D01*
Y169076D02*
X316728Y162957D01*
X303000Y193218D02*
X304600Y194818D01*
X303000Y176985D02*
Y193218D01*
X304800Y177730D02*
Y192473D01*
X284072Y70633D02*
Y73093D01*
X293192Y74831D02*
X296883Y71140D01*
X312209Y86364D02*
X323600Y97754D01*
X321800Y98500D02*
Y111281D01*
X323600Y97754D02*
Y112027D01*
X322415Y113212D02*
Y129520D01*
X320615Y112466D02*
X321800Y111281D01*
X320615Y112466D02*
Y130266D01*
X322415Y113212D02*
X323600Y112027D01*
X290041Y76246D02*
X300159Y86364D01*
X290041Y75417D02*
Y76246D01*
Y75417D02*
X290627Y74831D01*
X311464Y88164D02*
X321800Y98500D01*
X296883Y66942D02*
Y71140D01*
X285811Y74831D02*
X287656D01*
X284072Y73093D02*
X285811Y74831D01*
X290627D02*
X293192D01*
X300159Y86364D02*
X312209D01*
X284072Y70633D02*
X284942Y69764D01*
X288242Y75417D02*
Y76991D01*
X282120Y66942D02*
X284942Y69764D01*
X287656Y74831D02*
X288242Y75417D01*
X299414Y88164D02*
X311464D01*
X288242Y76991D02*
X299414Y88164D01*
D223*
X231923Y66942D02*
D03*
X236844D02*
D03*
X227002Y71863D02*
D03*
X282120Y66942D02*
D03*
X296883D02*
D03*
X282120Y71863D02*
D03*
X349639Y66942D02*
D03*
X359482D02*
D03*
X344718Y71863D02*
D03*
D224*
X236844Y71863D02*
D03*
X296883D02*
D03*
X359482Y71863D02*
D03*
D225*
X340895Y238264D02*
D03*
X258300Y295200D02*
D03*
X343000Y215500D02*
D03*
X344396Y212958D02*
D03*
X293600Y232200D02*
D03*
X217500Y235800D02*
D03*
X333600Y192000D02*
D03*
X328600Y229983D02*
D03*
X335776Y226700D02*
D03*
X254301Y227799D02*
D03*
X335976Y221000D02*
D03*
X378000Y165950D02*
D03*
Y169950D02*
D03*
X377900Y195500D02*
D03*
Y191500D02*
D03*
X324500Y177800D02*
D03*
X216927Y189000D02*
D03*
X214009Y212331D02*
D03*
X216970Y225631D02*
D03*
X316844Y251357D02*
D03*
X344144Y203562D02*
D03*
X228900Y178700D02*
D03*
X212193Y169706D02*
D03*
X208870Y172283D02*
D03*
X271500Y225400D02*
D03*
X303800Y215100D02*
D03*
X306700Y215856D02*
D03*
X212000Y177500D02*
D03*
X207429Y237370D02*
D03*
X295600Y266620D02*
D03*
X246222Y248323D02*
D03*
X262700Y224300D02*
D03*
X222500Y293500D02*
D03*
X215400Y166500D02*
D03*
X341700Y202000D02*
D03*
X330600Y185500D02*
D03*
X336519Y192890D02*
D03*
X329500Y260400D02*
D03*
X309700Y188900D02*
D03*
X312300Y213600D02*
D03*
X311623Y250363D02*
D03*
X185700Y241700D02*
D03*
X256900Y290300D02*
D03*
X326300Y169700D02*
D03*
X327400Y192800D02*
D03*
X315800Y229200D02*
D03*
X299400Y168000D02*
D03*
X307000Y251000D02*
D03*
X315500Y172300D02*
D03*
X311300Y179200D02*
D03*
X246000Y299300D02*
D03*
X182000Y261300D02*
D03*
X133402Y372911D02*
D03*
X135900Y374900D02*
D03*
X242300Y188500D02*
D03*
X259472Y299928D02*
D03*
X163600Y344800D02*
D03*
X160600Y324600D02*
D03*
X143300Y294600D02*
D03*
X137600Y297200D02*
D03*
X170349Y325851D02*
D03*
X172400Y323800D02*
D03*
X165800Y325000D02*
D03*
X173999Y293267D02*
D03*
X140000Y325700D02*
D03*
X144700Y355900D02*
D03*
X141100Y355500D02*
D03*
X137900Y330000D02*
D03*
X160300Y293200D02*
D03*
X163700Y301300D02*
D03*
X163900Y261400D02*
D03*
X178800Y298200D02*
D03*
X187400Y369750D02*
D03*
Y372650D02*
D03*
X197749Y328749D02*
D03*
X199800Y330800D02*
D03*
X174660Y379524D02*
D03*
X126549Y341549D02*
D03*
X128600Y343600D02*
D03*
X172609Y376609D02*
D03*
X276900Y166661D02*
D03*
X344700Y163500D02*
D03*
X287700Y259000D02*
D03*
X274200Y286800D02*
D03*
X242600Y296100D02*
D03*
X233760Y291142D02*
D03*
X248000Y200900D02*
D03*
X250900D02*
D03*
X281000Y196300D02*
D03*
X266700Y326500D02*
D03*
X311600Y261600D02*
D03*
X204100Y295500D02*
D03*
X197681Y158097D02*
D03*
X240200Y220100D02*
D03*
X237200Y188100D02*
D03*
X230000Y192800D02*
D03*
X243800Y179100D02*
D03*
X256991Y314209D02*
D03*
X281000Y209200D02*
D03*
X278732Y237738D02*
D03*
X263600Y313100D02*
D03*
X277450Y188250D02*
D03*
X260774Y187271D02*
D03*
X287191Y325091D02*
D03*
X276500Y328500D02*
D03*
X289313Y334600D02*
D03*
X312300Y321500D02*
D03*
X193600Y260500D02*
D03*
X200295Y286713D02*
D03*
X328000Y297900D02*
D03*
X315800Y316700D02*
D03*
X325300Y338700D02*
D03*
X297018Y321829D02*
D03*
X291700Y294300D02*
D03*
X294600Y295200D02*
D03*
X330800Y314700D02*
D03*
Y317600D02*
D03*
X329000Y371400D02*
D03*
X327300Y373800D02*
D03*
X313500Y345200D02*
D03*
X317294Y294172D02*
D03*
X301818Y293713D02*
D03*
X278908Y291613D02*
D03*
X277588Y346675D02*
D03*
X262500Y200748D02*
D03*
X272244Y200394D02*
D03*
X183900Y170000D02*
D03*
X313900Y209500D02*
D03*
X293100Y205600D02*
D03*
X317400Y247700D02*
D03*
X269700Y220900D02*
D03*
X236583Y209659D02*
D03*
X240583Y209700D02*
D03*
X318307Y190133D02*
D03*
X202461Y201870D02*
D03*
X203761Y170221D02*
D03*
X262106Y221161D02*
D03*
X208563Y292421D02*
D03*
D243*
X183900Y169900D02*
Y170000D01*
M02*
