G04*
G04 #@! TF.GenerationSoftware,Altium Limited,Altium Designer,21.4.1 (30)*
G04*
G04 Layer_Physical_Order=1*
G04 Layer_Color=255*
%FSLAX25Y25*%
%MOIN*%
G70*
G04*
G04 #@! TF.SameCoordinates,52388346-E8D1-4751-8710-1ABE23D8764D*
G04*
G04*
G04 #@! TF.FilePolarity,Positive*
G04*
G01*
G75*
%ADD11C,0.00600*%
%ADD13C,0.00800*%
%ADD16C,0.02000*%
%ADD17C,0.01000*%
%ADD26R,0.01772X0.01772*%
%ADD27R,0.01772X0.01968*%
%ADD28R,0.01772X0.01772*%
%ADD29R,0.03568X0.03563*%
%ADD30R,0.02205X0.02047*%
%ADD31R,0.02047X0.02047*%
%ADD32R,0.02047X0.02205*%
%ADD33O,0.00984X0.04921*%
%ADD34O,0.04921X0.00984*%
%ADD35R,0.02953X0.03937*%
%ADD36R,0.03543X0.03740*%
%ADD37R,0.02047X0.02047*%
%ADD38R,0.02205X0.03347*%
G04:AMPARAMS|DCode=39|XSize=43.31mil|YSize=23.62mil|CornerRadius=2.01mil|HoleSize=0mil|Usage=FLASHONLY|Rotation=0.000|XOffset=0mil|YOffset=0mil|HoleType=Round|Shape=RoundedRectangle|*
%AMROUNDEDRECTD39*
21,1,0.04331,0.01961,0,0,0.0*
21,1,0.03929,0.02362,0,0,0.0*
1,1,0.00402,0.01965,-0.00980*
1,1,0.00402,-0.01965,-0.00980*
1,1,0.00402,-0.01965,0.00980*
1,1,0.00402,0.01965,0.00980*
%
%ADD39ROUNDEDRECTD39*%
%ADD40R,0.00984X0.02756*%
%ADD41R,0.05315X0.06496*%
%ADD42R,0.08268X0.11811*%
%ADD43R,0.03150X0.05118*%
%ADD44R,0.07874X0.07874*%
%ADD45R,0.06704X0.10261*%
%ADD46R,0.11024X0.11024*%
%ADD47O,0.03150X0.00984*%
%ADD48O,0.00984X0.03150*%
%ADD49R,0.04724X0.05512*%
%ADD50R,0.03740X0.03543*%
%ADD51R,0.02362X0.03150*%
%ADD52R,0.07874X0.20866*%
%ADD53R,0.02953X0.03347*%
%ADD54R,0.03740X0.03150*%
%ADD55R,0.02756X0.03543*%
%ADD56R,0.03150X0.02362*%
%ADD57R,0.01968X0.02953*%
%ADD58R,0.02362X0.02165*%
%ADD59P,0.03062X4X90.0*%
%ADD60R,0.01968X0.02165*%
%ADD61R,0.06496X0.02992*%
%ADD62R,0.02362X0.03740*%
%ADD63R,0.03543X0.03150*%
%ADD64R,0.00984X0.01417*%
%ADD65R,0.03543X0.02559*%
%ADD66O,0.07480X0.02362*%
%ADD67R,0.02756X0.00984*%
%ADD68R,0.06496X0.05315*%
G04:AMPARAMS|DCode=69|XSize=20mil|YSize=50mil|CornerRadius=5mil|HoleSize=0mil|Usage=FLASHONLY|Rotation=180.000|XOffset=0mil|YOffset=0mil|HoleType=Round|Shape=RoundedRectangle|*
%AMROUNDEDRECTD69*
21,1,0.02000,0.04000,0,0,180.0*
21,1,0.01000,0.05000,0,0,180.0*
1,1,0.01000,-0.00500,0.02000*
1,1,0.01000,0.00500,0.02000*
1,1,0.01000,0.00500,-0.02000*
1,1,0.01000,-0.00500,-0.02000*
%
%ADD69ROUNDEDRECTD69*%
G04:AMPARAMS|DCode=70|XSize=20mil|YSize=50mil|CornerRadius=5mil|HoleSize=0mil|Usage=FLASHONLY|Rotation=90.000|XOffset=0mil|YOffset=0mil|HoleType=Round|Shape=RoundedRectangle|*
%AMROUNDEDRECTD70*
21,1,0.02000,0.04000,0,0,90.0*
21,1,0.01000,0.05000,0,0,90.0*
1,1,0.01000,0.02000,0.00500*
1,1,0.01000,0.02000,-0.00500*
1,1,0.01000,-0.02000,-0.00500*
1,1,0.01000,-0.02000,0.00500*
%
%ADD70ROUNDEDRECTD70*%
%ADD71R,0.08583X0.06378*%
%ADD72R,0.03150X0.03543*%
%ADD73R,0.03591X0.03381*%
%ADD74R,0.08661X0.04331*%
%ADD75R,0.03567X0.03379*%
%ADD76R,0.09921X0.06693*%
%ADD77R,0.01850X0.02205*%
%ADD78R,0.01575X0.01890*%
%ADD79R,0.31102X0.07087*%
%ADD80R,0.11417X0.07087*%
%ADD81R,0.11811X0.09843*%
%ADD82R,0.11024X0.09843*%
G04:AMPARAMS|DCode=83|XSize=17.72mil|YSize=45.28mil|CornerRadius=1.95mil|HoleSize=0mil|Usage=FLASHONLY|Rotation=90.000|XOffset=0mil|YOffset=0mil|HoleType=Round|Shape=RoundedRectangle|*
%AMROUNDEDRECTD83*
21,1,0.01772,0.04138,0,0,90.0*
21,1,0.01382,0.04528,0,0,90.0*
1,1,0.00390,0.02069,0.00691*
1,1,0.00390,0.02069,-0.00691*
1,1,0.00390,-0.02069,-0.00691*
1,1,0.00390,-0.02069,0.00691*
%
%ADD83ROUNDEDRECTD83*%
%ADD84R,0.02165X0.01575*%
%ADD85R,0.05512X0.06102*%
G04:AMPARAMS|DCode=86|XSize=23.62mil|YSize=39.37mil|CornerRadius=2.01mil|HoleSize=0mil|Usage=FLASHONLY|Rotation=270.000|XOffset=0mil|YOffset=0mil|HoleType=Round|Shape=RoundedRectangle|*
%AMROUNDEDRECTD86*
21,1,0.02362,0.03535,0,0,270.0*
21,1,0.01961,0.03937,0,0,270.0*
1,1,0.00402,-0.01768,-0.00980*
1,1,0.00402,-0.01768,0.00980*
1,1,0.00402,0.01768,0.00980*
1,1,0.00402,0.01768,-0.00980*
%
%ADD86ROUNDEDRECTD86*%
G04:AMPARAMS|DCode=87|XSize=23.62mil|YSize=39.37mil|CornerRadius=2.01mil|HoleSize=0mil|Usage=FLASHONLY|Rotation=180.000|XOffset=0mil|YOffset=0mil|HoleType=Round|Shape=RoundedRectangle|*
%AMROUNDEDRECTD87*
21,1,0.02362,0.03535,0,0,180.0*
21,1,0.01961,0.03937,0,0,180.0*
1,1,0.00402,-0.00980,0.01768*
1,1,0.00402,0.00980,0.01768*
1,1,0.00402,0.00980,-0.01768*
1,1,0.00402,-0.00980,-0.01768*
%
%ADD87ROUNDEDRECTD87*%
G04:AMPARAMS|DCode=88|XSize=21.65mil|YSize=49.21mil|CornerRadius=1.95mil|HoleSize=0mil|Usage=FLASHONLY|Rotation=180.000|XOffset=0mil|YOffset=0mil|HoleType=Round|Shape=RoundedRectangle|*
%AMROUNDEDRECTD88*
21,1,0.02165,0.04532,0,0,180.0*
21,1,0.01776,0.04921,0,0,180.0*
1,1,0.00390,-0.00888,0.02266*
1,1,0.00390,0.00888,0.02266*
1,1,0.00390,0.00888,-0.02266*
1,1,0.00390,-0.00888,-0.02266*
%
%ADD88ROUNDEDRECTD88*%
%ADD89O,0.03740X0.00984*%
%ADD90R,0.10236X0.10236*%
%ADD91O,0.00984X0.03740*%
%ADD92R,0.05315X0.04134*%
%ADD93R,0.02441X0.02598*%
%ADD94R,0.02677X0.02520*%
%ADD95R,0.03071X0.02913*%
%ADD96R,0.02992X0.02835*%
G04:AMPARAMS|DCode=97|XSize=9.84mil|YSize=31.5mil|CornerRadius=0mil|HoleSize=0mil|Usage=FLASHONLY|Rotation=135.000|XOffset=0mil|YOffset=0mil|HoleType=Round|Shape=Round|*
%AMOVALD97*
21,1,0.02165,0.00984,0.00000,0.00000,225.0*
1,1,0.00984,0.00766,0.00766*
1,1,0.00984,-0.00766,-0.00766*
%
%ADD97OVALD97*%

%ADD98P,0.18930X4X90.0*%
G04:AMPARAMS|DCode=99|XSize=9.84mil|YSize=31.5mil|CornerRadius=0mil|HoleSize=0mil|Usage=FLASHONLY|Rotation=45.000|XOffset=0mil|YOffset=0mil|HoleType=Round|Shape=Round|*
%AMOVALD99*
21,1,0.02165,0.00984,0.00000,0.00000,135.0*
1,1,0.00984,0.00766,-0.00766*
1,1,0.00984,-0.00766,0.00766*
%
%ADD99OVALD99*%

%ADD100R,0.14567X0.03937*%
%ADD101O,0.09055X0.02362*%
%ADD102R,0.10261X0.06704*%
%ADD103R,0.02598X0.02441*%
%ADD104P,0.02895X4X180.0*%
%ADD105R,0.02520X0.02677*%
%ADD106P,0.02895X4X270.0*%
G04:AMPARAMS|DCode=107|XSize=24.41mil|YSize=25.98mil|CornerRadius=0mil|HoleSize=0mil|Usage=FLASHONLY|Rotation=135.000|XOffset=0mil|YOffset=0mil|HoleType=Round|Shape=Rectangle|*
%AMROTATEDRECTD107*
4,1,4,0.01782,0.00056,-0.00056,-0.01782,-0.01782,-0.00056,0.00056,0.01782,0.01782,0.00056,0.0*
%
%ADD107ROTATEDRECTD107*%

G04:AMPARAMS|DCode=108|XSize=24.41mil|YSize=25.98mil|CornerRadius=0mil|HoleSize=0mil|Usage=FLASHONLY|Rotation=45.000|XOffset=0mil|YOffset=0mil|HoleType=Round|Shape=Rectangle|*
%AMROTATEDRECTD108*
4,1,4,0.00056,-0.01782,-0.01782,0.00056,-0.00056,0.01782,0.01782,-0.00056,0.00056,-0.01782,0.0*
%
%ADD108ROTATEDRECTD108*%

%ADD109R,0.07874X0.07874*%
%ADD110R,0.01417X0.00984*%
%ADD111R,0.03379X0.03567*%
%ADD112R,0.11811X0.08268*%
%ADD113R,0.05118X0.03150*%
%ADD114R,0.01968X0.01772*%
%ADD115R,0.02631X0.02648*%
%ADD116R,0.02165X0.01968*%
%ADD117R,0.02165X0.02165*%
%ADD118R,0.02953X0.01968*%
%ADD119R,0.03347X0.02953*%
%ADD120R,0.03543X0.03150*%
%ADD121R,0.03381X0.03591*%
%ADD122P,0.02506X4X270.0*%
%ADD123P,0.02506X4X360.0*%
%ADD124P,0.03062X4X360.0*%
%ADD125R,0.06693X0.09921*%
%ADD126R,0.02205X0.01850*%
%ADD167R,0.02480X0.01378*%
%ADD168R,0.00984X0.02264*%
%ADD169R,0.01181X0.02264*%
%ADD220C,0.01500*%
%ADD221C,0.05000*%
%ADD222R,0.05000X0.05000*%
%ADD223C,0.03937*%
%ADD224R,0.03937X0.03937*%
%ADD225C,0.02200*%
%ADD226C,0.02402*%
%ADD227C,0.01968*%
%ADD228C,0.02362*%
G36*
X351952Y315982D02*
X351978Y315164D01*
X352192Y313543D01*
X352615Y311964D01*
X353241Y310453D01*
X354058Y309037D01*
X355054Y307740D01*
X356210Y306584D01*
X357507Y305588D01*
X358923Y304771D01*
X360434Y304145D01*
X362013Y303722D01*
X363634Y303509D01*
X364452Y303482D01*
X387515D01*
X389140Y303268D01*
X390722Y302844D01*
X392236Y302217D01*
X393655Y301397D01*
X394955Y300400D01*
X396114Y299241D01*
X397111Y297941D01*
X397931Y296522D01*
X398558Y295008D01*
X398982Y293426D01*
X399196Y291801D01*
Y290982D01*
Y134861D01*
Y133854D01*
X398874Y131867D01*
X398238Y129957D01*
X397305Y128174D01*
X396098Y126562D01*
X394649Y125165D01*
X392995Y124017D01*
X391179Y123149D01*
X390214Y122866D01*
X389914Y122765D01*
X389344Y122492D01*
X388825Y122132D01*
X388370Y121693D01*
X387991Y121187D01*
X387698Y120627D01*
X387498Y120028D01*
X387397Y119404D01*
X387385Y119088D01*
Y92207D01*
X387397Y91891D01*
X387498Y91267D01*
X387698Y90667D01*
X387991Y90107D01*
X388370Y89601D01*
X388825Y89163D01*
X389344Y88802D01*
X389914Y88530D01*
X390214Y88429D01*
X390214Y88429D01*
X391179Y88145D01*
X392995Y87277D01*
X394649Y86129D01*
X396098Y84732D01*
X397305Y83121D01*
X398238Y81337D01*
X398874Y79427D01*
X399196Y77440D01*
Y74611D01*
X398982Y72987D01*
X398558Y71404D01*
X397931Y69890D01*
X397111Y68471D01*
X396114Y67171D01*
X394955Y66013D01*
X393655Y65015D01*
X392236Y64196D01*
X390722Y63569D01*
X389140Y63144D01*
X387515Y62931D01*
X380996D01*
X380669Y62917D01*
X380026Y62809D01*
X379409Y62597D01*
X378835Y62285D01*
X378321Y61883D01*
X377881Y61401D01*
X377526Y60854D01*
X377321Y60381D01*
X377266Y60255D01*
X377174Y59941D01*
X377175Y59941D01*
X376924Y58932D01*
X376097Y57025D01*
X374966Y55280D01*
X373563Y53746D01*
X371925Y52464D01*
X370098Y51471D01*
X368132Y50794D01*
X366082Y50450D01*
X97664D01*
X95613Y50794D01*
X93647Y51471D01*
X91821Y52464D01*
X90183Y53746D01*
X88779Y55280D01*
X87648Y57025D01*
X86821Y58932D01*
X86571Y59941D01*
X86479Y60255D01*
X86220Y60854D01*
X85865Y61401D01*
X85424Y61883D01*
X84910Y62285D01*
X84337Y62597D01*
X83720Y62809D01*
X83076Y62917D01*
X82750Y62931D01*
X76231D01*
X74606Y63144D01*
X73023Y63569D01*
X71509Y64196D01*
X70091Y65015D01*
X68791Y66013D01*
X67632Y67171D01*
X66634Y68471D01*
X65815Y69890D01*
X65188Y71404D01*
X64764Y72987D01*
X64550Y74611D01*
Y77440D01*
X64872Y79427D01*
X65508Y81337D01*
X66441Y83121D01*
X67648Y84732D01*
X69096Y86129D01*
X70750Y87277D01*
X72566Y88145D01*
X73532Y88429D01*
X73532Y88429D01*
X73832Y88530D01*
X74402Y88802D01*
X74921Y89163D01*
X75376Y89601D01*
X75755Y90107D01*
X76048Y90667D01*
X76247Y91267D01*
X76348Y91891D01*
X76361Y92207D01*
Y119088D01*
X76348Y119404D01*
X76247Y120028D01*
X76048Y120627D01*
X75755Y121187D01*
X75376Y121693D01*
X74921Y122132D01*
X74402Y122492D01*
X73832Y122765D01*
X73532Y122866D01*
X72566Y123149D01*
X70750Y124017D01*
X69096Y125165D01*
X67648Y126562D01*
X66441Y128174D01*
X65508Y129957D01*
X64872Y131867D01*
X64550Y133854D01*
Y134861D01*
Y290982D01*
Y291801D01*
X64764Y293426D01*
X65188Y295008D01*
X65815Y296522D01*
X66634Y297941D01*
X67632Y299241D01*
X68791Y300400D01*
X70091Y301397D01*
X71509Y302217D01*
X73023Y302844D01*
X74606Y303268D01*
X76231Y303482D01*
X99294D01*
X100112Y303509D01*
X101733Y303722D01*
X103312Y304145D01*
X104823Y304771D01*
X106239Y305588D01*
X107536Y306584D01*
X108692Y307740D01*
X109687Y309037D01*
X110505Y310453D01*
X111131Y311964D01*
X111554Y313543D01*
X111767Y315164D01*
X111794Y315982D01*
Y423403D01*
X351952D01*
Y315982D01*
D02*
G37*
%LPC*%
G36*
X340157Y412915D02*
X339020Y412803D01*
X337927Y412471D01*
X336919Y411932D01*
X336036Y411208D01*
X335312Y410324D01*
X334773Y409317D01*
X334441Y408224D01*
X334329Y407087D01*
X334441Y405950D01*
X334773Y404856D01*
X335312Y403849D01*
X336036Y402965D01*
X336919Y402241D01*
X337927Y401702D01*
X339020Y401370D01*
X340157Y401259D01*
X341294Y401370D01*
X342388Y401702D01*
X343395Y402241D01*
X344279Y402965D01*
X345003Y403849D01*
X345542Y404856D01*
X345873Y405950D01*
X345986Y407087D01*
X345873Y408224D01*
X345542Y409317D01*
X345003Y410324D01*
X344279Y411208D01*
X343395Y411932D01*
X342388Y412471D01*
X341294Y412803D01*
X340157Y412915D01*
D02*
G37*
G36*
X290945D02*
X289808Y412803D01*
X288715Y412471D01*
X287707Y411932D01*
X286824Y411208D01*
X286099Y410324D01*
X285560Y409317D01*
X285229Y408224D01*
X285117Y407087D01*
X285229Y405950D01*
X285560Y404856D01*
X286099Y403849D01*
X286824Y402965D01*
X287707Y402241D01*
X288715Y401702D01*
X289808Y401370D01*
X290945Y401259D01*
X292082Y401370D01*
X293175Y401702D01*
X294183Y402241D01*
X295066Y402965D01*
X295791Y403849D01*
X296329Y404856D01*
X296661Y405950D01*
X296773Y407087D01*
X296661Y408224D01*
X296329Y409317D01*
X295791Y410324D01*
X295066Y411208D01*
X294183Y411932D01*
X293175Y412471D01*
X292082Y412803D01*
X290945Y412915D01*
D02*
G37*
G36*
X172835D02*
X171698Y412803D01*
X170604Y412471D01*
X169597Y411932D01*
X168713Y411208D01*
X167989Y410324D01*
X167450Y409317D01*
X167119Y408224D01*
X167007Y407087D01*
X167119Y405950D01*
X167450Y404856D01*
X167989Y403849D01*
X168713Y402965D01*
X169597Y402241D01*
X170604Y401702D01*
X171698Y401370D01*
X172835Y401259D01*
X173972Y401370D01*
X175065Y401702D01*
X176073Y402241D01*
X176956Y402965D01*
X177680Y403849D01*
X178219Y404856D01*
X178551Y405950D01*
X178663Y407087D01*
X178551Y408224D01*
X178219Y409317D01*
X177680Y410324D01*
X176956Y411208D01*
X176073Y411932D01*
X175065Y412471D01*
X173972Y412803D01*
X172835Y412915D01*
D02*
G37*
G36*
X123622D02*
X122485Y412803D01*
X121392Y412471D01*
X120384Y411932D01*
X119501Y411208D01*
X118776Y410324D01*
X118238Y409317D01*
X117906Y408224D01*
X117794Y407087D01*
X117906Y405950D01*
X118238Y404856D01*
X118776Y403849D01*
X119501Y402965D01*
X120384Y402241D01*
X121392Y401702D01*
X122485Y401370D01*
X123622Y401259D01*
X124759Y401370D01*
X125852Y401702D01*
X126860Y402241D01*
X127743Y402965D01*
X128468Y403849D01*
X129006Y404856D01*
X129338Y405950D01*
X129450Y407087D01*
X129338Y408224D01*
X129006Y409317D01*
X128468Y410324D01*
X127743Y411208D01*
X126860Y411932D01*
X125852Y412471D01*
X124759Y412803D01*
X123622Y412915D01*
D02*
G37*
G36*
X304821Y406493D02*
Y393658D01*
X277262D01*
Y406493D01*
X186711D01*
Y393658D01*
X159152D01*
Y406493D01*
X137498D01*
X137498Y406493D01*
X137173Y405549D01*
X136301Y403754D01*
X135154Y402120D01*
X133763Y400690D01*
X132161Y399500D01*
X130391Y398579D01*
X128496Y397952D01*
X126526Y397635D01*
X125529Y397595D01*
X119782D01*
Y280036D01*
X344191D01*
Y397595D01*
X338444D01*
X337447Y397635D01*
X335477Y397952D01*
X333582Y398579D01*
X331812Y399500D01*
X330210Y400690D01*
X328819Y402120D01*
X327672Y403754D01*
X326800Y405549D01*
X326475Y406493D01*
X304821Y406493D01*
D02*
G37*
G36*
X387402Y295198D02*
X386265Y295086D01*
X385171Y294754D01*
X384164Y294216D01*
X383280Y293491D01*
X382556Y292608D01*
X382017Y291600D01*
X381685Y290507D01*
X381574Y289370D01*
X381685Y288233D01*
X382017Y287140D01*
X382556Y286132D01*
X383280Y285249D01*
X384164Y284524D01*
X385171Y283986D01*
X386265Y283654D01*
X387402Y283542D01*
X388539Y283654D01*
X389632Y283986D01*
X390639Y284524D01*
X391523Y285249D01*
X392247Y286132D01*
X392786Y287140D01*
X393118Y288233D01*
X393230Y289370D01*
X393118Y290507D01*
X392786Y291600D01*
X392247Y292608D01*
X391523Y293491D01*
X390639Y294216D01*
X389632Y294754D01*
X388539Y295086D01*
X387402Y295198D01*
D02*
G37*
G36*
X76378D02*
X75241Y295086D01*
X74148Y294754D01*
X73140Y294216D01*
X72257Y293491D01*
X71532Y292608D01*
X70994Y291600D01*
X70662Y290507D01*
X70550Y289370D01*
X70662Y288233D01*
X70994Y287140D01*
X71532Y286132D01*
X72257Y285249D01*
X73140Y284524D01*
X74148Y283986D01*
X75241Y283654D01*
X76378Y283542D01*
X77515Y283654D01*
X78608Y283986D01*
X79616Y284524D01*
X80499Y285249D01*
X81224Y286132D01*
X81762Y287140D01*
X82094Y288233D01*
X82206Y289370D01*
X82094Y290507D01*
X81762Y291600D01*
X81224Y292608D01*
X80499Y293491D01*
X79616Y294216D01*
X78608Y294754D01*
X77515Y295086D01*
X76378Y295198D01*
D02*
G37*
G36*
X350000Y271970D02*
X348863Y271858D01*
X347770Y271526D01*
X346762Y270988D01*
X345879Y270263D01*
X345154Y269380D01*
X344616Y268372D01*
X344284Y267279D01*
X344172Y266142D01*
X344284Y265005D01*
X344616Y263912D01*
X345154Y262904D01*
X345879Y262021D01*
X346762Y261296D01*
X347770Y260757D01*
X348863Y260426D01*
X350000Y260314D01*
X351137Y260426D01*
X352230Y260757D01*
X353238Y261296D01*
X354121Y262021D01*
X354846Y262904D01*
X355384Y263912D01*
X355716Y265005D01*
X355828Y266142D01*
X355716Y267279D01*
X355384Y268372D01*
X354846Y269380D01*
X354121Y270263D01*
X353238Y270988D01*
X352230Y271526D01*
X351137Y271858D01*
X350000Y271970D01*
D02*
G37*
G36*
X231890D02*
X230753Y271858D01*
X229660Y271526D01*
X228652Y270988D01*
X227769Y270263D01*
X227044Y269380D01*
X226505Y268372D01*
X226174Y267279D01*
X226062Y266142D01*
X226174Y265005D01*
X226505Y263912D01*
X227044Y262904D01*
X227769Y262021D01*
X228652Y261296D01*
X229660Y260757D01*
X230753Y260426D01*
X231890Y260314D01*
X233027Y260426D01*
X234120Y260757D01*
X235128Y261296D01*
X236011Y262021D01*
X236736Y262904D01*
X237274Y263912D01*
X237606Y265005D01*
X237718Y266142D01*
X237606Y267279D01*
X237274Y268372D01*
X236736Y269380D01*
X236011Y270263D01*
X235128Y270988D01*
X234120Y271526D01*
X233027Y271858D01*
X231890Y271970D01*
D02*
G37*
G36*
X113780D02*
X112643Y271858D01*
X111549Y271526D01*
X110542Y270988D01*
X109659Y270263D01*
X108934Y269380D01*
X108395Y268372D01*
X108063Y267279D01*
X107951Y266142D01*
X108063Y265005D01*
X108395Y263912D01*
X108934Y262904D01*
X109659Y262021D01*
X110542Y261296D01*
X111549Y260757D01*
X112643Y260426D01*
X113780Y260314D01*
X114917Y260426D01*
X116010Y260757D01*
X117017Y261296D01*
X117901Y262021D01*
X118625Y262904D01*
X119164Y263912D01*
X119496Y265005D01*
X119608Y266142D01*
X119496Y267279D01*
X119164Y268372D01*
X118625Y269380D01*
X117901Y270263D01*
X117017Y270988D01*
X116010Y271526D01*
X114917Y271858D01*
X113780Y271970D01*
D02*
G37*
G36*
X391337Y272074D02*
X363778D01*
Y252389D01*
X336219D01*
Y272074D01*
X245668D01*
Y252389D01*
X218109D01*
Y272074D01*
X127558D01*
Y252389D01*
X99998D01*
Y272074D01*
X72439D01*
Y147888D01*
X74900D01*
X75718Y147861D01*
X77339Y147648D01*
X78918Y147224D01*
X80429Y146599D01*
X81845Y145781D01*
X83142Y144786D01*
X84298Y143630D01*
X85293Y142332D01*
X86111Y140916D01*
X86737Y139406D01*
X87160Y137826D01*
X87373Y136205D01*
X87400Y135388D01*
Y112612D01*
X376376D01*
Y135388D01*
X376403Y136205D01*
X376617Y137826D01*
X377040Y139406D01*
X377665Y140916D01*
X378483Y142332D01*
X379478Y143630D01*
X380635Y144786D01*
X381932Y145781D01*
X382354Y146025D01*
X382935D01*
Y146361D01*
X383348Y146599D01*
X384858Y147224D01*
X386438Y147648D01*
X388059Y147861D01*
X388876Y147888D01*
X391337D01*
Y272074D01*
D02*
G37*
G36*
X387402Y139686D02*
X386265Y139574D01*
X385171Y139243D01*
X384164Y138704D01*
X383280Y137979D01*
X382556Y137096D01*
X382017Y136089D01*
X381685Y134995D01*
X381574Y133858D01*
X381685Y132721D01*
X382017Y131628D01*
X382556Y130620D01*
X383280Y129737D01*
X384164Y129012D01*
X385171Y128474D01*
X386265Y128142D01*
X387402Y128030D01*
X388539Y128142D01*
X389632Y128474D01*
X390639Y129012D01*
X391523Y129737D01*
X392247Y130620D01*
X392786Y131628D01*
X393118Y132721D01*
X393230Y133858D01*
X393118Y134995D01*
X392786Y136089D01*
X392247Y137096D01*
X391523Y137979D01*
X390639Y138704D01*
X389632Y139243D01*
X388539Y139574D01*
X387402Y139686D01*
D02*
G37*
G36*
X76378D02*
X75241Y139574D01*
X74148Y139243D01*
X73140Y138704D01*
X72257Y137979D01*
X71532Y137096D01*
X70994Y136089D01*
X70662Y134995D01*
X70550Y133858D01*
X70662Y132721D01*
X70994Y131628D01*
X71532Y130620D01*
X72257Y129737D01*
X73140Y129012D01*
X74148Y128474D01*
X75241Y128142D01*
X76378Y128030D01*
X77515Y128142D01*
X78608Y128474D01*
X79616Y129012D01*
X80499Y129737D01*
X81224Y130620D01*
X81762Y131628D01*
X82094Y132721D01*
X82206Y133858D01*
X82094Y134995D01*
X81762Y136089D01*
X81224Y137096D01*
X80499Y137979D01*
X79616Y138704D01*
X78608Y139243D01*
X77515Y139574D01*
X76378Y139686D01*
D02*
G37*
G36*
X349606Y96379D02*
X348469Y96267D01*
X347376Y95936D01*
X346369Y95397D01*
X345485Y94672D01*
X344761Y93789D01*
X344222Y92782D01*
X343890Y91688D01*
X343778Y90551D01*
X343890Y89414D01*
X344222Y88321D01*
X344761Y87313D01*
X345485Y86430D01*
X346369Y85705D01*
X347376Y85167D01*
X348469Y84835D01*
X349606Y84723D01*
X350743Y84835D01*
X351837Y85167D01*
X352844Y85705D01*
X353728Y86430D01*
X354452Y87313D01*
X354991Y88321D01*
X355323Y89414D01*
X355434Y90551D01*
X355323Y91688D01*
X354991Y92782D01*
X354452Y93789D01*
X353728Y94672D01*
X352844Y95397D01*
X351837Y95936D01*
X350743Y96267D01*
X349606Y96379D01*
D02*
G37*
G36*
X231496D02*
X230359Y96267D01*
X229266Y95936D01*
X228258Y95397D01*
X227375Y94672D01*
X226650Y93789D01*
X226112Y92782D01*
X225780Y91688D01*
X225668Y90551D01*
X225780Y89414D01*
X226112Y88321D01*
X226650Y87313D01*
X227375Y86430D01*
X228258Y85705D01*
X229266Y85167D01*
X230359Y84835D01*
X231496Y84723D01*
X232633Y84835D01*
X233726Y85167D01*
X234734Y85705D01*
X235617Y86430D01*
X236342Y87313D01*
X236880Y88321D01*
X237212Y89414D01*
X237324Y90551D01*
X237212Y91688D01*
X236880Y92782D01*
X236342Y93789D01*
X235617Y94672D01*
X234734Y95397D01*
X233726Y95936D01*
X232633Y96267D01*
X231496Y96379D01*
D02*
G37*
G36*
X113386D02*
X112249Y96267D01*
X111155Y95936D01*
X110148Y95397D01*
X109265Y94672D01*
X108540Y93789D01*
X108001Y92782D01*
X107670Y91688D01*
X107558Y90551D01*
X107670Y89414D01*
X108001Y88321D01*
X108540Y87313D01*
X109265Y86430D01*
X110148Y85705D01*
X111155Y85167D01*
X112249Y84835D01*
X113386Y84723D01*
X114523Y84835D01*
X115616Y85167D01*
X116624Y85705D01*
X117507Y86430D01*
X118232Y87313D01*
X118770Y88321D01*
X119102Y89414D01*
X119214Y90551D01*
X119102Y91688D01*
X118770Y92782D01*
X118232Y93789D01*
X117507Y94672D01*
X116624Y95397D01*
X115616Y95936D01*
X114523Y96267D01*
X113386Y96379D01*
D02*
G37*
G36*
X387402Y82600D02*
X386265Y82488D01*
X385171Y82156D01*
X384164Y81617D01*
X383280Y80893D01*
X382556Y80010D01*
X382017Y79002D01*
X381685Y77909D01*
X381574Y76772D01*
X381685Y75635D01*
X382017Y74541D01*
X382556Y73534D01*
X383280Y72650D01*
X384164Y71926D01*
X385171Y71387D01*
X386265Y71056D01*
X387402Y70943D01*
X388539Y71056D01*
X389632Y71387D01*
X390639Y71926D01*
X391523Y72650D01*
X392247Y73534D01*
X392786Y74541D01*
X393118Y75635D01*
X393230Y76772D01*
X393118Y77909D01*
X392786Y79002D01*
X392247Y80010D01*
X391523Y80893D01*
X390639Y81617D01*
X389632Y82156D01*
X388539Y82488D01*
X387402Y82600D01*
D02*
G37*
G36*
X76378D02*
X75241Y82488D01*
X74148Y82156D01*
X73140Y81617D01*
X72257Y80893D01*
X71532Y80010D01*
X70994Y79002D01*
X70662Y77909D01*
X70550Y76772D01*
X70662Y75635D01*
X70994Y74541D01*
X71532Y73534D01*
X72257Y72650D01*
X73140Y71926D01*
X74148Y71387D01*
X75241Y71056D01*
X76378Y70943D01*
X77515Y71056D01*
X78608Y71387D01*
X79616Y71926D01*
X80499Y72650D01*
X81224Y73534D01*
X81762Y74541D01*
X82094Y75635D01*
X82206Y76772D01*
X82094Y77909D01*
X81762Y79002D01*
X81224Y80010D01*
X80499Y80893D01*
X79616Y81617D01*
X78608Y82156D01*
X77515Y82488D01*
X76378Y82600D01*
D02*
G37*
G36*
X371631Y80726D02*
X92103D01*
Y58325D01*
X371631D01*
Y80726D01*
D02*
G37*
%LPD*%
G36*
X183470Y198230D02*
Y194916D01*
X183270D01*
Y190964D01*
X189400D01*
Y190564D01*
X189800D01*
Y186212D01*
X193758D01*
X193950Y185750D01*
X192611Y184411D01*
X192021Y184655D01*
X191265D01*
X190567Y184366D01*
X190033Y183832D01*
X189743Y183133D01*
Y182575D01*
X189243Y182476D01*
X189175Y182641D01*
X188641Y183175D01*
X187942Y183464D01*
X187187D01*
X186488Y183175D01*
X185954Y182641D01*
X185722Y182082D01*
X185307Y182254D01*
X184551D01*
X183853Y181965D01*
X183318Y181430D01*
X183223Y181200D01*
X168000D01*
X163300Y185900D01*
Y197900D01*
X164735Y199335D01*
X170601D01*
Y199900D01*
X181800D01*
X183470Y198230D01*
D02*
G37*
G36*
X114000Y161300D02*
X92030D01*
Y163936D01*
X85900D01*
X79770D01*
Y161300D01*
X76400D01*
Y172400D01*
X82096D01*
X82292Y172107D01*
X83523Y170876D01*
X83854Y170655D01*
X84244Y170577D01*
X88524D01*
X88914Y170655D01*
X89245Y170876D01*
X90256Y171887D01*
X90846Y171770D01*
X90989Y171424D01*
X91524Y170889D01*
X92222Y170600D01*
X92978D01*
X93676Y170889D01*
X94211Y171424D01*
X94500Y172122D01*
Y172400D01*
X95463D01*
Y168474D01*
X100400D01*
X105337D01*
Y172400D01*
X114000D01*
Y161300D01*
D02*
G37*
G36*
X114300Y136300D02*
X93741D01*
X93700Y136400D01*
Y142300D01*
X84750Y151250D01*
X84942Y151711D01*
X85500D01*
Y155664D01*
X79770D01*
Y153000D01*
X76500D01*
Y159500D01*
X79770D01*
Y156464D01*
X85900D01*
X92030D01*
Y159500D01*
X114300D01*
X114300Y136300D01*
D02*
G37*
G36*
X114000Y118200D02*
X93800D01*
Y133900D01*
X114000D01*
Y118200D01*
D02*
G37*
%LPC*%
G36*
X181628Y197789D02*
X175122D01*
Y192268D01*
X181628D01*
Y197789D01*
D02*
G37*
G36*
X174322D02*
X167816D01*
Y192268D01*
X174322D01*
Y197789D01*
D02*
G37*
G36*
X189000Y190164D02*
X183270D01*
Y186212D01*
X189000D01*
Y190164D01*
D02*
G37*
G36*
X181628Y191468D02*
X175122D01*
Y185947D01*
X181628D01*
Y191468D01*
D02*
G37*
G36*
X174322D02*
X167816D01*
Y185947D01*
X174322D01*
Y191468D01*
D02*
G37*
G36*
X92030Y168688D02*
X86300D01*
Y164736D01*
X92030D01*
Y168688D01*
D02*
G37*
G36*
X85500D02*
X79770D01*
Y164736D01*
X85500D01*
Y168688D01*
D02*
G37*
G36*
X105337Y167674D02*
X100800D01*
Y163137D01*
X105337D01*
Y167674D01*
D02*
G37*
G36*
X100000D02*
X95463D01*
Y163137D01*
X100000D01*
Y167674D01*
D02*
G37*
G36*
X105337Y157263D02*
X100800D01*
Y152726D01*
X105337D01*
Y157263D01*
D02*
G37*
G36*
X100000D02*
X95463D01*
Y152726D01*
X100000D01*
Y157263D01*
D02*
G37*
G36*
X92030Y155664D02*
X86300D01*
Y151711D01*
X92030D01*
Y155664D01*
D02*
G37*
G36*
X105337Y151926D02*
X100800D01*
Y147389D01*
X105337D01*
Y151926D01*
D02*
G37*
G36*
X100000D02*
X95463D01*
Y147389D01*
X100000D01*
Y151926D01*
D02*
G37*
G36*
X105783Y145862D02*
X100892D01*
Y142073D01*
X105783D01*
Y145862D01*
D02*
G37*
G36*
X100092D02*
X95201D01*
Y142073D01*
X100092D01*
Y145862D01*
D02*
G37*
G36*
X105783Y141273D02*
X100892D01*
Y137484D01*
X105783D01*
Y141273D01*
D02*
G37*
G36*
X100092D02*
X95201D01*
Y137484D01*
X100092D01*
Y141273D01*
D02*
G37*
G36*
X105783Y129248D02*
X100892D01*
Y125459D01*
X105783D01*
Y129248D01*
D02*
G37*
G36*
X100092D02*
X95201D01*
Y125459D01*
X100092D01*
Y129248D01*
D02*
G37*
G36*
X105783Y124659D02*
X100892D01*
Y120870D01*
X105783D01*
Y124659D01*
D02*
G37*
G36*
X100092D02*
X95201D01*
Y120870D01*
X100092D01*
Y124659D01*
D02*
G37*
%LPD*%
D11*
X371335Y252600D02*
X371876Y252059D01*
X371233Y252702D02*
X371335Y252600D01*
X371876Y252059D02*
X376000D01*
X384638Y257940D02*
X384778Y257800D01*
X384141Y257940D02*
X384638D01*
X379669Y260498D02*
X382282Y257886D01*
X379669Y260498D02*
Y262423D01*
X379318Y262775D02*
X379669Y262423D01*
X372149Y262775D02*
X379318D01*
X382282Y257886D02*
X384087D01*
X384141Y257940D01*
X371616Y263308D02*
X372149Y262775D01*
X371616Y263308D02*
Y264268D01*
X383800Y250600D02*
Y252525D01*
X383900Y252625D01*
X383700Y250500D02*
X383800Y250600D01*
X339954Y241367D02*
Y243621D01*
X339675Y243900D02*
X339954Y243621D01*
Y241367D02*
X340233Y241088D01*
X340895Y238264D02*
X341328D01*
X342013Y238950D02*
X342410D01*
X341328Y238264D02*
X342013Y238950D01*
X342520Y245800D02*
X342600D01*
X339575Y247100D02*
X341220D01*
X342520Y245800D01*
X350891Y208476D02*
X351267Y208100D01*
X351700D02*
X351713Y208113D01*
X354000D01*
X348898Y208476D02*
X350891D01*
X354000Y208113D02*
X356479Y210591D01*
X351267Y208100D02*
X351700D01*
X348175Y209200D02*
X348898Y208476D01*
X338995Y236905D02*
Y238580D01*
Y236905D02*
X340510Y235390D01*
X337200Y240375D02*
X338995Y238580D01*
X348988Y223787D02*
X351087D01*
X352128Y224828D01*
X345160Y223879D02*
X348896D01*
X348988Y223787D01*
X352128Y224828D02*
X352561D01*
X345160Y225847D02*
X349631D01*
X349791Y225687D01*
X348804Y227816D02*
X349089Y228100D01*
X351400D01*
X345160Y227816D02*
X348804D01*
X342699Y242614D02*
Y242973D01*
X344455Y246961D02*
X346521D01*
X342415Y249000D02*
X344455Y246961D01*
X345221Y248882D02*
X345506Y249167D01*
X349740Y242078D02*
X350038Y241779D01*
X348998Y242078D02*
X349740D01*
X348281Y242795D02*
X348998Y242078D01*
X348281Y242795D02*
Y245500D01*
X349386Y247082D02*
X350396D01*
X349068Y247400D02*
X349386Y247082D01*
X346960Y247400D02*
X349068D01*
X346400Y249300D02*
X354955D01*
X335200Y237300D02*
X335237Y237263D01*
X342729Y208929D02*
X344754D01*
X345025Y209200D01*
X364604Y209996D02*
X366244Y208356D01*
X364279Y210561D02*
Y217444D01*
Y210561D02*
X364604Y210236D01*
Y209996D02*
Y210236D01*
X370258Y212560D02*
Y216038D01*
Y208356D02*
Y212560D01*
X366244Y208356D02*
X370258D01*
X374681D01*
X376025Y209700D01*
X370258Y216038D02*
X371194Y216973D01*
Y217407D01*
X380100Y250000D02*
X380371Y250271D01*
Y252057D02*
X380700Y252386D01*
X380371Y250271D02*
Y252057D01*
X380079Y251765D02*
X380700Y252386D01*
X362510Y247134D02*
X367252Y251876D01*
X367462D01*
X368175Y252589D02*
Y252799D01*
X367462Y253324D02*
X367987Y252799D01*
X367462Y253324D02*
Y253511D01*
Y251876D02*
X368175Y252589D01*
X362384Y245040D02*
X362510Y245166D01*
X367987Y252799D02*
X368175D01*
X366391Y254582D02*
X367462Y253511D01*
X362510Y245166D02*
Y247134D01*
X366391Y254582D02*
Y260757D01*
X366860Y261225D01*
X371257Y252600D02*
X371335D01*
X369553Y257276D02*
Y257669D01*
Y257276D02*
X371233Y255596D01*
X366985Y249500D02*
X368825D01*
X371233Y252702D02*
Y255596D01*
X367925Y261225D02*
X369553Y262854D01*
X366860Y261225D02*
X367925D01*
X383900Y252625D02*
X386263D01*
X387200Y251824D02*
Y251922D01*
X386380Y252508D02*
X386614D01*
X386263Y252625D02*
X386380Y252508D01*
X386614D02*
X387200Y251922D01*
X380800Y245965D02*
Y246700D01*
X380700Y252386D02*
Y252465D01*
X381424Y255775D02*
X383900D01*
X381424D02*
Y256338D01*
X380700Y255614D02*
X381424Y256338D01*
X380700Y255535D02*
Y255614D01*
X384778Y257800D02*
X385766Y256812D01*
Y256309D02*
Y256812D01*
Y256309D02*
X387200Y254875D01*
X387800Y259500D02*
Y262259D01*
X376294Y251765D02*
X380079D01*
X376000Y252059D02*
X376294Y251765D01*
X380378Y255213D02*
X380700Y255535D01*
X378309Y255213D02*
X380378D01*
X376247Y257276D02*
Y257669D01*
Y257276D02*
X378309Y255213D01*
X386184Y240052D02*
Y240054D01*
X387300Y234613D02*
Y238936D01*
X384702Y241536D02*
X386184Y240054D01*
Y240052D02*
X387300Y238936D01*
X384700Y241536D02*
X384702D01*
X385089Y232402D02*
X387300Y234613D01*
X387359Y262700D02*
X387800Y262259D01*
X387200Y254776D02*
Y254875D01*
X380766Y242231D02*
Y245965D01*
X380735Y242200D02*
X380766Y242231D01*
X360416Y240716D02*
Y245040D01*
X364353Y241012D02*
Y245257D01*
X364353Y245040D02*
Y246905D01*
X364739Y247291D01*
X364776D01*
X366985Y249500D01*
X369553Y262854D02*
Y266331D01*
X371616Y264268D01*
X372214Y249261D02*
X373581D01*
X375902Y246941D01*
X371975Y249500D02*
X372214Y249261D01*
X371251Y250224D02*
X371975Y249500D01*
X364900Y237100D02*
X369825D01*
X372438Y239713D01*
Y239776D01*
X374430Y241768D01*
Y245469D01*
X375902Y246941D01*
X380800Y246700D02*
X384264D01*
X384700Y246264D01*
X383215Y232402D02*
X385089D01*
X382566Y231753D02*
X383215Y232402D01*
X377640Y231753D02*
X382566D01*
X377640Y231753D02*
X377640Y231753D01*
X382400Y234425D02*
X384425D01*
X384500Y234500D01*
X380417Y234425D02*
X382400D01*
Y237575D02*
X384575D01*
X382316Y237658D02*
X382400Y237575D01*
X377640Y237658D02*
X382316D01*
X377640Y233721D02*
X379713D01*
X380417Y234425D01*
X375672Y235690D02*
X377640D01*
X374379Y236982D02*
Y240162D01*
X375694Y241476D01*
X376941D01*
X377665Y242200D01*
X374379Y236982D02*
X375672Y235690D01*
X257145Y296788D02*
X258300Y295633D01*
Y295200D02*
Y295633D01*
X257145Y296788D02*
Y296855D01*
X328900Y227362D02*
X333338Y231800D01*
X328900Y226900D02*
Y227362D01*
X340913Y133787D02*
X347863Y126837D01*
Y126450D02*
Y126837D01*
Y126450D02*
X355113Y119200D01*
X358287D01*
X331200Y133787D02*
X340913D01*
X354800Y126689D02*
Y130368D01*
X356389Y125100D02*
X356468D01*
X354800Y126689D02*
X356389Y125100D01*
X384787Y270170D02*
X387359Y267598D01*
X379692Y270170D02*
X384787D01*
X376247Y266724D02*
X379692Y270170D01*
X387359Y262700D02*
X387459Y262800D01*
Y267400D01*
X387359Y267500D02*
X387459Y267400D01*
X387359Y267500D02*
Y267598D01*
X376247Y266331D02*
Y266724D01*
X366170Y245106D02*
X366321Y245257D01*
X336425Y247100D02*
X336475Y247050D01*
Y244050D02*
Y247050D01*
Y244050D02*
X336575Y243950D01*
X343087Y239627D02*
X344943D01*
X342410Y238950D02*
X343087Y239627D01*
X342200Y249000D02*
X342415D01*
X355275Y143250D02*
X355325Y143200D01*
X352600Y143300D02*
X352650Y143250D01*
X355275D01*
X384675Y222525D02*
X386300Y220900D01*
X383100Y222525D02*
X384675D01*
X385575Y220175D02*
X386300Y220900D01*
X385575Y218000D02*
Y220175D01*
X381106Y216681D02*
X382425Y218000D01*
X374606Y216681D02*
X381106D01*
X371787Y219500D02*
X374606Y216681D01*
X370600Y219500D02*
X371787D01*
X368290Y217190D02*
X370600Y219500D01*
X368290Y212560D02*
Y217190D01*
X373822Y219942D02*
X377857D01*
X372264Y221500D02*
X373822Y219942D01*
X371100Y221500D02*
X372264D01*
X371100D02*
X373228Y223628D01*
X366831Y217975D02*
Y218408D01*
X366321Y217465D02*
X366831Y217975D01*
X366321Y212343D02*
Y217465D01*
X364018Y217705D02*
X364279Y217444D01*
X382800Y209500D02*
Y213441D01*
X383059Y213700D01*
X379175Y209700D02*
X379375Y209500D01*
X382800D01*
X376749Y210424D02*
Y212508D01*
X377941Y213700D01*
X371353Y225847D02*
X377640D01*
X380925D02*
X382928D01*
X377640D02*
X380925D01*
X382928D02*
X383100Y225675D01*
X379000Y219800D02*
X380375D01*
X383100Y222525D01*
X377640Y221910D02*
X377640Y221910D01*
X380925D01*
X381276Y222262D01*
Y225496D01*
X380925Y225847D02*
X381276Y225496D01*
X375337Y223879D02*
X377640D01*
X346447Y240978D02*
X349284D01*
X352416Y242946D02*
Y245131D01*
X352468Y245183D01*
X351564Y240680D02*
X351863Y240978D01*
X349284D02*
X349582Y240680D01*
X353016Y240978D02*
X353893Y241854D01*
X351407Y242078D02*
X351548D01*
X351863Y240978D02*
X353016D01*
X349582Y240680D02*
X351564D01*
X351108Y241779D02*
X351407Y242078D01*
X350038Y241779D02*
X351108D01*
X351548Y242078D02*
X352416Y242946D01*
X346267Y249167D02*
X346400Y249300D01*
X345506Y249167D02*
X346267D01*
X350573Y245257D02*
Y246905D01*
X346521Y246961D02*
X346960Y247400D01*
X350396Y247082D02*
X350573Y246905D01*
X342699Y242973D02*
X343099D01*
X345400Y245275D01*
X346086Y241339D02*
Y241439D01*
X345400Y242125D02*
X346086Y241439D01*
X354510Y242737D02*
Y245257D01*
X353893Y242120D02*
X354510Y242737D01*
X353893Y241854D02*
Y242120D01*
X346086Y241339D02*
X346447Y240978D01*
X356478Y245257D02*
Y247777D01*
X354955Y249300D02*
X356478Y247777D01*
Y245257D02*
X356479Y245257D01*
X344943Y217973D02*
X347173D01*
X349900Y220700D01*
X357357Y217782D02*
X358447Y216691D01*
X355282Y217782D02*
X357357D01*
X344703Y214516D02*
X344900Y214713D01*
X342119Y212958D02*
X344396D01*
X344703Y213264D02*
Y214516D01*
X344900Y214713D02*
Y215042D01*
X339453Y210292D02*
X342119Y212958D01*
X344396D02*
X344703Y213264D01*
X343313Y215500D02*
X344154Y216342D01*
X339353Y215500D02*
X343313D01*
X344154Y216342D02*
X350729D01*
X350030Y215042D02*
X350200Y214871D01*
X349103Y215042D02*
X350030D01*
X348751Y214690D02*
X349103Y215042D01*
X348751Y213362D02*
Y214690D01*
X348431Y213042D02*
X348751Y213362D01*
X347471Y213042D02*
X348431D01*
X347151Y213362D02*
X347471Y213042D01*
X347151Y213362D02*
Y214690D01*
X346800Y215042D02*
X347151Y214690D01*
X344900Y215042D02*
X346800D01*
X350200Y214871D02*
X350573Y214498D01*
Y212343D02*
Y214498D01*
X350729Y216342D02*
X352542Y214528D01*
Y212560D02*
Y214528D01*
X339453Y209800D02*
Y210292D01*
X345407Y188893D02*
Y198362D01*
Y188893D02*
X345800Y188500D01*
X349872D01*
X335050Y158150D02*
Y160875D01*
X335100Y160925D01*
X335000Y158100D02*
X335050Y158150D01*
X179183Y163396D02*
X179279Y163492D01*
X175996Y163396D02*
X179183D01*
X175900Y163300D02*
X175996Y163396D01*
X203006Y158706D02*
Y160093D01*
X203346Y160433D01*
X202700Y158400D02*
X203006Y158706D01*
X337163Y237263D02*
X337200Y237225D01*
X335237Y237263D02*
X337163D01*
X293600Y232200D02*
Y235014D01*
X295761Y237175D01*
X350021Y238121D02*
X350100Y238200D01*
X350021Y237579D02*
Y238121D01*
X348074Y232595D02*
X348795D01*
X350167Y234400D02*
X350600D01*
X345017Y233795D02*
X349562D01*
X348795Y232595D02*
X350600Y234400D01*
X349562Y233795D02*
X350167Y234400D01*
X344943Y229784D02*
X350284D01*
X351800Y231300D01*
X344943Y233721D02*
X345017Y233795D01*
X347232Y231753D02*
X348074Y232595D01*
X344943Y231753D02*
X347232D01*
X233400Y205800D02*
Y209100D01*
X232900Y205300D02*
X233400Y205800D01*
X245735Y229126D02*
X246294D01*
X243859Y231002D02*
X245735Y229126D01*
X246294D02*
X246600Y228820D01*
X182150Y213620D02*
X182200Y213670D01*
X182100Y209600D02*
X182150Y209650D01*
Y213620D01*
X368728Y144100D02*
X376254D01*
X367328Y145500D02*
X368728Y144100D01*
X359986Y143786D02*
X364700Y148500D01*
X358475Y140000D02*
X365875Y147400D01*
X374165D01*
X375046Y148281D01*
X367300Y145500D02*
X367328D01*
X370739Y148500D02*
X375046Y152806D01*
X364700Y148500D02*
X370739D01*
X375046Y148281D02*
Y148600D01*
X379873Y147325D02*
X380754Y148206D01*
X379480Y147325D02*
X379873D01*
X380754Y148206D02*
Y148600D01*
X376254Y144100D02*
X379480Y147325D01*
X297038Y194700D02*
X300838Y190900D01*
X297038Y194700D02*
X297338Y195000D01*
X300838Y190900D02*
X300932D01*
X380754Y148994D02*
X381635Y149875D01*
X380754Y148994D02*
Y153200D01*
Y148600D02*
Y148994D01*
X221300Y214800D02*
X221500D01*
X220185Y213685D02*
X221300Y214800D01*
X220185Y211917D02*
Y213685D01*
X152700Y267700D02*
X155251D01*
X150900Y265900D02*
X152700Y267700D01*
X328437Y250992D02*
X329073Y251627D01*
X328437Y248712D02*
Y250992D01*
X333500Y248000D02*
Y248433D01*
X332946Y248987D02*
X333500Y248433D01*
X332946Y248987D02*
Y250904D01*
X332222Y251627D02*
X332946Y250904D01*
X354976Y217476D02*
X355282Y217782D01*
X352800Y216239D02*
Y221938D01*
X355483Y220800D02*
X355833D01*
X352800Y216239D02*
X354510Y214528D01*
Y212560D02*
Y214528D01*
X273300Y251700D02*
X274176Y250824D01*
Y249000D02*
Y250824D01*
X273775Y238800D02*
X275486Y237089D01*
X278732Y237345D02*
Y237738D01*
X277092Y235705D02*
X278732Y237345D01*
X277092Y235126D02*
Y235705D01*
X268076Y235591D02*
X268667Y235000D01*
X263335Y235591D02*
X268076D01*
X268667Y235000D02*
X269100D01*
X268400Y232775D02*
X269100Y232075D01*
Y235000D01*
Y232075D02*
X269400Y231775D01*
X266100Y232775D02*
X268400D01*
X269875Y231300D02*
X274014D01*
X269400Y231775D02*
X269875Y231300D01*
X286025Y227200D02*
X287409Y225816D01*
Y221957D02*
Y225816D01*
X285942Y221076D02*
X286823Y221957D01*
X285942Y219337D02*
Y221076D01*
X281876Y214476D02*
X283962Y216562D01*
X286823Y221957D02*
X287409D01*
X283962Y217357D02*
X285942Y219337D01*
X283962Y216562D02*
Y217357D01*
X276583Y214476D02*
X281876D01*
X149486Y264486D02*
X150900Y265900D01*
X146519Y263782D02*
X147223Y264486D01*
X149486D01*
X150900Y263750D02*
X151150Y263500D01*
X150900Y263750D02*
Y265900D01*
X158180Y267002D02*
X158865Y266317D01*
X155950Y267002D02*
X158180D01*
X155251Y267700D02*
X155950Y267002D01*
X343817Y172304D02*
X348676D01*
X356511Y220122D02*
X357800D01*
X355833Y220800D02*
X356511Y220122D01*
X360416Y212343D02*
Y217507D01*
X358447Y212343D02*
Y216691D01*
X357800Y220122D02*
X360416Y217507D01*
X340700Y188146D02*
X341055Y187792D01*
X333600Y188077D02*
Y192000D01*
X348676Y172304D02*
X349872Y173500D01*
X341874Y170361D02*
X343817Y172304D01*
X341055Y187792D02*
X341340Y188077D01*
X341055Y187221D02*
Y187792D01*
X341055D02*
X341055D01*
X341025Y170712D02*
X341377Y170361D01*
X341874D01*
X341025Y170712D02*
Y179519D01*
X337704Y193000D02*
X339587D01*
X340700Y188146D02*
Y191887D01*
X340538Y186704D02*
X341055Y187221D01*
X339587Y193000D02*
X340700Y191887D01*
X339967Y186704D02*
X340538D01*
X339502Y186239D02*
X339967Y186704D01*
X338250Y182295D02*
X341025Y179519D01*
X339502Y186073D02*
Y186239D01*
X339034Y185604D02*
X339502Y186073D01*
X338634Y185604D02*
X339034D01*
X338250Y182295D02*
Y185219D01*
X338634Y185604D01*
X341627Y168286D02*
X342613Y167300D01*
X345196D01*
X341612Y168286D02*
X341627D01*
X348996Y163500D02*
X349872D01*
X345196Y167300D02*
X348996Y163500D01*
X336598Y185500D02*
X336950Y185149D01*
Y181756D02*
Y185149D01*
X335866Y185500D02*
X336598D01*
X339725Y170174D02*
Y178981D01*
Y170174D02*
X341612Y168286D01*
X336950Y181756D02*
X339725Y178981D01*
X333860Y187506D02*
Y188077D01*
Y187506D02*
X335866Y185500D01*
X333347Y221100D02*
X335876D01*
X335976Y221000D01*
X333147Y226600D02*
X335676D01*
X335776Y226700D01*
X356479Y210591D02*
Y212560D01*
X332300Y235800D02*
X332733D01*
X333888Y234645D01*
X335191D01*
X336016Y233821D01*
Y233658D02*
Y233821D01*
Y233658D02*
X337874Y231800D01*
X337968D01*
X333338D02*
X333432D01*
X243859Y231002D02*
Y231100D01*
X245331Y232572D02*
Y234805D01*
X243859Y231100D02*
X245331Y232572D01*
Y234805D02*
X246117Y235591D01*
X247391D01*
X235376Y225740D02*
Y228601D01*
X232677Y231299D02*
X235376Y228601D01*
Y225740D02*
X238598D01*
X243859Y231002D01*
X254301Y227799D02*
X254413Y227911D01*
X250206Y227980D02*
X250244Y227941D01*
X252200Y225800D02*
X252675Y225325D01*
Y223300D02*
Y225325D01*
X254415Y225040D02*
X257676D01*
X252675Y223300D02*
X254415Y225040D01*
X185600Y166700D02*
X185972Y166328D01*
Y163592D02*
Y166328D01*
X221000Y158000D02*
X221012Y158012D01*
Y160736D01*
X237400Y158400D02*
X238344Y159344D01*
Y160746D01*
X238728Y161130D01*
X245043Y158143D02*
X245521Y158621D01*
X244861Y158143D02*
X245043D01*
X245521Y158621D02*
Y161130D01*
X265306Y158564D02*
X265593Y158278D01*
X265306Y158564D02*
Y161130D01*
X273721Y157621D02*
X274000Y157900D01*
X273687Y157621D02*
X273721D01*
X274000Y157900D02*
Y161025D01*
X293000Y157600D02*
X293500Y158100D01*
Y160700D01*
X303789Y158347D02*
Y160736D01*
X304140Y157995D02*
X304418D01*
X303789Y158347D02*
X304140Y157995D01*
X311200Y158800D02*
X312000Y158000D01*
X311200Y158800D02*
Y161000D01*
X317546Y158046D02*
X318000Y158500D01*
X317452Y158046D02*
X317546D01*
X318000Y158500D02*
Y161025D01*
X290539Y242614D02*
X292200Y244275D01*
X290514Y242614D02*
X290539D01*
X290514Y239908D02*
Y242614D01*
X290946Y239228D02*
X292272Y237902D01*
X290946Y239228D02*
Y239476D01*
X290514Y239908D02*
X290946Y239476D01*
X291600Y234500D02*
Y235306D01*
X292272Y235978D02*
Y237902D01*
X291600Y235306D02*
X292272Y235978D01*
X295953Y239476D02*
X297036D01*
X292272Y237902D02*
X294378D01*
X295953Y239476D01*
X291800Y258853D02*
X292100Y258553D01*
X291800Y258853D02*
Y261925D01*
X287418Y262840D02*
X290885D01*
X291800Y261925D01*
X283100Y262600D02*
X283340Y262840D01*
X287418D01*
X179675Y209600D02*
X182100D01*
X87876Y227524D02*
X93327D01*
X378836Y166288D02*
X381624Y163500D01*
X378000Y165950D02*
X378306Y166256D01*
X378803D02*
X378836Y166288D01*
X378306Y166256D02*
X378803D01*
X378000Y169950D02*
X378074D01*
X381624Y163500D02*
X383376D01*
X378074Y169950D02*
X381624Y173500D01*
X383376D01*
X382180Y189696D02*
X383376Y188500D01*
X379704Y189696D02*
X382180D01*
X377900Y191500D02*
X379704Y189696D01*
X377900Y195500D02*
X379704Y197304D01*
X382180D02*
X383376Y198500D01*
X379704Y197304D02*
X382180D01*
X338402Y190702D02*
X338691Y190991D01*
X338710D01*
X337600Y188077D02*
X338402Y188880D01*
Y190702D01*
X373228Y223628D02*
X375086D01*
X375337Y223879D01*
X370398Y240640D02*
X370538Y240500D01*
X370398Y240640D02*
Y245117D01*
X370258Y245257D02*
X370398Y245117D01*
X368047Y239643D02*
Y245014D01*
X368290Y245257D01*
X367804Y239400D02*
X368047Y239643D01*
X365804Y242220D02*
X366170Y242586D01*
Y245106D01*
X365804Y239201D02*
Y242220D01*
X365500Y238898D02*
X365804Y239201D01*
X363666Y239892D02*
Y240325D01*
X365500Y238079D02*
Y238898D01*
X363666Y240325D02*
X364353Y241012D01*
X383284Y229784D02*
X383900Y230400D01*
X377857Y229784D02*
X383284D01*
X371300Y225900D02*
X371353Y225847D01*
X348541Y235941D02*
X350100Y237500D01*
X344943Y235690D02*
X345195Y235941D01*
X348541D01*
X350021Y237579D02*
X350100Y237500D01*
X345181Y237579D02*
X350021D01*
X324400Y177700D02*
X324500Y177800D01*
X324400Y164575D02*
Y177700D01*
X216681Y183571D02*
X216927Y183817D01*
Y189000D01*
X242272Y164279D02*
X245521D01*
X242286Y169686D02*
X242300Y169700D01*
X242272Y164279D02*
X242286Y164294D01*
Y169686D01*
X215900Y170100D02*
X216681Y170881D01*
Y183571D01*
X295000Y249350D02*
X297550Y251900D01*
X295000Y247000D02*
Y249350D01*
X325937Y248712D02*
X328437D01*
X336139Y243514D02*
X336575Y243950D01*
X336139Y242403D02*
Y243514D01*
X335521Y241785D02*
X336139Y242403D01*
X335358Y241785D02*
X335521D01*
X335258Y241685D02*
X335358Y241785D01*
X334758Y241685D02*
X335258D01*
X332900Y239826D02*
X334758Y241685D01*
X332900Y239732D02*
Y239826D01*
X355200Y238991D02*
Y239554D01*
X355079Y238870D02*
X355200Y238991D01*
Y239554D02*
X357031Y241386D01*
X357361D01*
X358447Y242737D02*
Y245257D01*
X357361Y241386D02*
X357830Y241854D01*
Y242120D01*
X358447Y242737D01*
X355089Y140236D02*
X355325Y140000D01*
X353064Y140236D02*
X355089D01*
X375046Y152806D02*
Y153200D01*
X358475Y143200D02*
X359061Y143786D01*
X359986D01*
X355200Y134232D02*
Y136400D01*
X354800Y133832D02*
X355200Y134232D01*
X344144Y203562D02*
X344532Y203173D01*
X343500Y205500D02*
X346211D01*
X343462Y205462D02*
X343500Y205500D01*
X343357Y205462D02*
X343462D01*
X341649Y203754D02*
X343357Y205462D01*
X341649Y202051D02*
Y203754D01*
X347364Y201596D02*
X347560Y201400D01*
X347364Y201596D02*
Y204346D01*
X355600Y191400D02*
X355800Y191200D01*
X341649Y202051D02*
X341700Y202000D01*
X346211Y205500D02*
X347364Y204346D01*
X343889Y199880D02*
X345407Y198362D01*
X348756Y198500D02*
X349872D01*
X347560Y199696D02*
X348756Y198500D01*
X347560Y199696D02*
Y201400D01*
X359001Y130632D02*
X359296D01*
X359932Y125100D02*
Y129996D01*
X359296Y130632D02*
X359932Y129996D01*
X355600Y124232D02*
X356468Y125100D01*
X355600Y121400D02*
Y124232D01*
X354800Y133832D02*
X354851Y133782D01*
X359001D01*
X359932Y125100D02*
X363524D01*
X363924Y125500D01*
X358287Y119200D02*
X359932Y120845D01*
Y125100D01*
X327932Y137055D02*
X331200Y133787D01*
X253496Y137055D02*
X327932D01*
X344532Y200827D02*
Y203173D01*
X226524Y182587D02*
X228647Y180463D01*
Y178953D02*
X228900Y178700D01*
X228647Y178953D02*
Y180463D01*
X228642Y167579D02*
Y170098D01*
X228340Y170400D02*
X228642Y170098D01*
X231248Y164280D02*
Y168915D01*
X232300Y169967D01*
Y170400D01*
X226524Y182587D02*
Y183571D01*
X309153Y171647D02*
X311200Y169600D01*
Y164150D02*
Y169600D01*
X311300Y179200D02*
X311400Y179100D01*
Y173631D02*
Y179100D01*
X309153Y171647D02*
Y176947D01*
X307100Y179000D02*
X309153Y176947D01*
X201661Y164800D02*
X208870Y172009D01*
Y172283D01*
X209988Y167388D02*
X210200Y167600D01*
X209988Y163886D02*
Y167388D01*
X308005Y164364D02*
Y165672D01*
X308700Y166367D01*
X307526Y163886D02*
X308005Y164364D01*
X308700Y166367D02*
Y166800D01*
X272100Y220000D02*
X274057Y221957D01*
X276583D01*
X272100Y217675D02*
Y220000D01*
X273857Y212069D02*
Y212769D01*
X272100Y214525D02*
X273857Y212769D01*
Y212069D02*
X275550Y210375D01*
X267996Y224661D02*
X269552D01*
X267504D02*
X267996D01*
X268596Y224061D01*
X267617Y225040D02*
X267996Y224661D01*
X278192Y228598D02*
X278384Y228790D01*
X278192Y227811D02*
Y228598D01*
X273881Y223500D02*
X278192Y227811D01*
X270713Y223500D02*
X273881D01*
X269552Y224661D02*
X270713Y223500D01*
X267124Y225040D02*
X267504Y224661D01*
X268596Y223569D02*
X269394Y222771D01*
Y221206D02*
X269700Y220900D01*
X267124Y225040D02*
X267617D01*
X268596Y223569D02*
Y224061D01*
X269394Y221206D02*
Y222771D01*
X271500Y225400D02*
X273700D01*
X274447Y226147D01*
Y228790D01*
X210188Y175316D02*
Y175741D01*
Y175316D02*
X211400Y174104D01*
X210100Y175828D02*
X210188Y175741D01*
X211400Y173700D02*
Y174104D01*
X184929Y173687D02*
Y180354D01*
X183142Y171900D02*
X184929Y173687D01*
X218800Y172084D02*
Y177500D01*
X191600Y182712D02*
X191643Y182755D01*
X191600Y170890D02*
Y182712D01*
X311906Y261906D02*
X312791D01*
X314028Y263143D01*
Y265376D01*
X314516Y265864D01*
X317200D01*
X311600Y261600D02*
X311906Y261906D01*
X329500Y257011D02*
Y260400D01*
Y257011D02*
X329940Y256571D01*
X264665Y263148D02*
Y265453D01*
X274069Y254112D02*
X274803Y253379D01*
X274805D01*
X278525Y249000D02*
Y249000D01*
X264665Y263148D02*
X273701Y254112D01*
X274805Y253379D02*
X276372Y251811D01*
Y251153D02*
X278525Y249000D01*
X276372Y251153D02*
Y251811D01*
X273701Y254112D02*
X274069D01*
X191921Y224454D02*
Y225088D01*
Y224454D02*
X193900Y222475D01*
X191615Y225394D02*
X191921Y225088D01*
X288361Y248715D02*
X290285D01*
X288276Y248800D02*
X288361Y248715D01*
X290285D02*
X290369Y248631D01*
X236656Y234449D02*
X237008Y234800D01*
Y235279D01*
X232677Y234449D02*
X236656D01*
X250206Y227980D02*
Y228957D01*
X239613Y231972D02*
Y233313D01*
X238741Y231100D02*
X239613Y231972D01*
X246013Y237559D02*
X247391D01*
X244721Y236267D02*
X246013Y237559D01*
X244721Y236126D02*
Y236267D01*
X243662Y235067D02*
X244721Y236126D01*
X243662Y234818D02*
Y235067D01*
X243023Y234179D02*
X243662Y234818D01*
X240479Y234179D02*
X243023D01*
X239613Y233313D02*
X240479Y234179D01*
X235501Y231200D02*
X238641D01*
X238741Y231100D01*
X262900Y229100D02*
X263425Y229625D01*
X260234Y228220D02*
X262394Y226060D01*
X259865Y228220D02*
X260234D01*
X259300Y228785D02*
X259865Y228220D01*
X259300Y228785D02*
Y231555D01*
X260789Y222673D02*
Y226109D01*
X259779Y227120D02*
X260789Y226109D01*
X259410Y227120D02*
X259779D01*
X258200Y228329D02*
X259410Y227120D01*
X258200Y228329D02*
Y229309D01*
X262394Y224606D02*
Y226060D01*
X251301Y230052D02*
Y231430D01*
X251426Y231555D01*
X250206Y228957D02*
X251301Y230052D01*
X243747Y237121D02*
Y237262D01*
X242400Y241141D02*
X245553D01*
X245909Y241496D01*
X247391D01*
X242007Y245866D02*
X242400Y246259D01*
X238189Y245866D02*
X242007D01*
X235138Y242815D02*
X238189Y245866D01*
X244620Y243962D02*
X245045Y243538D01*
X244620Y243962D02*
Y244137D01*
X242498Y246259D02*
X244620Y244137D01*
X242400Y246259D02*
X242498D01*
X247317Y243538D02*
X247391Y243465D01*
X245045Y243538D02*
X247317D01*
X242313Y237121D02*
X243747D01*
X241393Y236200D02*
X242313Y237121D01*
X237008Y235279D02*
X237928Y236200D01*
X238007D01*
X237776Y236432D02*
Y240177D01*
Y236432D02*
X238007Y236200D01*
X235138Y242815D02*
X237776Y240177D01*
X246013Y239528D02*
X247391D01*
X243747Y237262D02*
X246013Y239528D01*
X285324Y250424D02*
X285800Y250900D01*
X285324Y248800D02*
Y250424D01*
X254793Y252223D02*
X255145Y251872D01*
Y250558D02*
Y251872D01*
X253329Y247566D02*
Y250227D01*
Y247566D02*
X253394Y247500D01*
X255145Y250558D02*
X255363Y250340D01*
Y247500D02*
Y250340D01*
X250523Y252223D02*
X254793D01*
X253263Y250293D02*
X253329Y250227D01*
X205409Y250300D02*
X248600D01*
X250523Y252223D01*
X251500Y260459D02*
X252500Y261459D01*
Y263300D01*
X251529Y265261D02*
X254926D01*
X255610Y265945D01*
X248830Y262562D02*
X251529Y265261D01*
X255610Y265945D02*
Y266043D01*
X248830Y257913D02*
Y262562D01*
Y257913D02*
X251402Y255341D01*
X251500D01*
X255650Y259409D02*
X262809D01*
X255610Y259449D02*
X255650Y259409D01*
X255610Y262992D02*
Y263091D01*
Y262992D02*
X256294Y262308D01*
X256393D01*
X257001Y261700D01*
X260519D01*
X262809Y259409D01*
X231800Y236900D02*
X231954Y236747D01*
Y235172D02*
Y236747D01*
Y235172D02*
X232677Y234449D01*
X234700Y242377D02*
X235138Y242815D01*
X215907Y213504D02*
X216379D01*
X210018Y212207D02*
X210142Y212331D01*
X216379Y213504D02*
X218200Y215325D01*
X210142Y212331D02*
X214733D01*
X215907Y213504D01*
X257331Y231555D02*
X257457Y231430D01*
X260789Y222673D02*
X262106Y221356D01*
X257457Y230052D02*
X258200Y229309D01*
X262394Y224606D02*
X262700Y224300D01*
X257457Y230052D02*
Y231430D01*
X262106Y221161D02*
Y221356D01*
X215959Y359100D02*
X220200D01*
X222425D01*
X223600Y357925D01*
X285299Y242495D02*
Y242594D01*
X262809Y259409D02*
X264674Y257545D01*
Y254661D02*
Y257545D01*
X288276Y248800D02*
X288475Y248602D01*
Y245580D02*
Y248602D01*
X288514Y245580D02*
X288548Y245546D01*
X288475Y245580D02*
X288514D01*
X156149Y255206D02*
Y255502D01*
X153691Y252747D02*
X156149Y255206D01*
X153100Y252747D02*
X153691D01*
X157794Y256494D02*
X158100Y256800D01*
X157140Y256494D02*
X157794D01*
X156149Y255502D02*
X157140Y256494D01*
X158373Y260412D02*
X158619Y260658D01*
X158865Y260904D01*
X159160D02*
X161403Y258661D01*
X147208Y258533D02*
X148446Y259771D01*
X280463Y233700D02*
X285725D01*
X280353Y233810D02*
X280463Y233700D01*
X289122Y237902D02*
X289201D01*
X288548Y242357D02*
Y242436D01*
X285299Y240787D02*
X286301Y239785D01*
X314909Y190009D02*
X318933Y194033D01*
X189935Y218900D02*
X190300Y219265D01*
X263425Y229625D02*
X266100D01*
X267100Y228625D01*
X269400D01*
X203209Y252499D02*
X205409Y250300D01*
X203209Y252499D02*
Y255452D01*
X291059Y213061D02*
Y220885D01*
X289299Y211300D02*
X291059Y213061D01*
Y220885D02*
X293100Y222925D01*
X280461Y171227D02*
Y183571D01*
X283300Y167033D02*
X286447Y163886D01*
X283300Y167033D02*
Y168387D01*
X281200Y167400D02*
X281400Y167600D01*
X281000Y163975D02*
X281200Y164175D01*
X280461Y171227D02*
X283300Y168387D01*
X281200Y164175D02*
Y167400D01*
X293704Y221104D02*
X294182D01*
X293100Y220500D02*
X293704Y221104D01*
X293100Y218775D02*
Y220500D01*
X294182Y221104D02*
X295211Y222133D01*
Y223485D01*
X293100Y211200D02*
Y215625D01*
X295211Y223485D02*
X296825Y225100D01*
X298540Y220875D02*
Y223666D01*
X298000Y220335D02*
X298540Y220875D01*
Y223666D02*
X299975Y225100D01*
X293100Y226075D02*
X294075Y225100D01*
X296825D01*
X207600Y305200D02*
X208675Y304125D01*
X210300D01*
X213025Y310000D02*
X216771D01*
X211626Y308601D02*
X213025Y310000D01*
X211626Y308601D02*
Y308601D01*
X210300Y307275D02*
X211626Y308601D01*
X224600Y307857D02*
Y307922D01*
X223500Y308378D02*
X226159Y311037D01*
X223500Y308313D02*
Y308378D01*
X224600Y307922D02*
X225557Y308879D01*
X226608D01*
X215737Y307375D02*
X218514Y310152D01*
X219707D02*
X223375Y313821D01*
X214200Y307375D02*
X215737D01*
X218514Y310152D02*
X219707D01*
X224663Y312429D02*
X224767D01*
X220000Y305000D02*
X220257Y305257D01*
X227374Y309645D02*
X227551D01*
X220257Y305257D02*
X222000D01*
X217882Y306400D02*
X218682Y307200D01*
X226608Y308879D02*
X227374Y309645D01*
X223606Y311371D02*
X224663Y312429D01*
X223546Y311371D02*
X223606D01*
X222387Y307200D02*
X223500Y308313D01*
X221600Y309425D02*
X223546Y311371D01*
X218682Y307200D02*
X222387D01*
X217449Y306400D02*
X217882D01*
X222000Y305257D02*
X224600Y307857D01*
X221600Y309100D02*
Y309425D01*
X216771Y310000D02*
X221983Y315212D01*
X216292Y317873D02*
X217808Y319388D01*
X213345Y317873D02*
X216292D01*
X211500Y312166D02*
X213936Y314602D01*
X211500Y311926D02*
Y312166D01*
X215898Y313398D02*
X217385D01*
X214400Y311900D02*
X215898Y313398D01*
X217385D02*
X220591Y316604D01*
X213936Y314602D02*
Y315626D01*
X215832Y315646D02*
X216849D01*
X219199Y317996D01*
X213936Y315626D02*
X215811D01*
X215832Y315646D01*
X210184Y314713D02*
X213345Y317873D01*
X208551Y314713D02*
X210184D01*
X208245Y314406D02*
X208551Y314713D01*
X207458Y316306D02*
X209485D01*
X212152Y318973D01*
X214608D01*
X206313Y317938D02*
X209561D01*
X211696Y320073D01*
X212925D01*
X215024Y322172D01*
X214608Y318973D02*
X216416Y320780D01*
X255000Y343957D02*
Y348300D01*
X250127Y339084D02*
X255000Y343957D01*
X248639Y339084D02*
X250127D01*
X247873Y338319D02*
X248639Y339084D01*
X246481Y339711D02*
X247247Y340476D01*
X249963D01*
X252414Y342927D01*
Y345786D01*
X250376Y337619D02*
X250402Y337593D01*
X249265Y336927D02*
X249957Y337619D01*
X250402Y337593D02*
X251093D01*
X253298Y339798D02*
X263281D01*
X251093Y337593D02*
X253298Y339798D01*
X252651Y337528D02*
Y337595D01*
X250657Y335535D02*
X252651Y337528D01*
X249957Y337619D02*
X250376D01*
X252651Y337595D02*
X253754Y338698D01*
X261102D01*
X243610Y345196D02*
Y347730D01*
X242306Y343886D02*
Y343892D01*
X243610Y345196D01*
X243868Y349544D02*
Y350855D01*
X242510Y348185D02*
X243868Y349544D01*
X242510Y346874D02*
Y348185D01*
X240914Y345279D02*
X242510Y346874D01*
X240914Y345278D02*
Y345279D01*
X246200Y350320D02*
Y350500D01*
X243610Y347730D02*
X246200Y350320D01*
X246413Y353400D02*
X246600D01*
X243868Y350855D02*
X246413Y353400D01*
X254592Y336742D02*
Y336798D01*
X255900Y335100D02*
X257390Y336590D01*
X252049Y334199D02*
X254592Y336742D01*
X252049Y334143D02*
Y334199D01*
X263281Y339798D02*
X265179Y337900D01*
X261102Y338698D02*
X263941Y335859D01*
X257390Y336590D02*
X257485D01*
X255790Y335100D02*
X255900D01*
X253441Y332751D02*
X255790Y335100D01*
X213531Y163886D02*
X213993Y164347D01*
Y165093D01*
X215400Y166500D02*
Y166500D01*
X213993Y165093D02*
X215400Y166500D01*
X265306Y164279D02*
X265621Y164594D01*
X267094D02*
X267400Y164900D01*
X265621Y164594D02*
X267094D01*
X340095Y200395D02*
X341700Y202000D01*
X335961Y200395D02*
X340095D01*
X333860Y198294D02*
X335961Y200395D01*
X343889Y200184D02*
X344532Y200827D01*
X343889Y199880D02*
Y200184D01*
X341340Y198294D02*
X342926Y199880D01*
X343889D01*
X210100Y175828D02*
Y178513D01*
X210000Y178613D02*
X210100Y178513D01*
X210000Y178613D02*
Y179425D01*
X206838Y182587D02*
X210000Y179425D01*
X333860Y197723D02*
Y198294D01*
X341340Y197723D02*
Y198294D01*
X187900Y218900D02*
X189935D01*
X297594Y247994D02*
X297900Y248300D01*
X297594Y246658D02*
Y247994D01*
X297035Y246100D02*
X297594Y246658D01*
X297035Y243414D02*
Y246100D01*
X262057Y164279D02*
X265306D01*
X265306Y164279D01*
X318100Y167100D02*
Y175300D01*
X314909Y178491D02*
X318100Y175300D01*
X314909Y178491D02*
Y183571D01*
X221602Y167598D02*
X222100Y167100D01*
X221602Y167598D02*
Y183571D01*
X235479Y176179D02*
X237300Y178000D01*
X235479Y164279D02*
Y176179D01*
X309412Y188900D02*
X309700D01*
X305067Y184555D02*
X309412Y188900D01*
X308846Y248433D02*
X310776Y250363D01*
X311623D01*
X266700Y245555D02*
Y245900D01*
X264609Y243465D02*
X266700Y245555D01*
X167822Y256081D02*
X170103Y253800D01*
X183248D01*
X185635Y256187D01*
X176046Y255771D02*
X181479D01*
X181895Y256187D01*
X218800Y172084D02*
X219142Y171742D01*
X217469Y163886D02*
X219142Y165559D01*
Y171742D01*
X183113Y171900D02*
X183142D01*
X298059Y199724D02*
Y204727D01*
X298000Y199665D02*
X298059Y199724D01*
X297276Y205509D02*
X298059Y204727D01*
X293191Y205509D02*
X297276D01*
X293100Y205600D02*
X293191Y205509D01*
X313497Y200163D02*
Y206813D01*
X313000Y199665D02*
X313497Y200163D01*
X313900Y207216D02*
Y209500D01*
X313497Y206813D02*
X313900Y207216D01*
X294400Y189613D02*
X295224Y188789D01*
X294400Y189613D02*
Y194033D01*
X256500Y297500D02*
X257145Y296855D01*
X254413Y296400D02*
X264013Y286800D01*
X274200D01*
X247213Y296400D02*
X254413D01*
X252114Y164279D02*
Y170086D01*
X252063Y170137D02*
X252114Y170086D01*
X255200Y167900D02*
X255282Y167818D01*
Y164362D02*
Y167818D01*
Y164362D02*
X255364Y164280D01*
X206838Y182587D02*
Y183571D01*
X293518Y163868D02*
X295100Y165450D01*
X293500Y163850D02*
X293518Y163868D01*
X295100Y165450D02*
Y170500D01*
X324400Y164575D02*
X324900Y164075D01*
X328200Y167078D02*
X329986Y165292D01*
X328200Y167078D02*
Y178300D01*
X328300Y178400D01*
X314909Y183571D02*
Y190009D01*
X323280Y194033D02*
X324513Y192800D01*
X327400D01*
X318933Y194033D02*
X323280D01*
X319815Y228634D02*
X322394D01*
X302941Y251041D02*
X303400Y251500D01*
X302941Y247351D02*
Y251041D01*
X306878Y250878D02*
X307000Y251000D01*
X306878Y247351D02*
Y250878D01*
X330337Y164557D02*
X331218D01*
X329986Y164908D02*
Y165292D01*
X331218Y164557D02*
X331700Y164075D01*
X329986Y164908D02*
X330337Y164557D01*
X314600Y170967D02*
X315500Y171867D01*
Y172300D01*
X314600Y164275D02*
Y170967D01*
X248865Y164279D02*
X252114D01*
X309988Y182587D02*
X311263Y181312D01*
Y181033D02*
X311336Y180960D01*
X311300Y179200D02*
X311336Y179236D01*
X311263Y181033D02*
Y181312D01*
X311336Y179236D02*
Y180960D01*
X309988Y182587D02*
Y183571D01*
X199016Y263091D02*
X200984Y261122D01*
X198835Y266600D02*
X199016Y266420D01*
Y263091D02*
Y266420D01*
X135725Y256171D02*
X135745Y256151D01*
X141249D01*
X141399Y256001D01*
X253274Y219934D02*
X254118Y220778D01*
Y221300D01*
X253274Y219501D02*
Y219934D01*
X247339Y222714D02*
X247925Y223300D01*
X249604D01*
X246547Y222714D02*
X247339D01*
X245533Y221700D02*
X246547Y222714D01*
X245100Y221700D02*
X245533D01*
X261300Y172875D02*
Y179680D01*
X270421Y172744D02*
Y180657D01*
X288500Y227796D02*
Y230700D01*
X288600D02*
Y233228D01*
X288500Y227796D02*
X289096Y227200D01*
X283767Y231300D02*
X284767Y230300D01*
X285495Y230595D02*
X285966D01*
X285200Y230300D02*
X285495Y230595D01*
X284767Y230300D02*
X285200D01*
X285883Y230049D02*
Y230512D01*
X281700Y238500D02*
Y242198D01*
X281462Y242436D02*
X281700Y242198D01*
X276689Y218110D02*
X281791D01*
X276583Y218217D02*
X276689Y218110D01*
X264600Y254587D02*
X268340D01*
X264600D02*
X264674Y254661D01*
X185635Y262280D02*
Y265734D01*
X185341Y261986D02*
X185635Y262280D01*
X268909Y209946D02*
X269722Y210759D01*
X267800Y209946D02*
X268909D01*
X269722Y210759D02*
X270000D01*
X288600Y233228D02*
X289072Y233700D01*
X276900Y205009D02*
X277191Y205300D01*
X276900Y199800D02*
Y205009D01*
X251130Y179703D02*
X251752Y179081D01*
X251130Y179703D02*
Y183571D01*
X251752Y178648D02*
Y179081D01*
X261169Y172744D02*
X261300Y172875D01*
X270243Y241979D02*
X270438Y242174D01*
X268019Y241979D02*
X270243D01*
X270438Y242174D02*
X273425D01*
X267712Y241672D02*
X268019Y241979D01*
X312784Y239476D02*
X313866D01*
X315390Y241000D02*
X316200D01*
X313866Y239476D02*
X315390Y241000D01*
X271774Y242397D02*
X273425D01*
X286301Y239785D02*
Y240110D01*
Y239697D02*
Y239785D01*
Y240110D02*
X288548Y242357D01*
X286301Y239697D02*
X286607Y239390D01*
X285299Y240787D02*
Y242397D01*
X286607Y239390D02*
X287633D01*
X289122Y237902D01*
X280786Y231300D02*
X283767D01*
X273425Y242174D02*
X273688Y242436D01*
X325937Y248712D02*
X327275Y247374D01*
Y243201D02*
Y247374D01*
X320583Y234539D02*
X322394Y232728D01*
Y228634D02*
Y232728D01*
X277918Y242397D02*
X281422D01*
X281462Y242436D01*
X254118Y221300D02*
X256987D01*
X203200Y220300D02*
X203272D01*
X203115Y220215D02*
X203200Y220300D01*
X211507Y217844D02*
X213798Y215554D01*
X210018Y217844D02*
X211507D01*
X208089Y219774D02*
X210018Y217844D01*
X203557Y219774D02*
X208089D01*
X203115Y220215D02*
X203557Y219774D01*
X199428Y220601D02*
Y222126D01*
Y220601D02*
X199728Y220300D01*
X199428Y222126D02*
X199722Y222421D01*
Y227370D01*
X199530Y227562D02*
X199722Y227370D01*
X199235Y227562D02*
X199530D01*
X246613Y295800D02*
X247213Y296400D01*
X245000Y295800D02*
X246613D01*
X240600Y291400D02*
X245000Y295800D01*
X243071Y302229D02*
X246000Y299300D01*
X245213Y297400D02*
X246657D01*
X246757Y297500D02*
X256500D01*
X246657Y297400D02*
X246757Y297500D01*
X241679Y300934D02*
X245213Y297400D01*
X237400Y291400D02*
X240600D01*
X234123Y294677D02*
X237400Y291400D01*
X236479Y295802D02*
X238269Y294012D01*
X236454Y295802D02*
X236479D01*
X234123Y296685D02*
X235447Y298009D01*
X234123Y294677D02*
Y296685D01*
X165840Y254100D02*
X167822Y256081D01*
X185635Y256187D02*
Y256875D01*
X167822Y256081D02*
Y256770D01*
X183876Y259546D02*
X187394D01*
X189375Y257565D01*
X181895D02*
X183876Y259546D01*
X181895Y256187D02*
Y257565D01*
X189375Y256876D02*
Y257565D01*
X304400Y168957D02*
X305067Y168290D01*
X304400Y168957D02*
Y179653D01*
X305067Y180320D01*
X314500Y164175D02*
X314600Y164275D01*
X305067Y165164D02*
Y168290D01*
Y180320D02*
Y184555D01*
X176700Y265261D02*
X177876Y266437D01*
X181880D01*
X181895Y266423D01*
X158865Y260904D02*
X159160D01*
X162569Y254100D02*
X165840D01*
X161403Y255265D02*
X162569Y254100D01*
X161403Y255265D02*
Y258661D01*
X171446Y256886D02*
X171562Y256770D01*
X171446Y256886D02*
Y257575D01*
Y260871D01*
X164081Y256770D02*
Y257459D01*
X166062Y259440D01*
X169581D01*
X171446Y257575D01*
X260700Y250385D02*
Y250818D01*
X260094Y249779D02*
X260700Y250385D01*
X260094Y249776D02*
Y249779D01*
X259300Y248982D02*
X260094Y249776D01*
X259300Y247500D02*
Y248982D01*
X254409Y309488D02*
Y310876D01*
X254900Y311367D02*
Y311800D01*
X254409Y310876D02*
X254900Y311367D01*
X230948Y362411D02*
X232931Y364394D01*
X233494D01*
X233800Y364700D01*
X241679Y300934D02*
Y304703D01*
X240914Y305469D02*
X241679Y304703D01*
X136047Y260494D02*
X141094D01*
X135824Y260271D02*
X136047Y260494D01*
X141094D02*
X141400Y260800D01*
X241400Y187167D02*
X242300Y188067D01*
X241400Y183684D02*
Y187167D01*
X242300Y188067D02*
Y188500D01*
X241287Y183571D02*
X241400Y183684D01*
X238202Y192618D02*
X277554D01*
X236783Y194038D02*
X238202Y192618D01*
X236783Y194038D02*
Y199352D01*
X254413Y229227D02*
X255238Y230052D01*
X254413Y227911D02*
Y229227D01*
X255238Y230052D02*
Y231430D01*
X255363Y231555D01*
X234083Y348741D02*
X236586Y351245D01*
Y354186D01*
X234083Y348490D02*
Y348741D01*
Y348490D02*
X234511Y348062D01*
X229647Y349679D02*
X230991Y348335D01*
X229647Y349679D02*
Y352247D01*
X229703Y352303D01*
X230961Y348305D02*
X230991Y348335D01*
X230961Y346044D02*
Y348305D01*
Y346044D02*
X231727Y345278D01*
X232097Y354425D02*
X233043Y353479D01*
X232097Y354425D02*
Y354697D01*
X226993Y295118D02*
Y295240D01*
X228860Y297108D01*
Y297231D01*
X230189Y293489D02*
X232100Y295400D01*
X230189Y293015D02*
Y293489D01*
X240287Y349309D02*
X241636Y350657D01*
X241710D01*
X242432Y353732D02*
X242700Y354000D01*
X241504Y353732D02*
X242432D01*
X221334Y299372D02*
X221553D01*
X224136Y301955D01*
X224136D01*
X227405Y359065D02*
X227796Y358673D01*
Y355600D02*
Y358673D01*
X226258Y299005D02*
X226392D01*
X224900Y297300D02*
Y297647D01*
X226498Y298898D02*
Y299593D01*
X226392Y299005D02*
X226498Y298898D01*
X224900Y297647D02*
X226258Y299005D01*
X217000Y350100D02*
X217096Y350196D01*
X221340D01*
X225090Y350186D02*
X226114D01*
X221340Y350196D02*
X223369D01*
X223399Y350166D01*
X225070D01*
X225090Y350186D01*
X226114D02*
X229569Y346731D01*
X223886Y352414D02*
Y354696D01*
X223796Y354787D02*
X223886Y354696D01*
X218858Y302334D02*
X221106D01*
X226258Y307487D02*
X228177D01*
X228943Y308253D01*
X221106Y302334D02*
X226258Y307487D01*
X204600Y316000D02*
X207151D01*
X207458Y316306D01*
X202400Y321851D02*
X206313Y317938D01*
X208967Y319500D02*
X209567D01*
X208936Y319532D02*
X208967Y319500D01*
X207100Y319838D02*
X207406Y319532D01*
X202400Y321851D02*
Y321900D01*
X207406Y319532D02*
X208936D01*
X209567Y319500D02*
X213632Y323564D01*
X209766Y331975D02*
X211641D01*
X211899Y331717D01*
X214666D01*
X216416Y329967D01*
X206900Y333900D02*
X208825Y331975D01*
X209766D01*
X209800Y336400D02*
X211993Y334207D01*
Y334202D02*
Y334207D01*
X215650Y333517D02*
X218434D01*
X215650D02*
X217808Y331359D01*
X215468Y333517D02*
X215650D01*
X218235Y334908D02*
X219648D01*
X215741Y337403D02*
X218235Y334908D01*
X211857Y338196D02*
X212100Y338440D01*
X211857Y337127D02*
X215468Y333517D01*
X212100Y338440D02*
Y339741D01*
X218434Y333517D02*
X219199Y332751D01*
X211857Y337127D02*
Y338196D01*
X212045Y339797D02*
X212100Y339741D01*
X219648Y334908D02*
X220414Y334143D01*
X214439Y337403D02*
X215741D01*
X220414Y334143D02*
X220591D01*
X219009Y338509D02*
X221983Y335535D01*
X216832Y340686D02*
X219009Y338509D01*
X214187Y342914D02*
X214286D01*
X216514Y340686D02*
X216832D01*
X209600Y342242D02*
Y342400D01*
X212045Y339797D02*
Y339797D01*
X209600Y342242D02*
X212045Y339797D01*
X216536Y345364D02*
Y345432D01*
X212100Y345000D02*
X214187Y342914D01*
X214668Y347300D02*
X216536Y345432D01*
X214600Y347300D02*
X214668D01*
X216536Y345364D02*
X216671D01*
X219034Y347529D02*
Y350233D01*
X232891Y350522D02*
Y350955D01*
X232353Y349984D02*
X232891Y350522D01*
X233043Y351107D02*
Y353479D01*
X232891Y350955D02*
X233043Y351107D01*
X232353Y347436D02*
X233119Y346670D01*
X232353Y347436D02*
Y349984D01*
X227405Y359065D02*
X227602Y359261D01*
X230948D01*
X229569Y344652D02*
X230335Y343886D01*
X229569Y344652D02*
Y346731D01*
X226640Y341973D02*
X226680D01*
X224500Y344113D02*
X226640Y341973D01*
X224830Y346017D02*
Y346706D01*
X226469Y344900D02*
X228874Y342495D01*
X226400Y344900D02*
X226469D01*
X223567Y347969D02*
X224830Y346706D01*
X224500Y345687D02*
X224830Y346017D01*
X228874Y342495D02*
X228943D01*
X226680Y341973D02*
X227551Y341103D01*
X224500Y344113D02*
Y345687D01*
X223498Y342372D02*
Y343066D01*
X221261Y345302D02*
X223498Y343066D01*
Y342372D02*
X226159Y339711D01*
X220862Y341173D02*
X221913D01*
X218899Y343137D02*
X220862Y341173D01*
X221913D02*
X224767Y338319D01*
X285382Y179282D02*
Y183571D01*
X285300Y179200D02*
X285382Y179282D01*
X289991Y169991D02*
X292500Y172500D01*
X290200Y178600D02*
Y183468D01*
X290303Y183571D01*
X274000Y164175D02*
X276486Y166661D01*
X276900D01*
X344267Y163500D02*
X344700D01*
X341800Y164075D02*
X343692D01*
X344267Y163500D01*
X289991Y163886D02*
Y169991D01*
X235447Y298009D02*
Y301653D01*
X234511Y302589D02*
X235447Y301653D01*
X234511Y302589D02*
Y302685D01*
X242400Y296300D02*
Y298657D01*
Y296300D02*
X242600Y296100D01*
X226000Y288300D02*
X228017Y290317D01*
Y290843D01*
X226363Y304182D02*
X227656D01*
X230335Y306861D01*
X228725Y302363D02*
X231727Y305365D01*
Y305469D01*
X228725Y301820D02*
Y302363D01*
X231087Y302046D02*
X233119Y304077D01*
X231087Y299458D02*
Y302046D01*
X238960Y298308D02*
Y301855D01*
X238130Y302685D02*
X238960Y301855D01*
X251310Y202053D02*
Y204025D01*
X250897Y201639D02*
X251310Y202053D01*
X250897Y200903D02*
Y201639D01*
X248000Y200900D02*
Y204036D01*
X250897Y200903D02*
X250900Y200900D01*
X247200Y204836D02*
X248000Y204036D01*
X251310Y204025D02*
X253348Y206063D01*
X247200Y204836D02*
X247708Y205344D01*
X240287Y300770D02*
X242400Y298657D01*
X240287Y300770D02*
Y303311D01*
X239522Y304077D02*
X240287Y303311D01*
X244463Y304837D02*
X249439Y299861D01*
Y299631D02*
Y299861D01*
X243071Y302229D02*
Y306095D01*
X242306Y306861D02*
X243071Y306095D01*
X260799Y326500D02*
X266700D01*
X259688Y327611D02*
X260799Y326500D01*
X259009Y327183D02*
X259437Y327611D01*
X259688D01*
X295224Y183571D02*
Y188789D01*
X181800Y170587D02*
X183113Y171900D01*
X181800Y167853D02*
Y170587D01*
Y167853D02*
X182429Y167224D01*
Y163492D02*
Y167224D01*
X189122Y163592D02*
Y166126D01*
X188953Y168243D02*
X191600Y170890D01*
X188953Y166295D02*
Y168243D01*
Y166295D02*
X189122Y166126D01*
X196730Y159049D02*
X197681Y158097D01*
X196730Y159049D02*
Y160314D01*
X196209Y160835D02*
X196730Y160314D01*
X237200Y184405D02*
Y188100D01*
X236366Y183571D02*
X237200Y184405D01*
X230000Y192800D02*
X231445Y191355D01*
Y183571D02*
Y191355D01*
X244463Y304837D02*
Y307487D01*
X243698Y308253D02*
X244463Y307487D01*
X248068Y304632D02*
X250300Y302400D01*
X248068Y304632D02*
Y305021D01*
X320705Y324100D02*
X323742D01*
X317500Y325461D02*
X318676Y324284D01*
X320520D01*
X320705Y324100D01*
X250407Y307360D02*
X250463Y307415D01*
X250407Y306058D02*
Y307360D01*
X250103Y307415D02*
X250463D01*
X246481Y311037D02*
X250103Y307415D01*
X245855Y307234D02*
Y308879D01*
X248068Y305021D02*
Y305021D01*
X245855Y307234D02*
X248068Y305021D01*
X245090Y309645D02*
X245855Y308879D01*
X254600Y304500D02*
X256636Y306536D01*
Y307260D01*
X252100Y309488D02*
X254409D01*
X247873Y312429D02*
X250305Y309997D01*
X251590D01*
X252100Y309488D01*
X256225Y320780D02*
X256991Y320015D01*
Y314209D02*
Y320015D01*
X259243Y316600D02*
X259600Y316957D01*
Y320189D01*
X257617Y322172D02*
X259600Y320189D01*
X266800Y204751D02*
X267349Y205300D01*
X266800Y200200D02*
Y204751D01*
X276416Y234450D02*
X277092Y235126D01*
X276416Y233810D02*
Y234450D01*
X262400Y314300D02*
X263600Y313100D01*
X262400Y314300D02*
Y316325D01*
X265059Y335553D02*
X267453D01*
X264753Y335859D02*
X265059Y335553D01*
X263941Y335859D02*
X264753D01*
X240287Y347521D02*
Y349309D01*
X239522Y346670D02*
Y346755D01*
X240287Y347521D01*
X238895Y348828D02*
Y351124D01*
X241504Y353732D01*
X238130Y348062D02*
X238895Y348828D01*
X260860Y254587D02*
Y255374D01*
X259895Y256339D02*
X260860Y255374D01*
X255610Y256339D02*
X259895D01*
X183876Y268404D02*
X187394D01*
X189375Y265734D02*
Y266423D01*
X187394Y268404D02*
X189375Y266423D01*
X181895D02*
X183876Y268404D01*
X147208Y256301D02*
Y258533D01*
X150710Y332711D02*
X150907D01*
X239075Y212700D02*
X239361Y212414D01*
Y211306D02*
Y212414D01*
X235925Y212700D02*
X236111Y212514D01*
Y211472D02*
Y212514D01*
Y211472D02*
X236277Y211306D01*
Y209965D02*
Y211306D01*
X240583Y209700D02*
Y210084D01*
X239361Y211306D02*
X240583Y210084D01*
X233790Y212600D02*
X235825D01*
X235925Y212700D01*
X236277Y209965D02*
X236583Y209659D01*
X230954Y212301D02*
Y213400D01*
Y212301D02*
X231305Y211950D01*
X233140D01*
X233790Y212600D01*
X239075Y212700D02*
X239302Y212927D01*
X243508D01*
X243700Y213119D01*
Y213154D01*
X236277Y209965D02*
X236583Y209659D01*
X235933Y200200D02*
X236781Y199352D01*
X235500Y200633D02*
X236546Y201679D01*
X236781Y199352D02*
X236783D01*
X235500Y200200D02*
X235933D01*
X235500D02*
Y200633D01*
X236546Y204025D02*
X237821Y205300D01*
X236546Y201679D02*
Y204025D01*
X244754Y218260D02*
X245513D01*
X243873Y217379D02*
X244754Y218260D01*
X245513D01*
X243873Y217379D02*
X244754Y218260D01*
X230654Y213592D02*
Y215014D01*
Y213592D02*
X230846Y213400D01*
X230954D01*
X233899Y218260D02*
X234687D01*
X230654Y215014D02*
X233899Y218260D01*
X253659Y211600D02*
X258339D01*
X247708Y208705D02*
X250764D01*
X253699Y209660D02*
X255425D01*
X253348Y209309D02*
X253699Y209660D01*
X250764Y208705D02*
X253659Y211600D01*
X253348Y206063D02*
Y209309D01*
X254662Y215900D02*
X255318Y216556D01*
Y216679D02*
X256199Y217560D01*
X253053Y215900D02*
X254662D01*
X255318Y216556D02*
Y216679D01*
X256199Y217560D02*
X256987D01*
X258147Y210200D02*
X258622D01*
X257861Y209914D02*
X258147Y210200D01*
X255679Y209914D02*
X257861D01*
X255425Y209660D02*
X255679Y209914D01*
X247708Y205344D02*
Y208705D01*
X261589Y209914D02*
X263275Y211600D01*
X258908Y209914D02*
X261589D01*
X258622Y210200D02*
X258908Y209914D01*
X258339Y211600D02*
X260125D01*
X263275D02*
Y213809D01*
X267026Y217560D01*
X257988Y211951D02*
X258339Y211600D01*
X257988Y211951D02*
Y216679D01*
X257107Y217560D02*
X257988Y216679D01*
X256987Y217560D02*
X257107D01*
X267026D02*
X267813D01*
X267800Y213253D02*
Y217547D01*
X267813Y217560D01*
X244754Y218260D02*
X245513D01*
X243873Y217379D02*
X244754Y218260D01*
X245513D01*
X243873Y217379D02*
X244754Y218260D01*
X243873Y213326D02*
Y217379D01*
X243700Y213154D02*
X243873Y213326D01*
X272244Y205274D02*
X272270Y205300D01*
X272244Y200394D02*
Y205274D01*
X248622Y178248D02*
Y178627D01*
X247483Y179765D02*
X248622Y178627D01*
X247483Y179765D02*
Y182296D01*
X200492Y258169D02*
X203209Y255452D01*
X321500Y164075D02*
X321600Y164175D01*
Y170400D02*
X321700Y170500D01*
X321600Y164175D02*
Y170400D01*
X278835Y193900D02*
X279100D01*
X277554Y192618D02*
X278835Y193900D01*
X263408Y239600D02*
X268327D01*
X269261Y240534D02*
X275347D01*
X268327Y239600D02*
X269261Y240534D01*
X232400Y141000D02*
X252344D01*
X253077Y141732D01*
X273327D01*
X263335Y243465D02*
X264609D01*
X206492Y163831D02*
X206870Y164209D01*
Y166470D01*
X207000Y166600D01*
X231534Y361825D02*
Y361825D01*
X276232Y241419D02*
Y243861D01*
X275347Y240534D02*
X276232Y241419D01*
X295761Y237175D02*
Y237212D01*
X296057Y237508D02*
X297036D01*
X295761Y237212D02*
X296057Y237508D01*
X318100Y240013D02*
Y240324D01*
X315595Y237508D02*
X318100Y240013D01*
X317889Y238095D02*
X324113D01*
X327275Y234933D01*
X312784Y235540D02*
X315334D01*
X327275Y234539D02*
Y234933D01*
X312784Y237508D02*
X315595D01*
X315334Y235540D02*
X317889Y238095D01*
X272400Y236000D02*
X272798D01*
X274447Y234351D01*
Y233810D02*
Y234351D01*
X263335Y239528D02*
X263408Y239600D01*
X269852Y244961D02*
X270438Y245546D01*
X269498Y244961D02*
X269852D01*
X268110Y243572D02*
X269498Y244961D01*
X263470Y241630D02*
X264830D01*
X263335Y241496D02*
X263470Y241630D01*
X266772Y243572D02*
X268110D01*
X264830Y241630D02*
X266772Y243572D01*
X320583Y242807D02*
Y246587D01*
X318100Y240324D02*
X320583Y242807D01*
X300973Y247351D02*
X301000Y247378D01*
Y251500D01*
X292200Y241125D02*
X292446Y241371D01*
X296962D01*
X297035Y241445D01*
X206120Y221853D02*
X209979Y225711D01*
X206120Y221656D02*
Y221853D01*
X209979Y225711D02*
Y227562D01*
X300539Y163886D02*
X303789D01*
X305067Y165164D01*
X270500Y164175D02*
X274000D01*
X297036Y230865D02*
X299600Y228300D01*
X297036Y230865D02*
Y235540D01*
X255364Y164280D02*
X258613D01*
X258613Y164279D01*
X308846Y247351D02*
Y248433D01*
X320583Y246587D02*
X322709Y248712D01*
X322787D01*
X325465Y232728D02*
X327275Y234539D01*
X325465Y228634D02*
Y232728D01*
X319831Y183571D02*
Y188609D01*
X318307Y190133D02*
X319831Y188609D01*
X324900Y164075D02*
X328300D01*
X314500Y164175D02*
X318000D01*
X203761Y169734D02*
Y170221D01*
X202658Y168630D02*
X203761Y169734D01*
X202658Y167432D02*
Y168630D01*
X197869Y166039D02*
X201264D01*
X202658Y167432D01*
X199503Y164030D02*
X201162D01*
X201661Y164530D01*
Y164800D01*
X203595Y163831D02*
X206492D01*
X203346Y163583D02*
X203595Y163831D01*
X196209Y164378D02*
X197869Y166039D01*
X199358Y163886D02*
X199503Y164030D01*
X276232Y243861D02*
X277918Y245546D01*
X281422D02*
X281462Y245507D01*
X277918Y245546D02*
X281422D01*
X281462Y245507D02*
X281675Y245720D01*
Y249000D01*
X272964Y246231D02*
X273648Y245546D01*
X273688Y245507D01*
X270438Y245546D02*
X273648D01*
X272964Y246231D02*
Y247161D01*
X271125Y249000D02*
X272964Y247161D01*
X288441Y245546D02*
X288475Y245580D01*
X285299Y245546D02*
X288441D01*
X257331Y247500D02*
Y251147D01*
X257496Y251311D01*
X202071Y265260D02*
X205906D01*
X286447Y163886D02*
X289991D01*
X293518Y163868D02*
X296978D01*
X296996Y163886D01*
X287402Y218110D02*
X287409Y218102D01*
Y214476D02*
Y218102D01*
X246209Y183571D02*
X247483Y182296D01*
X235479Y164280D02*
X238728D01*
X276985Y221555D02*
X280413D01*
X276583Y221957D02*
X276985Y221555D01*
X225343Y164280D02*
X228642Y167579D01*
X217469Y163886D02*
X221012D01*
D13*
X335200Y237300D02*
Y237338D01*
X383300Y259786D02*
Y261230D01*
X382241Y262700D02*
X383613Y261328D01*
X383399D02*
X383613D01*
X383300Y261230D02*
X383399Y261328D01*
X382241Y262700D02*
X382341Y262800D01*
Y267400D01*
X382241Y267500D02*
X382341Y267400D01*
X332900Y239638D02*
X335200Y237338D01*
X364850Y167950D02*
X382826D01*
X364700Y168100D02*
X364850Y167950D01*
X360200Y193500D02*
X383376D01*
X357500Y194500D02*
X357768Y194232D01*
X359468D01*
X360200Y193500D01*
X340886Y182516D02*
X341876Y181525D01*
X344100D01*
X340716Y182516D02*
X340886D01*
X344571Y175896D02*
X353788D01*
X354356Y175327D01*
X344100Y175425D02*
X344571Y175896D01*
X339053Y221300D02*
X339253Y221100D01*
X339053Y221300D02*
Y226600D01*
X333447Y215500D02*
X333547Y215400D01*
Y209800D02*
Y215400D01*
Y209308D02*
X334624Y208231D01*
X337468Y203200D02*
Y205879D01*
X335116Y208231D02*
X337468Y205879D01*
X334624Y208231D02*
X335116D01*
X333547Y209308D02*
Y209800D01*
X354356Y171232D02*
Y175327D01*
X351624Y168500D02*
X354356Y171232D01*
X344100Y178575D02*
Y181525D01*
X349172Y169200D02*
X349872Y168500D01*
X351624D01*
X345529Y186104D02*
X353493D01*
X344100Y184675D02*
X345529Y186104D01*
X355800Y188411D02*
Y191200D01*
X353493Y186104D02*
X355800Y188411D01*
X332900Y239638D02*
Y239732D01*
X328700Y204600D02*
X330100Y203200D01*
X332932D01*
X338396Y160847D02*
X338500Y160950D01*
X338396Y158210D02*
Y160847D01*
X338293Y158107D02*
X338396Y158210D01*
X320067Y197319D02*
X321002Y196384D01*
X320067Y197319D02*
Y200894D01*
X217600Y221921D02*
X218200Y221321D01*
X217600Y221921D02*
Y222300D01*
X218200Y218475D02*
Y221321D01*
X216753Y221453D02*
X217600Y222300D01*
X214972Y221453D02*
X216753D01*
X214191Y220672D02*
X214972Y221453D01*
X212813Y221656D02*
X213798Y220672D01*
X209467Y221656D02*
X212813D01*
X213798Y220672D02*
X214191D01*
X217759Y228841D02*
X217800Y228800D01*
X214589Y228841D02*
X217759D01*
X209979Y229530D02*
X213900D01*
X214589Y228841D01*
X210359Y238738D02*
X212754D01*
X212992Y238976D01*
X210121Y238500D02*
X210359Y238738D01*
X209738Y238883D02*
Y240754D01*
Y238883D02*
X210121Y238500D01*
X208268Y242126D02*
X208366D01*
X209738Y240754D01*
X337976Y228169D02*
X339053Y227092D01*
X337968Y228637D02*
Y231800D01*
X337976Y228169D02*
Y228629D01*
X337968Y228637D02*
X337976Y228629D01*
X339053Y226600D02*
Y227092D01*
X382826Y167950D02*
X383376Y168500D01*
X372932Y136968D02*
Y137837D01*
X372008Y138761D02*
X372932Y137837D01*
Y136968D02*
X373200Y136700D01*
X354020Y194586D02*
Y200890D01*
X342898Y206700D02*
X348210D01*
X349872Y193500D02*
X352934D01*
X353500D01*
X348210Y206700D02*
X354020Y200890D01*
X333500Y244868D02*
Y248000D01*
X332900Y244268D02*
X333500Y244868D01*
X358780Y146220D02*
Y148501D01*
Y146220D02*
X358800Y146200D01*
X358760Y148521D02*
X358780Y148501D01*
X355067Y146333D02*
Y148499D01*
Y146333D02*
X355100Y146300D01*
X355035Y148531D02*
X355067Y148499D01*
X342429Y206231D02*
X342898Y206700D01*
X340594Y206231D02*
X342429D01*
X353500Y193500D02*
X355600Y191400D01*
X352934Y193500D02*
X354020Y194586D01*
X355600Y191400D02*
X355600D01*
X337562Y203200D02*
X340594Y206231D01*
X337468Y203200D02*
X337562D01*
X365968Y152065D02*
X367100Y153196D01*
X358760Y152065D02*
X365968D01*
X368543Y138761D02*
X372008D01*
X367100Y140204D02*
X368543Y138761D01*
X343400Y169200D02*
X349172D01*
X361832Y121700D02*
X362100Y121968D01*
X363731D01*
X366194Y124430D01*
Y124916D01*
X366778Y125500D01*
X366876D01*
X355035Y152075D02*
X355040Y152080D01*
Y154358D01*
X355508Y154826D01*
X358281D01*
X358760Y154347D01*
Y152065D02*
Y154347D01*
Y152065D02*
X358760Y152065D01*
X338771Y129429D02*
X339000Y129200D01*
X331110Y129429D02*
X338771D01*
X333463Y150333D02*
Y153025D01*
X332200Y149070D02*
X333463Y150333D01*
X332200Y146000D02*
Y149070D01*
X331700Y154788D02*
X333463Y153025D01*
X331700Y154788D02*
Y160925D01*
X307526Y158831D02*
X308701Y157656D01*
X307526Y158831D02*
Y160736D01*
X308701Y157623D02*
Y157656D01*
X325915Y154696D02*
X328300Y157081D01*
Y160925D01*
X325915Y154234D02*
Y154696D01*
X319234Y154234D02*
X323083Y158083D01*
Y159108D01*
X316002Y153998D02*
X316239Y154234D01*
X319234D01*
X181102Y237387D02*
X181300Y237584D01*
Y242046D01*
X180709Y242638D02*
X181300Y242046D01*
X179400Y237551D02*
X180938D01*
X181102Y237387D01*
X178224Y236375D02*
X179400Y237551D01*
X176000Y236375D02*
X178224D01*
X180900Y229200D02*
Y232066D01*
X181102Y232269D01*
X185138Y232283D02*
X185138D01*
X185624Y232769D02*
Y234345D01*
X186000Y234721D01*
X185138Y232283D02*
X185624Y232769D01*
X186000Y234721D02*
Y235100D01*
X316002Y123998D02*
Y123998D01*
X325005Y133000D01*
X329300D01*
X93213Y173492D02*
Y174292D01*
X92600Y172500D02*
Y172879D01*
X94388Y175467D02*
X94585D01*
X93213Y174292D02*
X94388Y175467D01*
X92600Y172879D02*
X93213Y173492D01*
X196799Y172744D02*
Y174699D01*
X212000Y177500D02*
Y183331D01*
X196799Y174699D02*
X199600Y177500D01*
X312027Y255777D02*
Y256466D01*
X309946Y253696D02*
X312027Y255777D01*
X306627Y253696D02*
X309946D01*
X304796Y255527D02*
X306627Y253696D01*
X304296Y255527D02*
X304796D01*
X304296D02*
X304546Y255777D01*
X302649Y253880D02*
X304296Y255527D01*
X322460Y264740D02*
Y266118D01*
X317200Y261136D02*
X318582Y262517D01*
X320237D01*
X322460Y264740D01*
X329940Y256571D02*
Y257260D01*
X329159Y258041D02*
X329940Y257260D01*
X328606Y258041D02*
X329159D01*
X328281Y258366D02*
X328606Y258041D01*
X328281Y258366D02*
Y258814D01*
X324541Y259341D02*
X327754D01*
X322460Y257260D02*
X324541Y259341D01*
X322460Y256571D02*
Y257260D01*
X327754Y259341D02*
X328281Y258814D01*
X312027Y265325D02*
Y266014D01*
X309946Y268095D02*
X312027Y266014D01*
X306627Y268095D02*
X309946D01*
X304796Y266264D02*
X306627Y268095D01*
X304296Y266264D02*
X304796D01*
X304296D02*
X304546Y266014D01*
X302260Y268300D02*
X304296Y266264D01*
X324041Y268199D02*
X327859D01*
X324041Y267699D02*
Y268199D01*
X327859D02*
X329940Y266118D01*
Y265429D02*
Y266118D01*
X322460D02*
X324041Y267699D01*
X326200Y255882D02*
Y256571D01*
X324119Y253801D02*
X326200Y255882D01*
X320128Y253801D02*
X324119D01*
X317228Y256700D02*
X320128Y253801D01*
X316797Y256700D02*
X317228D01*
X314261Y259237D02*
X316797Y256700D01*
X310367Y259237D02*
X314261D01*
X308537Y257405D02*
X310367Y259237D01*
X308036Y257405D02*
X308537D01*
X308036D02*
X308286Y257155D01*
X306193Y259249D02*
X308036Y257405D01*
X308042Y261396D02*
X308164Y261518D01*
Y265202D01*
X308286Y265325D01*
X296486Y253880D02*
X302649D01*
X304546Y255777D02*
Y256466D01*
X295219Y252613D02*
X296486Y253880D01*
X295219Y251934D02*
Y252613D01*
X293915Y250631D02*
X295219Y251934D01*
X290285Y250631D02*
X293915D01*
X288983Y251933D02*
X290285Y250631D01*
X288983Y251933D02*
Y254579D01*
X288202Y255360D02*
X288983Y254579D01*
X287418Y255360D02*
X288202D01*
X325603Y262068D02*
X325871Y262336D01*
Y265100D01*
X326200Y265429D01*
X300592Y259249D02*
X306193D01*
X308286Y256466D02*
Y257155D01*
X298190Y256847D02*
X300592Y259249D01*
X297600Y256847D02*
X298190D01*
X297300D02*
X297600D01*
X298772Y268300D02*
X302260D01*
X304546Y265325D02*
Y266014D01*
X297359Y266888D02*
X298772Y268300D01*
X295868Y266888D02*
X297359D01*
X295600Y266620D02*
X295868Y266888D01*
X102240Y187551D02*
Y189940D01*
X102508Y190208D01*
X101967Y187278D02*
X102240Y187551D01*
X273250Y257250D02*
Y260875D01*
Y257250D02*
X273300Y257200D01*
X273200Y260925D02*
X273250Y260875D01*
X294752Y263920D02*
X296133D01*
X297300Y262753D01*
X293597Y265075D02*
X294752Y263920D01*
X291800Y265075D02*
X293597D01*
X297300Y262753D02*
X297933D01*
X299600Y264420D01*
Y266300D01*
X294436Y255180D02*
X295633D01*
X297300Y256847D01*
X292395Y253139D02*
X294436Y255180D01*
X292100Y253139D02*
X292395D01*
X289600Y315021D02*
X290210Y314411D01*
Y312480D02*
Y314411D01*
X289600Y315021D02*
Y317975D01*
X290210Y318585D01*
X205906Y260630D02*
X208460Y258075D01*
Y255440D02*
X208525Y255375D01*
X208460Y255440D02*
Y258075D01*
X212100Y256173D02*
X212163Y256111D01*
X212100Y256173D02*
Y259647D01*
X205906Y260630D02*
Y260818D01*
X211900Y259847D02*
X212100Y259647D01*
X188868Y226160D02*
X191667Y228959D01*
X188868Y223807D02*
Y226160D01*
X188628Y229616D02*
X188896Y229884D01*
X185620Y229616D02*
X188628D01*
X185138Y229134D02*
X185620Y229616D01*
X188868Y223807D02*
X190300Y222375D01*
X185138Y226785D02*
Y229134D01*
X184169Y225816D02*
X185138Y226785D01*
X152298Y310159D02*
X155841D01*
X155841Y313309D02*
Y316472D01*
Y313309D02*
X155841Y313309D01*
X155841Y316472D02*
X155841Y316472D01*
X152070Y313537D02*
Y316172D01*
Y313537D02*
X152298Y313309D01*
X149300Y310400D02*
X149420Y310280D01*
X152178D01*
X152298Y310159D01*
X152070Y316172D02*
X152298Y316400D01*
X155841Y316500D02*
Y319414D01*
Y322958D01*
X152298Y316400D02*
Y319414D01*
Y322958D01*
X142849Y310259D02*
X146392D01*
Y313409D02*
Y319515D01*
X139700Y310300D02*
X139720Y310280D01*
X142829D01*
X142849Y310259D01*
Y313409D02*
Y319515D01*
Y323058D01*
X146392Y319515D02*
Y323058D01*
X133107Y310159D02*
X136650D01*
X136542Y313417D02*
Y316570D01*
Y313417D02*
X136650Y313309D01*
X136433Y316478D02*
X136450D01*
X136542Y316570D01*
X133116Y313319D02*
Y316452D01*
X133107Y313309D02*
X133116Y313319D01*
Y316452D02*
X133126Y316462D01*
X129800Y310300D02*
X129870Y310230D01*
X133036D01*
X133107Y310159D01*
X136433Y316678D02*
X136542Y316570D01*
X300259Y309330D02*
X303802D01*
X303851Y306349D02*
X303900Y306300D01*
X303851Y306349D02*
Y309281D01*
X303802Y309330D02*
X303851Y309281D01*
X300180Y312559D02*
Y315520D01*
Y312559D02*
X300259Y312480D01*
X300100Y315600D02*
X300180Y315520D01*
X303951Y312629D02*
Y315251D01*
X303802Y312480D02*
X303951Y312629D01*
Y315251D02*
X304100Y315400D01*
X293754Y306946D02*
Y309330D01*
X290210D02*
X293754D01*
X293827Y312553D02*
Y315327D01*
X293754Y312480D02*
X293827Y312553D01*
Y315327D02*
X293900Y315400D01*
X280161Y309330D02*
X283705D01*
Y306095D02*
Y309330D01*
X280031Y312611D02*
Y315469D01*
Y312611D02*
X280161Y312480D01*
X279900Y315600D02*
X280031Y315469D01*
X283802Y312577D02*
Y315502D01*
X283705Y312480D02*
X283802Y312577D01*
Y315502D02*
X283900Y315600D01*
X279900D02*
Y318324D01*
X280161Y318585D01*
X283900Y315600D02*
Y318390D01*
X283705Y318585D02*
X283900Y318390D01*
X290210Y318585D02*
Y322129D01*
X293900Y315400D02*
Y318439D01*
X293754Y318585D02*
X293900Y318439D01*
X293754Y318585D02*
Y322129D01*
X304100Y315400D02*
Y318288D01*
X303802Y318585D02*
X304100Y318288D01*
X303802Y318585D02*
Y322129D01*
X300100Y315600D02*
Y318426D01*
X300259Y318585D01*
Y322129D01*
X168613Y307700D02*
X171600D01*
X171629Y307671D02*
X174452D01*
X165052Y307663D02*
X168576D01*
X171600Y307700D02*
X171629Y307671D01*
X168576Y307663D02*
X168613Y307700D01*
X174452Y307671D02*
X174481Y307643D01*
X168576Y310753D02*
X168823Y311000D01*
X171600D02*
X171693Y311093D01*
X168823Y311000D02*
X171600D01*
X171693Y311093D02*
X174388D01*
X174481Y311186D01*
X338300Y307600D02*
Y310472D01*
X337365Y311118D02*
X337654D01*
X338300Y310472D01*
X265700Y304498D02*
Y307500D01*
X260500Y305126D02*
Y307600D01*
X259833Y304459D02*
X260500Y305126D01*
X214726Y234163D02*
X214862Y234300D01*
X214857Y232483D02*
X215081D01*
X214726Y232614D02*
X214857Y232483D01*
X214726Y232614D02*
Y234163D01*
X301300Y342401D02*
X302833Y340868D01*
X301300Y342401D02*
Y345800D01*
X298400Y342829D02*
X300002Y341227D01*
X298400Y342829D02*
Y345800D01*
X294119Y340339D02*
X294400Y340058D01*
X294119Y340339D02*
Y345614D01*
X288399Y339106D02*
X293448D01*
X294400Y340058D01*
X293600Y329400D02*
Y333142D01*
X294400Y333942D01*
X287113Y332222D02*
X288069D01*
X290420Y329871D01*
Y329751D02*
Y329871D01*
Y329751D02*
X292772Y327400D01*
X293291D01*
X293760Y326931D01*
Y325285D02*
Y326931D01*
X293754Y325278D02*
X293760Y325285D01*
X286036Y333298D02*
X287113Y332222D01*
X285518Y327091D02*
X291442D01*
X157727Y350031D02*
Y355648D01*
Y350031D02*
X157800Y349958D01*
X158000Y355921D02*
Y356300D01*
X157727Y355648D02*
X158000Y355921D01*
X157703Y343745D02*
X157800Y343842D01*
X157703Y338361D02*
Y343745D01*
X156936Y337594D02*
X157703Y338361D01*
X153919Y337594D02*
X156936D01*
X153273Y336948D02*
X153919Y337594D01*
X151896Y336948D02*
X153273D01*
X157471Y332471D02*
X157700Y332242D01*
X157012Y332471D02*
X157471D01*
X156598Y332058D02*
X157012Y332471D01*
X154837Y332058D02*
X156598D01*
X154279Y331500D02*
X154837Y332058D01*
X153900Y331500D02*
X154279D01*
X167800Y348700D02*
Y351641D01*
X168959Y352800D01*
X163253Y352212D02*
X163841Y352800D01*
X163253Y352212D02*
Y352212D01*
X163500Y348900D02*
Y351965D01*
X163253Y352212D02*
X163500Y351965D01*
X189668Y211783D02*
X190606D01*
X191223Y212400D01*
X192025Y211598D01*
X189019Y212432D02*
X189668Y211783D01*
X187303Y212432D02*
X189019D01*
X185404Y210531D02*
X187303Y212432D01*
X185365Y210531D02*
X185404D01*
X192025Y207400D02*
Y211598D01*
X196928Y210140D02*
Y210640D01*
X195177Y212391D02*
X196928Y210640D01*
X195177Y212391D02*
Y212400D01*
X196928Y210140D02*
X198739D01*
X199231Y209648D01*
X87573Y185027D02*
X88613Y183986D01*
X90213D01*
X85650Y186083D02*
X86706Y185027D01*
X90213Y183986D02*
X90231Y183968D01*
X86706Y185027D02*
X87573D01*
X269121Y264075D02*
X273200D01*
X269121Y264035D02*
Y264075D01*
X268340Y264816D02*
Y265413D01*
Y264816D02*
X269121Y264035D01*
X247424Y247500D02*
X251426D01*
X246222Y248323D02*
X246601D01*
X247424Y247500D01*
X210841Y355259D02*
Y359100D01*
Y355259D02*
X210900Y355200D01*
X223861Y361336D02*
Y363245D01*
X223600Y361075D02*
X223861Y361336D01*
X223395Y363711D02*
Y364469D01*
Y363711D02*
X223861Y363245D01*
X305468Y195755D02*
X308000Y198287D01*
Y199665D01*
X305468Y190900D02*
Y195755D01*
X306193Y191625D02*
X313300D01*
X305468Y190900D02*
X306193Y191625D01*
X152800Y258953D02*
Y261720D01*
Y258953D02*
X153100Y258653D01*
X153676Y262876D02*
X154300Y263500D01*
X153676Y262596D02*
Y262876D01*
X152800Y261720D02*
X153676Y262596D01*
X158100Y256800D02*
Y259827D01*
X158684Y260412D02*
X158865D01*
X158100Y259827D02*
X158684Y260412D01*
X215900Y393798D02*
Y397300D01*
Y393798D02*
X215987Y393710D01*
X208700Y393900D02*
X208800D01*
X211300Y391400D01*
Y385300D02*
X211500Y385100D01*
X211300Y385300D02*
Y388250D01*
X315675Y194775D02*
X315700Y194800D01*
X313300Y194775D02*
X315675D01*
X257268Y356868D02*
Y357943D01*
X257000Y356600D02*
X257268Y356868D01*
X258282Y358957D02*
Y360043D01*
X257268Y357943D02*
X258282Y358957D01*
Y360043D02*
X258714Y360475D01*
Y362814D01*
X196637Y367837D02*
X199363D01*
X196500Y367975D02*
X196637Y367837D01*
X199363D02*
X199500Y367700D01*
X262439Y329833D02*
X263853Y331247D01*
X264553D01*
X259690Y329833D02*
X262439D01*
X259187Y329330D02*
X259690Y329833D01*
X258371Y329330D02*
X259187D01*
X257617Y328575D02*
X258371Y329330D01*
X258327Y330733D02*
X261347Y333753D01*
X262047D01*
X257806Y330733D02*
X258327D01*
X257795Y330722D02*
X257806Y330733D01*
X256980Y330722D02*
X257795D01*
X256225Y329967D02*
X256980Y330722D01*
X250000Y351800D02*
X250186Y351613D01*
Y348013D02*
Y351613D01*
X254400Y354400D02*
X254668Y354132D01*
Y353138D02*
Y354132D01*
Y353138D02*
X255295Y352511D01*
X255776D01*
X256551Y351736D01*
X258790D01*
X259053Y352000D01*
X251200Y354647D02*
Y354700D01*
Y354647D02*
X252762Y353085D01*
Y353063D02*
Y353085D01*
Y353063D02*
X257153Y348673D01*
Y347094D02*
Y348673D01*
Y347094D02*
X259642Y344605D01*
Y344500D02*
Y344605D01*
X248252Y344878D02*
X248522D01*
X248471Y344826D02*
X248522Y344878D01*
X247022Y343647D02*
X248252Y344878D01*
X248471Y344209D02*
X249685Y342994D01*
X248471Y344209D02*
Y344826D01*
X249685Y342885D02*
Y342994D01*
X265458Y342900D02*
Y344200D01*
X265758Y344500D01*
X265458Y342900D02*
X267536D01*
X268286Y342150D01*
X271180D01*
X265943Y352000D02*
X266702Y351241D01*
X267118Y350825D01*
X268247Y352787D02*
X271017D01*
X266603Y351143D02*
X268247Y352787D01*
X267118Y350157D02*
X267543Y349732D01*
X267118Y350157D02*
Y350825D01*
X265746Y352000D02*
X265943D01*
X270288Y344224D02*
X271666D01*
X269515Y344997D02*
X270288Y344224D01*
X269144Y344997D02*
X269515D01*
X268502Y345638D02*
X269144Y344997D01*
X268502Y345638D02*
Y346598D01*
X267543Y347557D02*
X268502Y346598D01*
X267543Y347557D02*
Y349732D01*
X262461Y359300D02*
Y361985D01*
X263300Y362824D01*
Y363100D01*
X247022Y343085D02*
Y343647D01*
X245090Y341152D02*
X247022Y343085D01*
X245857Y345197D02*
Y347294D01*
X245737Y345077D02*
X245857Y345197D01*
X245737Y344534D02*
Y345077D01*
X243698Y342495D02*
X245737Y344534D01*
X245090Y341103D02*
Y341152D01*
X250000Y351437D02*
Y351800D01*
X245857Y347294D02*
X250000Y351437D01*
X257106Y333632D02*
X258071D01*
X258224Y333785D01*
X254833Y331359D02*
X257106Y333632D01*
X219200Y292800D02*
X221421D01*
X213100D02*
X216050D01*
X211760Y183571D02*
X212000Y183331D01*
X106555Y217559D02*
X109715Y214399D01*
X106555Y222291D02*
X111262Y226998D01*
X106555Y217559D02*
Y222291D01*
X180640Y248300D02*
Y251900D01*
Y248300D02*
X180700Y248239D01*
X124787Y227700D02*
X125689Y228602D01*
X115035Y227700D02*
X124787D01*
X111262Y227076D02*
X111886Y227700D01*
X111965D01*
X111262Y226998D02*
Y227076D01*
X184169Y224930D02*
Y225816D01*
X200492Y252308D02*
X200500Y252300D01*
X200492Y252308D02*
Y255020D01*
X92152Y243463D02*
X92739Y242876D01*
X91234Y241370D02*
X92739Y242876D01*
X84800Y239006D02*
X87164Y241370D01*
X91234D01*
X84800Y231700D02*
Y239006D01*
X175591Y245650D02*
X175695Y245754D01*
Y247795D02*
X175800Y247900D01*
X175695Y245754D02*
Y247795D01*
X186268Y250168D02*
X187209D01*
X186000Y249900D02*
X186268Y250168D01*
X194460Y257419D02*
X196060D01*
X187209Y250168D02*
X194460Y257419D01*
X196060D02*
X196683Y258042D01*
X88179Y234200D02*
X88758Y233621D01*
X92152D02*
X93327Y232446D01*
X88758Y233621D02*
X92152D01*
X87800Y234200D02*
X88179D01*
X109256Y199394D02*
X110344D01*
X229400Y217300D02*
Y217501D01*
X233899Y222000D01*
X234687D01*
X303059Y199724D02*
Y208441D01*
X303000Y199665D02*
X303059Y199724D01*
X302500Y209000D02*
X303059Y208441D01*
X323300Y188700D02*
X324752Y187248D01*
Y183571D02*
Y187248D01*
X337600Y197152D02*
X340347Y194405D01*
X340869D02*
X341137Y194137D01*
X340347Y194405D02*
X340869D01*
X337600Y197152D02*
Y197723D01*
X87598Y210039D02*
X87977D01*
X89003Y209014D01*
X92152D01*
X93327Y207839D01*
X87697Y214961D02*
X88076D01*
X89101Y213935D01*
X92152D01*
X93327Y212761D01*
X85628Y191609D02*
Y194672D01*
X82500Y197800D02*
X85628Y194672D01*
X82480Y257480D02*
X82500Y257500D01*
Y262170D01*
X95246Y191400D02*
X97900D01*
X95235Y191412D02*
X95246Y191400D01*
X185365Y210531D02*
Y211588D01*
Y207600D02*
Y210531D01*
X196321Y236400D02*
X196700D01*
X148991Y209646D02*
X148991Y209646D01*
X154300Y263500D02*
Y265800D01*
X167600Y262060D02*
Y265259D01*
X167379Y261839D02*
X167600Y262060D01*
X167526Y265333D02*
X167600Y265259D01*
X167526Y265333D02*
X167822Y265628D01*
X146915Y223588D02*
X147030Y223472D01*
X146915Y223588D02*
Y225785D01*
X146800Y225900D02*
X146915Y225785D01*
X249438Y215808D02*
X249622Y215992D01*
X249438Y215801D02*
Y215808D01*
X249500Y218400D02*
X249623Y218277D01*
X249622Y215992D02*
X249623D01*
Y218277D01*
X277280Y255360D02*
X281472D01*
X281932Y254900D01*
X282311D01*
X243700Y209846D02*
Y210063D01*
X249438Y215801D01*
X223416Y211909D02*
X226409D01*
X226174Y212144D02*
X227430Y213400D01*
X226409Y211909D02*
X226500Y212000D01*
X227430Y213400D02*
X227646D01*
X147794Y216372D02*
X148991Y215176D01*
Y212772D02*
Y215176D01*
Y212772D02*
X148991Y212772D01*
X148991Y209646D02*
Y212772D01*
X147794Y216372D02*
Y216372D01*
X148991Y212772D02*
X148991Y212772D01*
X194992Y235922D02*
X195843D01*
X196321Y236400D01*
X194506Y235436D02*
X194992Y235922D01*
X194506Y235436D02*
Y235436D01*
X214097Y231499D02*
X215081Y232483D01*
X210000Y246300D02*
X211500D01*
X209541Y246759D02*
X210000Y246300D01*
X211500D02*
X212300Y247100D01*
X209541Y246759D02*
Y247152D01*
X211500Y246329D02*
X212524D01*
X212992Y245860D01*
X209055Y247638D02*
X209541Y247152D01*
X212992Y242087D02*
Y245860D01*
X324112Y196384D02*
Y198640D01*
X325579Y200106D01*
Y200894D01*
X173200Y209600D02*
X176565D01*
X325579Y200894D02*
X327994D01*
X209979Y231499D02*
X214097D01*
X236620Y287054D02*
Y287132D01*
X237480Y287992D02*
X237559D01*
X236620Y287132D02*
X237480Y287992D01*
X236516Y286949D02*
X236620Y287054D01*
X236516Y284252D02*
Y286949D01*
X166846Y211894D02*
Y214386D01*
Y211894D02*
X169193Y209547D01*
X258613Y156619D02*
Y161130D01*
X256002Y154008D02*
X258613Y156619D01*
X256002Y153998D02*
Y154008D01*
X252114Y158319D02*
Y161130D01*
Y158319D02*
X252264Y158169D01*
X196683Y252097D02*
Y255050D01*
X184169Y212784D02*
Y213670D01*
Y212784D02*
X185365Y211588D01*
X81790Y186085D02*
Y190624D01*
Y186085D02*
X81791Y186083D01*
X81521Y185813D02*
X81791Y186083D01*
X81521Y181855D02*
Y185813D01*
X100787Y205118D02*
Y207559D01*
X98819Y203150D02*
X100787Y205118D01*
X341800Y158102D02*
Y160925D01*
Y158102D02*
X341929Y157972D01*
X289991Y158041D02*
Y160736D01*
Y158041D02*
X290059Y157972D01*
X83013Y172828D02*
X84244Y171597D01*
X88524D01*
X83013Y172828D02*
Y173117D01*
X93327Y252131D02*
X94311D01*
X95203Y253022D01*
X96497Y251728D01*
X131388Y249400D02*
X132972Y250984D01*
X97713Y249400D02*
X131388D01*
X97244Y249869D02*
X97713Y249400D01*
X97244Y249869D02*
Y251181D01*
X96697Y251728D02*
X97244Y251181D01*
X96497Y251728D02*
X96697D01*
X88779Y249213D02*
X89158D01*
X89987Y248384D01*
X92152D01*
X93327Y247210D01*
X87205Y219390D02*
X87584D01*
X88117Y218857D01*
X92152D01*
X93327Y217682D01*
X87992Y239370D02*
X88371D01*
X89199Y238542D01*
X92152D01*
X93327Y237367D01*
X88524Y171597D02*
X91141Y174214D01*
Y176642D01*
X92441Y177942D01*
X98359D01*
X99569Y176732D01*
X105487D01*
X106412Y177657D01*
X106791D01*
X102459Y180807D02*
Y184037D01*
X102559Y179207D02*
Y180807D01*
X115423Y180118D02*
X115748D01*
X114734Y180807D02*
X115423Y180118D01*
X102559Y180807D02*
X114734D01*
X99379Y197400D02*
X100777Y196002D01*
X105863D01*
X99000Y197400D02*
X99379D01*
X273206Y131201D02*
X279134D01*
X266002Y123998D02*
X273206Y131201D01*
X286002Y123998D02*
X293895Y131890D01*
X301279D01*
X316905Y134900D02*
X320900D01*
X306002Y123998D02*
X316905Y134900D01*
X191400Y231800D02*
X191667Y231533D01*
X176700Y260339D02*
X177661Y261300D01*
X182000D01*
X208269Y262108D02*
X209448Y263286D01*
Y264088D01*
X211113Y265753D01*
X211900D01*
X207195Y262108D02*
X208269D01*
X205906Y260818D02*
X207195Y262108D01*
X195765Y266600D02*
X195815Y266549D01*
Y263141D02*
Y266549D01*
Y263141D02*
X195866Y263091D01*
X164081Y261581D02*
Y265628D01*
X163900Y261400D02*
X164081Y261581D01*
Y265628D02*
Y266317D01*
X171562Y265628D02*
Y266317D01*
X169481Y268398D02*
X171562Y266317D01*
X166162Y268398D02*
X169481D01*
X164081Y266317D02*
X166162Y268398D01*
X150500Y325622D02*
X151812D01*
X149500Y325000D02*
X149879D01*
X151812Y325622D02*
X152298Y326107D01*
X149879Y325000D02*
X150500Y325622D01*
X148078Y327893D02*
X151039D01*
X146392Y326207D02*
X148078Y327893D01*
X144607Y327993D02*
X146392Y326207D01*
X177289Y335300D02*
Y337341D01*
X151400Y370500D02*
X151513Y370388D01*
X155100Y364854D02*
X157225Y366979D01*
X155113Y370388D02*
X155225Y370275D01*
X154631Y375500D02*
X157225Y372906D01*
Y366979D02*
Y372906D01*
X151513Y370388D02*
X155113D01*
X236057Y366910D02*
X236582Y367435D01*
X239124D01*
X235678Y366910D02*
X236057D01*
X254291Y375588D02*
X254800Y375079D01*
Y374700D02*
Y375079D01*
X254291Y375588D02*
Y378051D01*
X265502Y300128D02*
X265509D01*
X266132Y299505D01*
Y297568D02*
Y299505D01*
Y297568D02*
X266400Y297300D01*
X277281Y259101D02*
X282301D01*
X277280Y259100D02*
X277281Y259101D01*
X282301D02*
X282302Y259102D01*
X131311Y372911D02*
X133402D01*
X128900Y370500D02*
X131311Y372911D01*
X135900Y378028D02*
X137406Y379534D01*
X135900Y374900D02*
Y378028D01*
X137406Y379534D02*
X139662D01*
X141900Y381772D02*
Y390000D01*
X139662Y379534D02*
X141900Y381772D01*
X239000Y194518D02*
X254117D01*
X191314Y356399D02*
Y357232D01*
X189814Y354900D02*
X191314Y356399D01*
X189735Y354900D02*
X189814D01*
X190478Y350583D02*
X190561Y350500D01*
X191581Y357500D02*
X191985D01*
X191314Y357232D02*
X191581Y357500D01*
X189814Y354900D02*
X190478Y354236D01*
Y350583D02*
Y354236D01*
X185639Y350500D02*
X186665Y351525D01*
Y354900D01*
X190478Y350583D02*
X190858Y350203D01*
Y343874D02*
Y350203D01*
X191499Y343233D02*
X191870D01*
X192644Y342460D01*
X194022D01*
X190858Y343874D02*
X191499Y343233D01*
X186633Y344186D02*
Y349506D01*
X185639Y350500D02*
X186633Y349506D01*
X190918Y339901D02*
X195399D01*
X186633Y344186D02*
X190918Y339901D01*
X191717Y357232D02*
X191985Y357500D01*
X191314Y357232D02*
X191717D01*
X195600Y356934D02*
Y359900D01*
X195360Y356694D02*
X195600Y356934D01*
X235300Y358954D02*
X236926Y357328D01*
X237017D01*
X237932Y356414D01*
X238813D01*
X235300Y358954D02*
X235550Y359205D01*
X240628D01*
X240824Y359400D01*
X243572Y359604D02*
X243972Y359205D01*
X247039D02*
X247234Y359009D01*
X243972Y359205D02*
X247039D01*
X243572Y359604D02*
Y364366D01*
X243368Y364570D02*
X243572Y364366D01*
X161883Y311186D02*
Y313004D01*
X162600Y313721D01*
Y314100D01*
X307686Y312814D02*
X307686Y312814D01*
X310084D01*
X203937Y289961D02*
X224414D01*
X227700Y293247D02*
X228446D01*
X230133Y292959D02*
X230189Y293015D01*
X228733Y292959D02*
X230133D01*
X228446Y293247D02*
X228733Y292959D01*
X224414Y289961D02*
X227700Y293247D01*
X219928Y355700D02*
X220000D01*
X217228Y353000D02*
X219928Y355700D01*
X203769Y353000D02*
X217228D01*
X155100Y361800D02*
Y364854D01*
X329524Y348200D02*
X332539D01*
X335500Y352000D02*
X336286Y351214D01*
Y349375D02*
Y351214D01*
Y349375D02*
X337461Y348200D01*
X313234Y309271D02*
X313253Y309291D01*
X316757D01*
X316777Y309310D01*
X273143Y298906D02*
Y307157D01*
X282900Y292900D02*
X283183Y292617D01*
Y288079D02*
Y292617D01*
X262432Y297232D02*
Y300128D01*
X200677Y347423D02*
X200700Y347400D01*
X200677Y347423D02*
Y351194D01*
X257600Y391900D02*
X257700Y391800D01*
X260907D01*
X239409Y367720D02*
X243368D01*
X239124Y367435D02*
X239409Y367720D01*
X235900Y362100D02*
X236831Y363031D01*
X238264D02*
X239124Y363891D01*
X236831Y363031D02*
X238264D01*
X239124Y363891D02*
Y363970D01*
X173921Y324942D02*
X178600D01*
X178800Y324742D01*
X172779Y323800D02*
X173921Y324942D01*
X172400Y323800D02*
X172779D01*
X179695Y331753D02*
Y335439D01*
X178800Y330858D02*
X179695Y331753D01*
X178667Y342460D02*
X179153Y341974D01*
X179426D01*
X179714Y341686D01*
X179812D01*
X180453Y341045D01*
Y336197D02*
Y341045D01*
X179695Y335439D02*
X180453Y336197D01*
X277500Y355319D02*
X277708D01*
X277768Y355379D01*
Y356932D01*
X277500Y357200D02*
X277768Y356932D01*
X277500Y355319D02*
X278064Y354755D01*
X267124Y364924D02*
X267200Y365000D01*
X267124Y362700D02*
Y364924D01*
X167545Y345471D02*
X170360D01*
X164572Y345393D02*
X167545D01*
X163979Y344800D02*
X164572Y345393D01*
X163600Y344800D02*
X163979D01*
X151841Y316400D02*
X152298D01*
X149533Y331338D02*
X150610Y330261D01*
Y328323D02*
Y330261D01*
Y328323D02*
X151039Y327893D01*
X297018Y321829D02*
Y322037D01*
X300259Y325278D01*
X302017Y327064D02*
X303802Y325278D01*
X296986D02*
X298772Y327064D01*
X302017D01*
X293754Y325278D02*
X296986D01*
X112400Y215700D02*
X114259Y217559D01*
X119291D01*
X119150Y217700D02*
X119291Y217559D01*
X196683Y258042D02*
Y258121D01*
X179800Y293500D02*
X179849Y293451D01*
Y287700D02*
Y293451D01*
X184770Y287700D02*
X185000Y287930D01*
Y292500D01*
X165085Y292085D02*
X165500Y292500D01*
X165085Y287700D02*
Y292085D01*
X151496Y292717D02*
X152300Y293521D01*
X170006Y294406D02*
X170300Y294700D01*
X170006Y287700D02*
Y294406D01*
X185163Y321800D02*
X186239Y322876D01*
X169000Y321800D02*
X185163D01*
X165800Y325000D02*
X169000Y321800D01*
X186239Y322876D02*
Y322900D01*
X170349Y325851D02*
Y330200D01*
X164002Y326798D02*
X165800Y325000D01*
X164002Y326798D02*
Y329664D01*
X173999Y293267D02*
X174928Y292339D01*
Y287700D02*
Y292339D01*
X170301Y330248D02*
X170349Y330200D01*
X140000Y325700D02*
X140379D01*
X140886Y326207D01*
X136650Y326107D02*
X138536Y327993D01*
X144607D01*
X140886Y326207D02*
X142849D01*
X136433Y316678D02*
Y319631D01*
X136433Y319631D02*
X136433Y319631D01*
X133126Y316462D02*
Y319395D01*
X179743Y307643D02*
X180000Y307900D01*
X177631Y307643D02*
X179743D01*
X177631D02*
Y311186D01*
X168825Y300700D02*
X187700D01*
X161883Y307643D02*
X168825Y300700D01*
X189576Y366400D02*
X192800D01*
X186229D02*
X189576D01*
X192800D02*
X192900Y366300D01*
X191616Y368440D02*
Y369839D01*
X189576Y366400D02*
X191616Y368440D01*
Y369839D02*
X192200Y370424D01*
X195276Y373376D02*
X195300Y373400D01*
X192200Y373376D02*
X195276D01*
X202756Y354012D02*
X203769Y353000D01*
X202756Y354012D02*
Y358839D01*
X200793Y360802D02*
X202756Y358839D01*
X199835Y360802D02*
X200793D01*
X196697Y363939D02*
X199835Y360802D01*
X196500Y363939D02*
X196697D01*
X193764Y361400D02*
X196303Y363939D01*
X196500D01*
X186229Y361400D02*
X193764D01*
X140181Y354960D02*
X140721Y355500D01*
X141100D01*
X137328Y354960D02*
X140181D01*
X136999Y330000D02*
X137900D01*
X133107Y326107D02*
X136999Y330000D01*
X133126Y319395D02*
X133146Y319414D01*
X151039Y327893D02*
X154056D01*
X155841Y326107D01*
X160493Y329664D02*
X164002D01*
X158928Y328100D02*
X160493Y329664D01*
X157834Y328100D02*
X158928D01*
X155841Y326107D02*
X157834Y328100D01*
X160164Y293064D02*
X160300Y293200D01*
X160164Y287700D02*
Y293064D01*
X146575Y289859D02*
Y292335D01*
X144700Y288400D02*
X145116D01*
X146575Y289859D01*
Y292335D02*
X161883Y307643D01*
X144700Y288400D02*
X145400Y287700D01*
X140479Y292279D02*
X140700Y292500D01*
X140479Y287700D02*
Y292279D01*
X131200Y290700D02*
Y297766D01*
X130439Y298527D02*
X131200Y297766D01*
X152300Y293521D02*
Y294100D01*
X159500Y301300D02*
X163700D01*
X152300Y294100D02*
X159500Y301300D01*
X178700Y298300D02*
X178800Y298200D01*
X159600Y298300D02*
X178700D01*
X155300Y294000D02*
X159600Y298300D01*
X155243Y287700D02*
X155300Y287757D01*
Y294000D01*
X141900Y364913D02*
Y366000D01*
Y364913D02*
X142492Y364320D01*
X144100D01*
X145820Y362600D01*
X154431D01*
X151400Y375500D02*
X154631D01*
X150321Y287700D02*
X151496Y288875D01*
Y292717D01*
X156400Y385500D02*
X156500Y385600D01*
X151400Y385500D02*
X156400D01*
X141689Y332611D02*
X143536D01*
X139159Y335141D02*
Y337260D01*
Y335141D02*
X141689Y332611D01*
X143536D02*
X144612Y331535D01*
Y331338D02*
Y331535D01*
X134900Y332800D02*
X135163Y333063D01*
Y336948D01*
X135173Y344625D02*
X135658Y345111D01*
X135163Y344625D02*
X135173D01*
X135658Y345111D02*
Y350317D01*
X141715Y344885D02*
X141800Y344800D01*
X141715Y344885D02*
Y349438D01*
X135658Y353093D02*
X137328Y354763D01*
Y354960D01*
X135658Y350317D02*
Y353093D01*
X140319Y351362D02*
X140489D01*
X138891Y349700D02*
Y349935D01*
X140489Y351362D02*
X141715Y352588D01*
X138891Y349935D02*
X140319Y351362D01*
X141715Y352588D02*
X144213D01*
X132000Y349729D02*
X132588Y350317D01*
X132000Y343481D02*
Y349729D01*
Y343481D02*
X132641Y342839D01*
X133012D01*
X133785Y342066D01*
X135163D01*
X132407Y354960D02*
X132407Y354960D01*
Y354960D01*
X132588Y350317D02*
Y354779D01*
X132407Y354960D02*
X132588Y354779D01*
X187037Y327220D02*
X191161Y323097D01*
X187037Y327220D02*
Y328866D01*
X185747Y330156D02*
X187037Y328866D01*
X191161Y322900D02*
Y323097D01*
X138420Y377348D02*
X141552D01*
X146900Y372000D01*
X138234Y377534D02*
X138420Y377348D01*
X146900Y366000D02*
Y372000D01*
X135351Y383617D02*
X137207Y381761D01*
X133715Y383617D02*
X135351D01*
X137207Y381524D02*
Y381761D01*
X131900Y385432D02*
Y390000D01*
Y385432D02*
X133715Y383617D01*
X201295Y335742D02*
X201400D01*
X191863Y330156D02*
X195964D01*
X197371Y328749D01*
X197749D01*
X200005Y334452D02*
X201295Y335742D01*
X200005Y334347D02*
Y334452D01*
X199800Y334142D02*
X200005Y334347D01*
X199800Y330800D02*
Y334142D01*
X185747Y330156D02*
X188637D01*
X189272Y330791D01*
Y332325D01*
X190738Y333790D01*
X192556D01*
X194022Y335256D01*
Y337342D01*
X201295Y341858D02*
X201400D01*
X199337Y339900D02*
X201295Y341858D01*
X195399Y339900D02*
X199337D01*
X195399Y339901D02*
X195399Y339900D01*
X143900Y383524D02*
Y383900D01*
X146798Y386798D01*
X127400Y370500D02*
X128900D01*
X126604Y339548D02*
X127895Y338258D01*
X126549Y341549D02*
X126604Y341494D01*
X127895Y338258D02*
X128000D01*
X126604Y339548D02*
Y341494D01*
X128332Y343868D02*
X128600Y343600D01*
X128332Y343868D02*
Y345825D01*
X126500Y347657D02*
X128332Y345825D01*
X126500Y347657D02*
Y347853D01*
X134760Y387660D02*
X139820Y382600D01*
X139900D01*
X134760Y387660D02*
Y392340D01*
X130820Y393400D02*
X133700D01*
X134760Y392340D01*
X129000Y391580D02*
X130820Y393400D01*
X129000Y386092D02*
Y391580D01*
X128408Y385500D02*
X129000Y386092D01*
X127400Y385500D02*
X128408D01*
X146798Y389898D02*
X146900Y390000D01*
X146798Y386798D02*
Y389898D01*
X233760Y288327D02*
X234094Y287992D01*
X233760Y288327D02*
Y291142D01*
X189122Y160343D02*
Y163592D01*
X190853Y167456D02*
X191017Y167292D01*
Y166420D02*
Y167292D01*
X230948Y362411D02*
Y366120D01*
X199681Y156798D02*
X200400Y156079D01*
X199358Y160736D02*
X199681Y160413D01*
Y156798D02*
Y160413D01*
X200400Y155700D02*
Y156079D01*
X265632Y250268D02*
X265900Y250000D01*
X264391Y250268D02*
X265632D01*
X323742Y324100D02*
X324374Y324732D01*
Y326627D01*
X328737Y330990D01*
X260783Y321092D02*
X262400Y319475D01*
X259009Y323514D02*
Y323564D01*
Y323514D02*
X260783Y321740D01*
Y321092D02*
Y321740D01*
X291135Y382865D02*
X291900Y382100D01*
X288500Y382865D02*
X291135D01*
X291765Y385935D02*
X292100Y385600D01*
X288500Y385935D02*
X291765D01*
X281632Y358168D02*
X281900Y357900D01*
X281632Y361825D02*
X281900D01*
X281632Y358168D02*
Y361825D01*
X281178Y362547D02*
X281900Y361825D01*
X278320Y362547D02*
X281178D01*
X270076Y362700D02*
X270153Y362624D01*
X278244D01*
X278320Y362547D01*
X263447Y367547D02*
X278320D01*
X258714Y362814D02*
X263447Y367547D01*
X298971Y184746D02*
Y187729D01*
X296600Y190100D02*
X298971Y187729D01*
Y184746D02*
X300146Y183571D01*
X319800Y309291D02*
X322663D01*
X316796D02*
X319800D01*
Y312598D02*
X322466D01*
X316993D02*
X319800D01*
X290117Y325185D02*
X290210Y325278D01*
X277208Y328232D02*
X280161Y325278D01*
X276768Y328232D02*
X277208D01*
X287285Y325185D02*
X290117D01*
X291442Y327091D02*
X291996Y326537D01*
X283705Y325278D02*
X285518Y327091D01*
X276500Y328500D02*
X276768Y328232D01*
X287191Y325091D02*
X287285Y325185D01*
X283705Y318585D02*
Y322129D01*
X280161Y318585D02*
Y322129D01*
X271666Y335366D02*
Y339106D01*
X305900Y320342D02*
X308503Y317739D01*
X308700D01*
X305900Y320342D02*
Y323181D01*
X303802Y325278D02*
X305900Y323181D01*
X306258Y330895D02*
X308700Y328453D01*
X310700Y326979D02*
X311723Y328002D01*
X310700Y326600D02*
Y326979D01*
X308700Y322661D02*
Y328453D01*
X311723Y328002D02*
Y330513D01*
X313217Y316700D02*
X315800D01*
X312177Y317739D02*
X313217Y316700D01*
X308700Y317739D02*
X312177D01*
X316227Y319463D02*
X317303Y320539D01*
X315961Y319000D02*
X316227Y319266D01*
X317303Y320539D02*
X317500D01*
X316227Y319266D02*
Y319463D01*
X315961Y316861D02*
Y319000D01*
X315800Y316700D02*
X315961Y316861D01*
X306258Y330895D02*
Y331000D01*
X193600Y260500D02*
Y260824D01*
X195866Y263091D01*
X325832Y309271D02*
X329971D01*
X330000Y309300D01*
X308200Y288490D02*
Y296300D01*
X307789Y288079D02*
X308200Y288490D01*
X322300Y293800D02*
X322553Y293547D01*
Y288079D02*
Y293547D01*
X326961Y338821D02*
Y340110D01*
Y337532D02*
Y338821D01*
X325421D02*
X326961D01*
X325300Y338700D02*
X325421Y338821D01*
X327127Y334044D02*
X328261D01*
X323300Y337872D02*
Y343874D01*
X328261Y334044D02*
X328747Y333558D01*
X322626Y344548D02*
X323300Y343874D01*
Y337872D02*
X327127Y334044D01*
X310250Y345200D02*
X310454Y344997D01*
X308601Y346849D02*
X309677Y345773D01*
X310250Y345200D01*
X313500D01*
X321263Y390065D02*
X321856Y389473D01*
X320735Y390065D02*
X321263D01*
X321856Y388027D02*
Y389473D01*
X309469Y392500D02*
X318300D01*
X320735Y390065D01*
X304900Y387931D02*
X309469Y392500D01*
X304900Y378984D02*
X306616D01*
X295616D02*
X304900D01*
Y387931D01*
X296773Y368527D02*
X312356D01*
X291700Y373600D02*
X296773Y368527D01*
X291700Y294300D02*
X293025Y292975D01*
Y288079D02*
Y292975D01*
X294600Y295200D02*
X297947Y291853D01*
Y288079D02*
Y291853D01*
X295200Y379400D02*
X295616Y378984D01*
X306616D02*
X307073Y378527D01*
X312356D01*
X294205Y350425D02*
X294400Y350619D01*
Y356900D01*
X287900Y288283D02*
X288104Y288079D01*
X287900Y288283D02*
Y292727D01*
X288000Y303400D02*
X308000D01*
X310084Y305484D01*
Y309271D01*
X322663Y309291D02*
X322682Y309271D01*
X316777Y309310D02*
X316796Y309291D01*
X316777Y312381D02*
X316993Y312598D01*
X322466D02*
X322682Y312814D01*
X325832Y309271D02*
Y312814D01*
X336700Y320100D02*
X337032Y319768D01*
Y317356D02*
Y319768D01*
X311723Y330513D02*
X312209Y330999D01*
X313392D01*
X326961Y337532D02*
X327889Y336603D01*
X329639D02*
X330124Y336117D01*
X327547Y340697D02*
Y344548D01*
X326961Y340110D02*
X327547Y340697D01*
X327889Y336603D02*
X329639D01*
X325503Y355900D02*
X330100D01*
X336356Y360544D02*
Y368527D01*
X332700Y356889D02*
X336356Y360544D01*
X332700Y356600D02*
Y356889D01*
X329852Y356052D02*
X329948D01*
X319056Y362347D02*
X325503Y355900D01*
X329948Y356052D02*
X330100Y355900D01*
X316856Y362939D02*
X317448Y362347D01*
X319056D01*
X316856Y362939D02*
Y364027D01*
X300002Y338940D02*
X300242Y338700D01*
X300002Y338940D02*
Y341227D01*
X300142Y331000D02*
X301432Y332290D01*
X302833Y336532D02*
Y340868D01*
X301432Y335132D02*
X302833Y336532D01*
X301432Y332290D02*
Y335132D01*
X331856Y364027D02*
Y368544D01*
X329000Y371400D02*
X331856Y368544D01*
X316856Y384244D02*
Y388027D01*
Y384244D02*
X327300Y373800D01*
X332554Y322038D02*
Y322840D01*
X330417Y319900D02*
X332554Y322038D01*
X329847Y319900D02*
X330417D01*
X328500Y316950D02*
X329771D01*
X330421Y317600D01*
X326431Y316756D02*
X327837Y315350D01*
X326431Y316756D02*
Y318747D01*
X328031Y318084D02*
X329847Y319900D01*
X326431Y318747D02*
X329258Y321573D01*
X330421Y317600D02*
X330800D01*
X327837Y315350D02*
X329771D01*
X330421Y314700D02*
X330800D01*
X328031Y317419D02*
X328500Y316950D01*
X334692Y324978D02*
X335527D01*
X329258Y321573D02*
Y323500D01*
X329771Y315350D02*
X330421Y314700D01*
X328031Y317419D02*
Y318084D01*
X329258Y323500D02*
X329858Y324100D01*
X332554Y322840D02*
X334692Y324978D01*
X335527D02*
X336817Y326268D01*
X328429Y377100D02*
X334856Y383527D01*
X321856Y371156D02*
X324100Y373400D01*
X321856Y364027D02*
Y371156D01*
X126500Y354546D02*
X127360Y353686D01*
X131331D01*
X132407Y354763D02*
Y354960D01*
X131331Y353686D02*
X132407Y354763D01*
X128000Y332142D02*
X128105D01*
X130695Y334733D01*
Y338503D01*
X131700Y339507D02*
X136541D01*
X130695Y338503D02*
X131700Y339507D01*
X281115Y333495D02*
Y333692D01*
X280039Y334769D02*
X281115Y333692D01*
X279842Y334769D02*
X280039D01*
X277400Y337210D02*
Y337680D01*
Y337210D02*
X279842Y334769D01*
X273901Y341179D02*
X277400Y337680D01*
X307132Y339474D02*
Y343200D01*
X306358Y338700D02*
X307132Y339474D01*
X304756Y345773D02*
X305187Y346204D01*
Y350004D01*
X305287Y350104D01*
X308358D02*
X308601Y349861D01*
Y346849D02*
Y349861D01*
X310454Y340237D02*
Y344997D01*
Y340237D02*
X312014Y338676D01*
X313392D01*
X304756Y345576D02*
X307132Y343200D01*
X304756Y345576D02*
Y345773D01*
X338500Y338000D02*
Y342161D01*
X337461Y343200D02*
X338500Y342161D01*
X312906Y336603D02*
X313392Y336117D01*
X310876Y336603D02*
X312906D01*
X308780Y338700D02*
X310876Y336603D01*
X306358Y338700D02*
X308780D01*
X311963Y333558D02*
X314770D01*
X311528Y333124D02*
X311963Y333558D01*
X309928Y333124D02*
X311528D01*
X309200Y332396D02*
X309928Y333124D01*
X307548Y332396D02*
X309200D01*
X306258Y331105D02*
X307548Y332396D01*
X306258Y331000D02*
Y331105D01*
X332244Y343200D02*
X333120Y342324D01*
Y340294D02*
Y342324D01*
X331502Y338676D02*
X333120Y340294D01*
X330124Y338676D02*
X331502D01*
X323551Y345473D02*
Y348879D01*
X322626Y344548D02*
X323551Y345473D01*
X326622Y345473D02*
Y348879D01*
Y345473D02*
X327547Y344548D01*
X328747Y333558D02*
X335643D01*
X328737Y330990D02*
X329353D01*
X271180Y342150D02*
X272152Y341179D01*
X291996Y326065D02*
Y326537D01*
X293439Y325593D02*
X293754Y325278D01*
X292468Y325593D02*
X293439D01*
X291996Y326065D02*
X292468Y325593D01*
X286036Y333298D02*
Y333495D01*
X162729Y328588D02*
X162926Y328785D01*
Y328988D01*
X316560Y312598D02*
X316777Y312381D01*
X313234Y312814D02*
X313450Y312598D01*
X316560D01*
X260860Y253799D02*
X264391Y250268D01*
X260860Y253799D02*
Y254587D01*
X312963Y293778D02*
Y293876D01*
X312710Y293525D02*
X312963Y293778D01*
X327474Y294017D02*
X327530Y294073D01*
X335643Y333558D02*
X336818Y332384D01*
X274088Y347826D02*
Y352787D01*
X278064Y351606D02*
X281849D01*
X282826Y352584D02*
Y352635D01*
X281849Y351606D02*
X282826Y352584D01*
Y346795D02*
Y352584D01*
X268910Y356921D02*
Y357117D01*
X274088Y352787D02*
Y356861D01*
X269987Y355844D02*
X270183D01*
X271017Y355010D01*
Y352787D02*
Y355010D01*
X273832Y357117D02*
X274088Y356861D01*
X268910Y356921D02*
X269987Y355844D01*
X271666Y346783D02*
X271720Y346729D01*
X271666Y346783D02*
X273044D01*
X274088Y347826D01*
X284839Y341665D02*
X288399D01*
X284084Y339111D02*
X286036Y337159D01*
X271720Y346729D02*
X277534D01*
X277588Y346675D01*
X282706D02*
X282826Y346795D01*
X284783Y344224D02*
X288399D01*
X284084Y342419D02*
Y343525D01*
Y342419D02*
X284839Y341665D01*
X284084Y343525D02*
X284783Y344224D01*
X286036Y333495D02*
Y337159D01*
X288338Y352635D02*
X288399Y352575D01*
Y346783D02*
Y352575D01*
X272152Y341179D02*
X273901D01*
X284084Y339111D02*
Y342419D01*
X327474Y288079D02*
Y294017D01*
X317294Y288417D02*
X317632Y288079D01*
X312710D02*
Y293525D01*
X317294Y288417D02*
Y294172D01*
X302868Y288079D02*
Y292664D01*
X301818Y293713D02*
X302868Y292664D01*
X165032Y311186D02*
X165249Y310969D01*
X168359D01*
X168576Y310753D01*
X165032Y307643D02*
X165052Y307663D01*
X136433Y319631D02*
Y322741D01*
X136650Y322958D01*
X133107D02*
X133126Y322938D01*
Y319434D02*
Y322938D01*
Y319434D02*
X133146Y319414D01*
X194022Y345019D02*
Y349657D01*
X170360Y345471D02*
X171679Y346790D01*
X171344Y342401D02*
X171876Y341869D01*
X173357Y345487D02*
Y345506D01*
X171679Y346790D02*
X172073D01*
X171876Y341869D02*
X172466Y342460D01*
X172073Y346790D02*
X173357Y345506D01*
X173297Y336364D02*
X174032Y337099D01*
X170196Y336364D02*
X170301D01*
X168417Y334586D02*
X170196Y336364D01*
X170301D02*
X173297D01*
X177289Y339901D02*
X177775Y339415D01*
X174032Y337099D02*
Y338392D01*
X176803Y339415D02*
X177289Y339901D01*
X174032Y338392D02*
X175054Y339415D01*
X176803D01*
X173825Y345019D02*
X177289D01*
X172466Y342460D02*
X178667D01*
X173357Y345487D02*
X173825Y345019D01*
X167545Y342401D02*
X171344D01*
X167545Y345393D02*
Y345471D01*
X164002Y334586D02*
X168417D01*
X200281Y351590D02*
X200677Y351194D01*
X200858Y351013D01*
X195165Y350801D02*
Y351194D01*
X194022Y349657D02*
X195165Y350801D01*
X200281Y351590D02*
Y356694D01*
X136541Y339507D02*
X137314Y338734D01*
X146377Y340223D02*
X148221Y342066D01*
X137314Y338734D02*
X137686D01*
X146377D02*
Y340223D01*
X144213Y352588D02*
X146324Y350477D01*
X151896Y344625D02*
Y350417D01*
X151835Y350477D02*
X151896Y350417D01*
X146377Y334691D02*
X149533Y331535D01*
X146377Y334691D02*
Y338734D01*
X148221Y342066D02*
X151896D01*
X137686Y338734D02*
X139159Y337260D01*
X150518Y339507D02*
X151896D01*
X146377Y338734D02*
X149744D01*
X150518Y339507D01*
X262428Y200820D02*
X262500Y200748D01*
X262428Y200820D02*
Y205300D01*
X241310Y225040D02*
X244813D01*
X245513Y225740D01*
X240384Y224114D02*
X241310Y225040D01*
X240059Y224114D02*
X240384D01*
X206700Y158800D02*
X206720Y158820D01*
Y160910D02*
X206740Y160930D01*
X206720Y158820D02*
Y160910D01*
X278445Y157874D02*
Y158037D01*
X277400Y159082D02*
X278445Y158037D01*
X247882Y135827D02*
X247933D01*
X236053Y123998D02*
X247882Y135827D01*
X236002Y123998D02*
X236053D01*
X201334Y153700D02*
X206412Y148622D01*
X212795D01*
X199572Y153700D02*
X201334D01*
X199256Y154016D02*
X199572Y153700D01*
X195827Y154016D02*
X199256D01*
X125315Y213464D02*
X125316Y213466D01*
Y215816D01*
X125318Y215818D01*
X191017Y166420D02*
X193059Y164378D01*
X155566Y158563D02*
X177854D01*
X151018Y154016D02*
X155566Y158563D01*
X193059Y164378D02*
X193059D01*
X321250Y160675D02*
X321500Y160925D01*
X321250Y159150D02*
Y160675D01*
X321000Y158900D02*
X321250Y159150D01*
X215650Y132283D02*
X224590D01*
X222111Y130300D02*
X228000D01*
X215827Y124016D02*
X222111Y130300D01*
X215827Y124016D02*
X215827D01*
X224590Y132283D02*
X224606Y132300D01*
X197361Y148700D02*
X201900D01*
X195929Y150132D02*
X197361Y148700D01*
X254117Y194518D02*
X257506Y197907D01*
X170780Y214579D02*
X171555Y215354D01*
X170780Y213858D02*
Y214579D01*
X170294Y213372D02*
X170780Y213858D01*
X171555Y216303D02*
X172166Y216913D01*
X171555Y215354D02*
Y216303D01*
X173837Y213372D02*
X180139D01*
X180231Y213464D02*
Y213670D01*
X180139Y213372D02*
X180231Y213464D01*
X269384Y237559D02*
X270625Y238800D01*
X263335Y237559D02*
X269384D01*
X191667Y228959D02*
Y231533D01*
X271400Y149800D02*
Y150179D01*
X277441Y147800D02*
X278853Y149213D01*
X268689Y149683D02*
Y151311D01*
X270437Y151142D02*
X271400Y150179D01*
X266002Y153998D02*
X268689Y151311D01*
X270572Y147800D02*
X277441D01*
X270437Y151142D02*
Y160962D01*
X268689Y149683D02*
X270572Y147800D01*
X266002Y153998D02*
X266002D01*
X278853Y149213D02*
X279232D01*
X270437Y160962D02*
X270500Y161025D01*
X224331Y367617D02*
X224420Y367706D01*
X223395Y364469D02*
X224331Y365404D01*
Y367617D01*
X341787Y164087D02*
X341800Y164075D01*
X213484Y130118D02*
X215650Y132283D01*
X255666Y133661D02*
X261319D01*
X246002Y123998D02*
X255666Y133661D01*
X279134Y131201D02*
X281496Y133563D01*
X266847Y134843D02*
X268110D01*
X256002Y123998D02*
X266847Y134843D01*
X191667Y157634D02*
Y158067D01*
X192573Y158973D01*
Y160349D01*
X193059Y160835D01*
X247234Y359009D02*
X247628Y359403D01*
X182410Y159968D02*
Y163472D01*
X182390Y159949D02*
X182410Y159968D01*
X197046Y232286D02*
X197833Y231499D01*
X198719D01*
X194506Y232286D02*
X197046D01*
X194403Y229578D02*
Y232183D01*
X194300Y229475D02*
X194403Y229578D01*
Y232183D02*
X194506Y232286D01*
X191667Y228959D02*
X194300Y226325D01*
X153853Y214485D02*
X155960D01*
X156058Y214386D01*
X152141Y212772D02*
X153853Y214485D01*
X155881Y216945D02*
X156058D01*
X155308Y216372D02*
X155881Y216945D01*
X151337Y216372D02*
X155308D01*
X235010Y159449D02*
Y160661D01*
X232590Y159449D02*
X235010D01*
X227139Y153998D02*
X232590Y159449D01*
X196683Y258121D02*
X196707Y258145D01*
X200468D01*
X200492Y258169D01*
X92839Y193202D02*
X93366Y193729D01*
X99089D01*
X99716Y193102D01*
X101195D02*
X101972Y192324D01*
X99716Y193102D02*
X101195D01*
X91298Y191412D02*
X91455D01*
X104624Y186202D02*
Y190920D01*
X103220Y192324D02*
X104624Y190920D01*
X101972Y192324D02*
X103220D01*
X124829Y210801D02*
X125315Y210315D01*
X123609Y210801D02*
X124829D01*
X121851Y212559D02*
X123609Y210801D01*
X119291Y212559D02*
X121851D01*
X257506Y197907D02*
Y205300D01*
X166929Y239042D02*
X170466Y242579D01*
X175591D01*
X175984Y230118D02*
Y232500D01*
X174443Y225575D02*
X180139D01*
X180231Y225483D01*
Y224930D02*
Y225483D01*
X171582Y224892D02*
X172166Y224308D01*
X171385Y224892D02*
X171582D01*
X172166Y222031D02*
Y224308D01*
X170899Y225378D02*
X171385Y224892D01*
X170899Y225378D02*
Y225575D01*
X199075Y207245D02*
X199231Y207089D01*
X195330Y207245D02*
X199075D01*
X195175Y207400D02*
X195330Y207245D01*
X188263Y207772D02*
X188435Y207600D01*
X188263Y207772D02*
Y210359D01*
X122900Y231391D02*
X125689Y228602D01*
X105863Y196002D02*
X109256Y199394D01*
X116634Y206837D02*
X117356Y207559D01*
X119291D01*
X116634Y203937D02*
Y206837D01*
X92839Y192795D02*
Y193202D01*
X91455Y191412D02*
X92839Y192795D01*
X102459Y184037D02*
X104624Y186202D01*
X97741Y185906D02*
Y186497D01*
X98522Y187278D01*
X98620D01*
X94782Y182947D02*
X97741Y185906D01*
X94388Y182947D02*
X94585D01*
X94782D01*
X90231Y187020D02*
Y190345D01*
X91298Y191412D01*
X81634Y174397D02*
Y178198D01*
X81521Y178312D02*
X81634Y178198D01*
Y174397D02*
X81747Y174283D01*
X87466Y173826D02*
X87695Y173597D01*
X85551Y173826D02*
X87466D01*
X84921Y178907D02*
X85007Y178820D01*
Y174370D02*
Y178820D01*
Y174370D02*
X85551Y173826D01*
X87755Y181860D02*
X89021Y180595D01*
Y180516D02*
Y180595D01*
X84921Y181860D02*
X87755D01*
X90207Y178317D02*
X90614D01*
X93213Y180916D01*
Y181772D02*
X94388Y182947D01*
X89021Y177051D02*
Y177130D01*
X90207Y178317D01*
X93213Y180916D02*
Y181772D01*
X81747Y174283D02*
X81846D01*
X83013Y173117D01*
X100787Y212559D02*
X107028D01*
X107677Y211910D01*
X100787Y217559D02*
X106555D01*
X109715Y208071D02*
Y214399D01*
X103000Y201356D02*
X109715Y208071D01*
X338500Y164100D02*
X338513Y164087D01*
X341787D01*
X331700Y164075D02*
X335100D01*
X325915Y124234D02*
X331110Y129429D01*
X323083Y159108D02*
X324900Y160925D01*
X314272Y160797D02*
X314500Y161025D01*
X314272Y157168D02*
Y160797D01*
X306002Y153998D02*
X311101D01*
X314272Y157168D01*
X296002Y153998D02*
X300394Y149606D01*
X310039D01*
X301378Y157587D02*
Y157677D01*
Y157587D02*
X301584Y157380D01*
X300539Y158516D02*
X301378Y157677D01*
X300539Y158516D02*
Y160736D01*
X296996D02*
X298524Y159209D01*
Y157874D02*
Y159209D01*
X283563Y158268D02*
X283865Y157966D01*
X283563Y158268D02*
Y158268D01*
X285979Y157966D02*
X286447Y158435D01*
X283865Y157966D02*
X285979D01*
X286447Y158435D02*
Y160736D01*
X281000Y160825D02*
X281251Y160574D01*
Y155173D02*
Y160574D01*
Y155173D02*
X281502Y154921D01*
X277400Y159082D02*
Y160825D01*
X261811Y157579D02*
X262057Y157825D01*
Y161130D01*
X246002Y153998D02*
X246457Y153543D01*
X252134D01*
X252602Y154012D02*
Y155406D01*
X252134Y153543D02*
X252602Y154012D01*
X254823Y157626D02*
Y158071D01*
X252602Y155406D02*
X254823Y157626D01*
Y158071D02*
X255364Y158612D01*
Y161130D01*
X248891Y158196D02*
Y161104D01*
Y158196D02*
X248917Y158169D01*
X248865Y161130D02*
X248891Y161104D01*
X228590Y159693D02*
X229811D01*
X231248Y161130D01*
X228346Y159449D02*
X228590Y159693D01*
X217469Y157531D02*
Y160736D01*
Y157531D02*
X220276Y154724D01*
X240945Y156988D02*
X242272Y158315D01*
Y161130D01*
X238993Y156988D02*
X240945D01*
X236002Y153998D02*
X238993Y156988D01*
X209121Y150722D02*
X213901D01*
X215608Y149016D02*
X219685D01*
X205827Y154016D02*
X209121Y150722D01*
X213901D02*
X215608Y149016D01*
X225343Y159218D02*
Y161130D01*
X224080Y157956D02*
X225343Y159218D01*
X205827Y124016D02*
X206808D01*
X212911Y130118D01*
X213484D01*
X189227Y127416D02*
X207239D01*
X185827Y124016D02*
X189227Y127416D01*
X207239D02*
X209744Y129921D01*
X209904Y157168D02*
Y160652D01*
X209988Y160736D01*
X209819Y157084D02*
X209904Y157168D01*
X181398Y129724D02*
X182185Y130512D01*
X196161D01*
X181398Y129587D02*
Y129724D01*
X175827Y124016D02*
X181398Y129587D01*
X212894Y159782D02*
X213046Y159934D01*
X212894Y157480D02*
Y159782D01*
X213046Y160250D02*
X213531Y160736D01*
X213046Y159934D02*
Y160250D01*
X185827Y154016D02*
X189711Y150132D01*
X195929D01*
X174587Y132776D02*
X190748D01*
X165827Y124016D02*
X174587Y132776D01*
X235010Y160661D02*
X235479Y161130D01*
X226002Y153998D02*
X227139D01*
X181398Y156496D02*
X181704Y156802D01*
X182432D02*
X185972Y160343D01*
X181704Y156802D02*
X182432D01*
X180118Y145079D02*
Y145463D01*
X169103Y145932D02*
X179649D01*
X180118Y145463D01*
X161018Y154016D02*
X169103Y145932D01*
X155827Y154016D02*
X161018D01*
X171811Y148032D02*
X190453D01*
X165827Y154016D02*
X171811Y148032D01*
X177854Y158563D02*
X179240Y159949D01*
X145827Y154016D02*
X151018D01*
X135827D02*
X136122Y153720D01*
X203839Y286713D02*
X203937Y286811D01*
X200295Y286713D02*
X203839D01*
X224420Y381015D02*
X225295Y381890D01*
X224420Y378494D02*
Y381015D01*
X251220Y375138D02*
Y378051D01*
X229539Y367529D02*
X230948Y366120D01*
X229539Y367529D02*
Y367706D01*
X227192Y362820D02*
Y367494D01*
Y362820D02*
X227405Y362608D01*
X226980Y367706D02*
X227192Y367494D01*
D16*
X108952Y241836D02*
X109148D01*
X106600Y244188D02*
Y247000D01*
Y244188D02*
X108952Y241836D01*
X111500Y244188D02*
Y246900D01*
X109148Y241836D02*
X111500Y244188D01*
X245000Y375600D02*
Y379141D01*
X242648Y381494D02*
X245000Y379141D01*
X242126Y381494D02*
X242648D01*
X239500Y375600D02*
Y379141D01*
X241852Y381494D02*
X242126D01*
X239500Y379141D02*
X241852Y381494D01*
D17*
X303095Y216130D02*
X303800Y215425D01*
X303095Y216130D02*
Y220240D01*
X306700Y215856D02*
Y216180D01*
X307417Y216898D02*
Y219752D01*
X306700Y216180D02*
X307417Y216898D01*
X303800Y215100D02*
Y215425D01*
X307417Y219752D02*
X308076Y220411D01*
Y224232D01*
X303024Y220311D02*
X303095Y220240D01*
X303074Y225426D02*
X303147Y225500D01*
X303074Y220361D02*
Y225426D01*
X303024Y220311D02*
X303074Y220361D01*
X308076Y224232D02*
X308140Y224295D01*
X308340D01*
X309053Y225008D01*
Y225500D01*
X303000Y220335D02*
X303024Y220311D01*
X334856Y383527D02*
X336356D01*
X327200Y377100D02*
X328429D01*
D26*
X383900Y255775D02*
D03*
Y252625D02*
D03*
X337200Y237225D02*
D03*
Y240375D02*
D03*
X345400Y245275D02*
D03*
Y242125D02*
D03*
X272100Y217675D02*
D03*
Y214525D02*
D03*
X227405Y359261D02*
D03*
Y362411D02*
D03*
X293100Y218775D02*
D03*
Y215625D02*
D03*
X199358Y160736D02*
D03*
Y163886D02*
D03*
X206740Y164079D02*
D03*
Y160930D02*
D03*
X209988Y160736D02*
D03*
Y163886D02*
D03*
X213531Y163886D02*
D03*
Y160736D02*
D03*
X217469Y163886D02*
D03*
Y160736D02*
D03*
X225342Y161130D02*
D03*
Y164279D02*
D03*
X231248Y161130D02*
D03*
Y164279D02*
D03*
X235479Y164279D02*
D03*
Y161130D02*
D03*
X242272Y164279D02*
D03*
Y161130D02*
D03*
X248865Y161130D02*
D03*
Y164279D02*
D03*
X255364Y164279D02*
D03*
Y161130D02*
D03*
X262057Y161130D02*
D03*
Y164279D02*
D03*
X270500Y161025D02*
D03*
Y164175D02*
D03*
X277400Y163975D02*
D03*
Y160825D02*
D03*
X281000Y160825D02*
D03*
Y163975D02*
D03*
X286447Y163886D02*
D03*
Y160736D02*
D03*
X296996Y163886D02*
D03*
Y160736D02*
D03*
X300539Y160736D02*
D03*
Y163886D02*
D03*
X307526Y163886D02*
D03*
Y160736D02*
D03*
X314500Y164175D02*
D03*
Y161025D02*
D03*
X321500Y160925D02*
D03*
Y164075D02*
D03*
X324900Y164075D02*
D03*
Y160925D02*
D03*
X331700Y160925D02*
D03*
Y164075D02*
D03*
X338500Y160950D02*
D03*
Y164100D02*
D03*
X238728Y164279D02*
D03*
Y161130D02*
D03*
X245521Y164279D02*
D03*
Y161130D02*
D03*
X258613Y161130D02*
D03*
Y164279D02*
D03*
X335100Y164075D02*
D03*
Y160925D02*
D03*
X318000Y164175D02*
D03*
Y161025D02*
D03*
X341800Y160925D02*
D03*
Y164075D02*
D03*
X265306Y164279D02*
D03*
Y161130D02*
D03*
X311200Y164150D02*
D03*
Y161000D02*
D03*
X274000Y164175D02*
D03*
Y161025D02*
D03*
X203346Y163583D02*
D03*
Y160433D02*
D03*
X289990Y160736D02*
D03*
Y163886D02*
D03*
X221012Y163886D02*
D03*
Y160736D02*
D03*
X328300Y160925D02*
D03*
Y164075D02*
D03*
X303789Y163886D02*
D03*
Y160736D02*
D03*
X252114Y161130D02*
D03*
Y164279D02*
D03*
X200492Y255020D02*
D03*
Y258169D02*
D03*
X185138Y229134D02*
D03*
Y232283D02*
D03*
X194300Y229475D02*
D03*
Y226325D02*
D03*
X194506Y232286D02*
D03*
Y235436D02*
D03*
X125315Y213464D02*
D03*
Y210315D02*
D03*
X218200Y215325D02*
D03*
Y218475D02*
D03*
X292200Y244275D02*
D03*
Y241125D02*
D03*
X293100Y222925D02*
D03*
Y226075D02*
D03*
X262400Y316325D02*
D03*
Y319475D02*
D03*
X223600Y361075D02*
D03*
Y357925D02*
D03*
X230948Y359261D02*
D03*
Y362411D02*
D03*
X133107Y326107D02*
D03*
Y322958D02*
D03*
X142849Y326207D02*
D03*
Y323058D02*
D03*
X152298Y326107D02*
D03*
Y322958D02*
D03*
X280161Y322129D02*
D03*
Y325278D02*
D03*
X290210Y322129D02*
D03*
Y325278D02*
D03*
X300259Y322129D02*
D03*
Y325278D02*
D03*
X136650Y326107D02*
D03*
Y322958D02*
D03*
X146392Y326207D02*
D03*
Y323058D02*
D03*
X155841Y326107D02*
D03*
Y322958D02*
D03*
X283705Y322129D02*
D03*
Y325278D02*
D03*
X293754Y322129D02*
D03*
Y325278D02*
D03*
X303802Y322129D02*
D03*
Y325278D02*
D03*
X293500Y163850D02*
D03*
Y160700D02*
D03*
X210300Y307275D02*
D03*
Y304125D02*
D03*
X214200Y307375D02*
D03*
Y304225D02*
D03*
D27*
X387200Y254776D02*
D03*
Y251824D02*
D03*
X90231Y183968D02*
D03*
Y186921D02*
D03*
X203937Y286909D02*
D03*
Y289862D02*
D03*
X270438Y242495D02*
D03*
Y245448D02*
D03*
X277918Y242495D02*
D03*
Y245448D02*
D03*
X285299Y242495D02*
D03*
Y245448D02*
D03*
D28*
X336425Y247100D02*
D03*
X339575D02*
D03*
X336525Y243900D02*
D03*
X339675D02*
D03*
X385575Y218000D02*
D03*
X382425D02*
D03*
X355325Y140000D02*
D03*
X358475D02*
D03*
X355325Y143200D02*
D03*
X358475D02*
D03*
X191625Y212400D02*
D03*
X194775D02*
D03*
X182390Y159949D02*
D03*
X179240D02*
D03*
X189122Y160343D02*
D03*
X185972D02*
D03*
X196209Y164378D02*
D03*
X193059D02*
D03*
X193059Y160835D02*
D03*
X196209D02*
D03*
X182429Y163492D02*
D03*
X179279D02*
D03*
X189122Y163592D02*
D03*
X185972D02*
D03*
X270625Y238800D02*
D03*
X273775D02*
D03*
X171096Y225575D02*
D03*
X174246D02*
D03*
X170491Y213372D02*
D03*
X173641D02*
D03*
X148991Y212772D02*
D03*
X152141D02*
D03*
X203075Y220300D02*
D03*
X199925D02*
D03*
X209467Y221656D02*
D03*
X206317D02*
D03*
X98719Y187278D02*
D03*
X101868D02*
D03*
X192025Y207400D02*
D03*
X195175D02*
D03*
X239075Y212700D02*
D03*
X235925D02*
D03*
X263275Y211600D02*
D03*
X260125D02*
D03*
X285725Y233700D02*
D03*
X288875D02*
D03*
X299975Y225100D02*
D03*
X296825D02*
D03*
X297550Y251900D02*
D03*
X300700D02*
D03*
X161883Y307643D02*
D03*
X165032D02*
D03*
X313234Y309271D02*
D03*
X310084D02*
D03*
X161883Y311186D02*
D03*
X165032D02*
D03*
X313234Y312814D02*
D03*
X310084D02*
D03*
X219200Y292800D02*
D03*
X216050D02*
D03*
D29*
X384700Y246264D02*
D03*
Y241536D02*
D03*
X176700Y265164D02*
D03*
Y260436D02*
D03*
X317200Y261136D02*
D03*
Y265864D02*
D03*
D30*
X377665Y242200D02*
D03*
X380735D02*
D03*
X368265Y252600D02*
D03*
X371335D02*
D03*
X325465Y228634D02*
D03*
X322394D02*
D03*
X111965Y227700D02*
D03*
X115035D02*
D03*
X322787Y248713D02*
D03*
X325858D02*
D03*
D31*
X383100Y222525D02*
D03*
Y225675D02*
D03*
X382400Y237575D02*
D03*
Y234425D02*
D03*
X273688Y245546D02*
D03*
Y242397D02*
D03*
X281462Y245546D02*
D03*
Y242397D02*
D03*
X288548Y245546D02*
D03*
Y242397D02*
D03*
X266100Y229625D02*
D03*
Y232775D02*
D03*
X214589Y231991D02*
D03*
Y228841D02*
D03*
X193900Y222475D02*
D03*
Y219325D02*
D03*
X212992Y238976D02*
D03*
Y242126D02*
D03*
X255610Y256299D02*
D03*
Y259449D02*
D03*
X196500Y367975D02*
D03*
Y364825D02*
D03*
X288500Y385975D02*
D03*
Y382825D02*
D03*
X182800Y378125D02*
D03*
Y381275D02*
D03*
X291800Y261925D02*
D03*
Y265075D02*
D03*
X274127Y352787D02*
D03*
X270977D02*
D03*
X135698Y350317D02*
D03*
X132548D02*
D03*
X326661Y348879D02*
D03*
X323512D02*
D03*
X189775Y354900D02*
D03*
X186625D02*
D03*
X308398Y350104D02*
D03*
X305248D02*
D03*
X278064Y351606D02*
D03*
Y354755D02*
D03*
X141715Y349438D02*
D03*
Y352588D02*
D03*
X232677Y231299D02*
D03*
Y234449D02*
D03*
X269400Y228625D02*
D03*
Y231775D02*
D03*
X175591Y242539D02*
D03*
Y245689D02*
D03*
X344100Y181525D02*
D03*
Y184675D02*
D03*
Y178575D02*
D03*
Y175425D02*
D03*
X313300Y191625D02*
D03*
Y194775D02*
D03*
X196684Y258161D02*
D03*
Y255011D02*
D03*
X190300Y222375D02*
D03*
Y219225D02*
D03*
X136650Y310159D02*
D03*
Y313309D02*
D03*
X146392Y310259D02*
D03*
Y313409D02*
D03*
X155841Y310159D02*
D03*
Y313309D02*
D03*
X283705Y312480D02*
D03*
Y309330D02*
D03*
X293754Y312480D02*
D03*
Y309330D02*
D03*
X303802Y312480D02*
D03*
Y309330D02*
D03*
X133107Y310159D02*
D03*
Y313309D02*
D03*
X142849Y310259D02*
D03*
Y313409D02*
D03*
X152298Y310159D02*
D03*
Y313309D02*
D03*
X280161Y312480D02*
D03*
Y309330D02*
D03*
X290210Y312480D02*
D03*
Y309330D02*
D03*
X300259Y312480D02*
D03*
Y309330D02*
D03*
X273200Y264075D02*
D03*
Y260925D02*
D03*
X211300Y388250D02*
D03*
Y391400D02*
D03*
D32*
X380700Y252465D02*
D03*
Y255535D02*
D03*
D33*
X350573Y212560D02*
D03*
X352542D02*
D03*
X354510D02*
D03*
X356479D02*
D03*
X358447D02*
D03*
X360416D02*
D03*
X362384D02*
D03*
X364353D02*
D03*
X366321D02*
D03*
X368290D02*
D03*
X370258D02*
D03*
X372227D02*
D03*
Y245040D02*
D03*
X370258D02*
D03*
X368290D02*
D03*
X366321D02*
D03*
X364353D02*
D03*
X362384D02*
D03*
X360416D02*
D03*
X358447D02*
D03*
X356479D02*
D03*
X354510D02*
D03*
X352542D02*
D03*
X350573D02*
D03*
D34*
X377640Y217973D02*
D03*
Y219942D02*
D03*
Y221910D02*
D03*
Y223879D02*
D03*
Y225847D02*
D03*
Y227816D02*
D03*
Y229784D02*
D03*
Y231753D02*
D03*
Y233721D02*
D03*
Y235690D02*
D03*
Y237658D02*
D03*
Y239627D02*
D03*
X345160D02*
D03*
Y237658D02*
D03*
Y235690D02*
D03*
Y233721D02*
D03*
Y231753D02*
D03*
Y229784D02*
D03*
Y227816D02*
D03*
Y225847D02*
D03*
Y223879D02*
D03*
Y221910D02*
D03*
Y219942D02*
D03*
Y217973D02*
D03*
D35*
X339053Y226600D02*
D03*
X333147D02*
D03*
X333347Y221100D02*
D03*
X339253D02*
D03*
X339353Y215500D02*
D03*
X333447D02*
D03*
X339453Y209800D02*
D03*
X333547D02*
D03*
D36*
X387359Y262700D02*
D03*
X382241D02*
D03*
X387359Y267500D02*
D03*
X382241D02*
D03*
X377941Y213700D02*
D03*
X383059D02*
D03*
X260227Y304459D02*
D03*
X265345D02*
D03*
X271775Y372991D02*
D03*
X266657D02*
D03*
X199759Y393300D02*
D03*
X194641D02*
D03*
X163841Y352800D02*
D03*
X168959D02*
D03*
X243859Y231100D02*
D03*
X238741D02*
D03*
X215959Y359100D02*
D03*
X210841D02*
D03*
X320067Y200894D02*
D03*
X325185D02*
D03*
X208341Y300000D02*
D03*
X213459D02*
D03*
D37*
X329073Y251627D02*
D03*
X332222D02*
D03*
X368825Y249500D02*
D03*
X371975D02*
D03*
X379175Y209700D02*
D03*
X376025D02*
D03*
X345025Y209200D02*
D03*
X348175D02*
D03*
X167545Y345511D02*
D03*
Y342361D02*
D03*
X218614Y364100D02*
D03*
X215465D02*
D03*
X195725Y266600D02*
D03*
X198875D02*
D03*
X179675Y209600D02*
D03*
X176525D02*
D03*
X150141Y223472D02*
D03*
X146991D02*
D03*
X188475Y207600D02*
D03*
X185325D02*
D03*
X261975Y359500D02*
D03*
X258825D02*
D03*
X265542Y300128D02*
D03*
X262392D02*
D03*
X154300Y263500D02*
D03*
X151150D02*
D03*
X336575Y348200D02*
D03*
X333425D02*
D03*
X199396Y356694D02*
D03*
X196246D02*
D03*
X286025Y227200D02*
D03*
X289175D02*
D03*
X252675Y223300D02*
D03*
X249525D02*
D03*
X220185Y211917D02*
D03*
X223335D02*
D03*
X292272Y237902D02*
D03*
X289122D02*
D03*
X321002Y196384D02*
D03*
X324151D02*
D03*
X251181Y378051D02*
D03*
X254331D02*
D03*
X177631Y311186D02*
D03*
X174481D02*
D03*
X322682Y312814D02*
D03*
X325832D02*
D03*
X177631Y307643D02*
D03*
X174481D02*
D03*
X322682Y309271D02*
D03*
X325832D02*
D03*
D38*
X341340Y197723D02*
D03*
X337600D02*
D03*
X333860D02*
D03*
Y188077D02*
D03*
X337600D02*
D03*
X341340D02*
D03*
D39*
X287418Y262840D02*
D03*
Y255360D02*
D03*
X277182D02*
D03*
Y259100D02*
D03*
Y262840D02*
D03*
X146519Y263782D02*
D03*
Y256301D02*
D03*
X136283D02*
D03*
Y260041D02*
D03*
Y263782D02*
D03*
D40*
X180231Y213670D02*
D03*
X182200D02*
D03*
X184169D02*
D03*
Y224930D02*
D03*
X182200D02*
D03*
X180231D02*
D03*
D41*
X182200Y219300D02*
D03*
D42*
X222861Y194473D02*
D03*
X287231D02*
D03*
X196799Y172744D02*
D03*
X261169D02*
D03*
X270421D02*
D03*
X334791D02*
D03*
X273143Y298906D02*
D03*
X337513D02*
D03*
X130439Y298527D02*
D03*
X194809D02*
D03*
D43*
X232900Y205300D02*
D03*
X237821D02*
D03*
X242742D02*
D03*
X247664D02*
D03*
X277191D02*
D03*
X272270D02*
D03*
X267349D02*
D03*
X262428D02*
D03*
X257506D02*
D03*
X252585D02*
D03*
X206838Y183571D02*
D03*
X211760D02*
D03*
X216681D02*
D03*
X221602D02*
D03*
X251130D02*
D03*
X246209D02*
D03*
X241287D02*
D03*
X236366D02*
D03*
X231445D02*
D03*
X226524D02*
D03*
X280461D02*
D03*
X285382D02*
D03*
X290303D02*
D03*
X295224D02*
D03*
X324752D02*
D03*
X319831D02*
D03*
X314909D02*
D03*
X309988D02*
D03*
X305067D02*
D03*
X300146D02*
D03*
X307789Y288079D02*
D03*
X302868D02*
D03*
X297947D02*
D03*
X293025D02*
D03*
X288104D02*
D03*
X283183D02*
D03*
X312710D02*
D03*
X317632D02*
D03*
X322553D02*
D03*
X327474D02*
D03*
X165085Y287700D02*
D03*
X160164D02*
D03*
X155243D02*
D03*
X150321D02*
D03*
X145400D02*
D03*
X140479D02*
D03*
X170006D02*
D03*
X174928D02*
D03*
X179849D02*
D03*
X184770D02*
D03*
D44*
X219390Y242815D02*
D03*
X235138D02*
D03*
D45*
X191139Y243996D02*
D03*
X199412D02*
D03*
X202664Y193900D02*
D03*
X210936D02*
D03*
D46*
X304909Y239476D02*
D03*
D47*
X297036Y235540D02*
D03*
Y237508D02*
D03*
Y239476D02*
D03*
Y241445D02*
D03*
Y243413D02*
D03*
X312784D02*
D03*
Y241445D02*
D03*
Y239476D02*
D03*
Y237508D02*
D03*
Y235540D02*
D03*
D48*
X300973Y247351D02*
D03*
X302941D02*
D03*
X304909D02*
D03*
X306878D02*
D03*
X308846D02*
D03*
Y231603D02*
D03*
X306878D02*
D03*
X304909D02*
D03*
X302941D02*
D03*
X300973D02*
D03*
D49*
X369553Y266331D02*
D03*
Y257669D02*
D03*
X376247D02*
D03*
Y266331D02*
D03*
X320583Y243201D02*
D03*
Y234539D02*
D03*
X327276D02*
D03*
Y243201D02*
D03*
D50*
X376000Y246941D02*
D03*
Y252059D02*
D03*
X181102Y237387D02*
D03*
Y232269D02*
D03*
X176000Y237359D02*
D03*
Y232241D02*
D03*
X215987Y388198D02*
D03*
Y393317D02*
D03*
X242400Y241141D02*
D03*
Y246259D02*
D03*
X215100Y203641D02*
D03*
Y208759D02*
D03*
X251500Y260459D02*
D03*
Y255341D02*
D03*
X211900Y265359D02*
D03*
Y260241D02*
D03*
X208268Y242126D02*
D03*
Y247244D02*
D03*
X337032Y311844D02*
D03*
Y316962D02*
D03*
X99410Y244587D02*
D03*
Y239469D02*
D03*
D51*
X375046Y148600D02*
D03*
X380754D02*
D03*
X375046Y153200D02*
D03*
X380754D02*
D03*
D52*
X166929Y238602D02*
D03*
X153150D02*
D03*
D53*
X144612Y331338D02*
D03*
X149533D02*
D03*
X273832Y357117D02*
D03*
X268910D02*
D03*
X137328Y354960D02*
D03*
X132407D02*
D03*
X327547Y344548D02*
D03*
X322626D02*
D03*
X190561Y350500D02*
D03*
X185639D02*
D03*
X309677Y345773D02*
D03*
X304756D02*
D03*
X191161Y322900D02*
D03*
X186239D02*
D03*
X281115Y333495D02*
D03*
X286036D02*
D03*
D54*
X180709Y247953D02*
D03*
Y242638D02*
D03*
D55*
X200677Y351194D02*
D03*
X195165D02*
D03*
X282827Y352635D02*
D03*
X288338D02*
D03*
X146324Y350477D02*
D03*
X151835D02*
D03*
X337756Y343200D02*
D03*
X332244D02*
D03*
D56*
X244094Y290059D02*
D03*
Y284941D02*
D03*
X172166Y222031D02*
D03*
Y216913D02*
D03*
X214191Y215554D02*
D03*
Y220672D02*
D03*
D57*
X309053Y225500D02*
D03*
X303147D02*
D03*
D58*
X81747Y174283D02*
D03*
X85094D02*
D03*
D59*
X262047Y333753D02*
D03*
X264553Y331247D02*
D03*
D60*
X192200Y370424D02*
D03*
Y373376D02*
D03*
X255610Y263090D02*
D03*
Y266043D02*
D03*
X84921Y178907D02*
D03*
Y181860D02*
D03*
D61*
X349872Y198500D02*
D03*
X383376Y163500D02*
D03*
Y168500D02*
D03*
Y173500D02*
D03*
Y178500D02*
D03*
Y183500D02*
D03*
Y188500D02*
D03*
Y193500D02*
D03*
Y198500D02*
D03*
X349872Y163500D02*
D03*
Y168500D02*
D03*
Y173500D02*
D03*
Y178500D02*
D03*
Y183500D02*
D03*
Y188500D02*
D03*
Y193500D02*
D03*
D62*
X171562Y265628D02*
D03*
X167822D02*
D03*
X164081D02*
D03*
X171562Y256770D02*
D03*
X167822D02*
D03*
X164081D02*
D03*
X329940Y265429D02*
D03*
X326200D02*
D03*
X322460D02*
D03*
X329940Y256571D02*
D03*
X326200D02*
D03*
X322460D02*
D03*
X189375Y265734D02*
D03*
X185635D02*
D03*
X181895D02*
D03*
X189375Y256875D02*
D03*
X185635D02*
D03*
X181895D02*
D03*
X312027Y265325D02*
D03*
X308286D02*
D03*
X304546D02*
D03*
X312027Y256466D02*
D03*
X308286D02*
D03*
X304546D02*
D03*
D63*
X94585Y182947D02*
D03*
Y175467D02*
D03*
X102459Y179207D02*
D03*
D64*
X267800Y213253D02*
D03*
Y209946D02*
D03*
X243700Y213154D02*
D03*
Y209846D02*
D03*
D65*
X267124Y225040D02*
D03*
Y217560D02*
D03*
X257676D02*
D03*
Y221300D02*
D03*
Y225040D02*
D03*
X244824Y225740D02*
D03*
Y218260D02*
D03*
X235376D02*
D03*
Y222000D02*
D03*
Y225740D02*
D03*
D66*
X100787Y222559D02*
D03*
Y217559D02*
D03*
Y212559D02*
D03*
Y207559D02*
D03*
X119291Y222559D02*
D03*
Y217559D02*
D03*
Y212559D02*
D03*
Y207559D02*
D03*
D67*
X209979Y227562D02*
D03*
Y229530D02*
D03*
Y231499D02*
D03*
X198719D02*
D03*
Y229530D02*
D03*
Y227562D02*
D03*
D68*
X204349Y229530D02*
D03*
D69*
X131900Y366000D02*
D03*
X136900D02*
D03*
X141900D02*
D03*
X146900D02*
D03*
Y390000D02*
D03*
X141900D02*
D03*
X136900D02*
D03*
X131900D02*
D03*
X331856Y388027D02*
D03*
X326856D02*
D03*
X321856D02*
D03*
X316856D02*
D03*
Y364027D02*
D03*
X321856D02*
D03*
X326856D02*
D03*
X331856D02*
D03*
D70*
X151400Y370500D02*
D03*
Y375500D02*
D03*
Y380500D02*
D03*
Y385500D02*
D03*
X127400D02*
D03*
Y380500D02*
D03*
Y375500D02*
D03*
Y370500D02*
D03*
X312356Y383527D02*
D03*
Y378527D02*
D03*
Y373527D02*
D03*
Y368527D02*
D03*
X336356D02*
D03*
Y373527D02*
D03*
Y378527D02*
D03*
Y383527D02*
D03*
D71*
X125689Y245216D02*
D03*
Y228602D02*
D03*
X100492Y125059D02*
D03*
Y141673D02*
D03*
D72*
X126500Y347853D02*
D03*
Y354546D02*
D03*
D73*
X157700Y332242D02*
D03*
Y338358D02*
D03*
X294205Y345004D02*
D03*
Y351120D02*
D03*
X157800Y343842D02*
D03*
Y349958D02*
D03*
X336817Y326268D02*
D03*
Y332384D02*
D03*
X201400Y335742D02*
D03*
Y341858D02*
D03*
X178800Y324742D02*
D03*
Y330858D02*
D03*
X128000Y338258D02*
D03*
Y332142D02*
D03*
X170301Y330248D02*
D03*
Y336364D02*
D03*
X294400Y333942D02*
D03*
Y340058D02*
D03*
D74*
X367100Y140204D02*
D03*
Y153196D02*
D03*
D75*
X305468Y190900D02*
D03*
X300932D02*
D03*
X332932Y203200D02*
D03*
X337468D02*
D03*
X333432Y231800D02*
D03*
X337968D02*
D03*
D76*
X225700Y373100D02*
D03*
D77*
X221861Y378494D02*
D03*
X224420D02*
D03*
X226979D02*
D03*
X229539D02*
D03*
Y367706D02*
D03*
X226979D02*
D03*
X224420D02*
D03*
X221861D02*
D03*
D78*
X103000Y196002D02*
D03*
Y201198D02*
D03*
D79*
X155037Y163521D02*
D03*
D80*
X164092Y203679D02*
D03*
D81*
X174722Y191868D02*
D03*
Y174939D02*
D03*
X127478D02*
D03*
D82*
Y191868D02*
D03*
D83*
X194021Y337341D02*
D03*
Y339900D02*
D03*
Y342460D02*
D03*
Y345019D02*
D03*
X177289Y337341D02*
D03*
Y339900D02*
D03*
Y342460D02*
D03*
Y345019D02*
D03*
X288399Y339106D02*
D03*
Y341665D02*
D03*
Y344224D02*
D03*
Y346783D02*
D03*
X271666Y339106D02*
D03*
Y341665D02*
D03*
Y344224D02*
D03*
Y346783D02*
D03*
X151895Y336948D02*
D03*
Y339507D02*
D03*
Y342066D02*
D03*
Y344625D02*
D03*
X135163Y336948D02*
D03*
Y339507D02*
D03*
Y342066D02*
D03*
Y344625D02*
D03*
X330124Y330999D02*
D03*
Y333558D02*
D03*
Y336117D02*
D03*
Y338676D02*
D03*
X313392Y330999D02*
D03*
Y333558D02*
D03*
Y336117D02*
D03*
Y338676D02*
D03*
D84*
X253605Y367720D02*
D03*
Y364570D02*
D03*
X243368Y367720D02*
D03*
Y364570D02*
D03*
X369237Y133782D02*
D03*
Y130632D02*
D03*
X359001Y133782D02*
D03*
Y130632D02*
D03*
D85*
X248486Y366145D02*
D03*
X364119Y132207D02*
D03*
D86*
X190352Y382903D02*
D03*
X199801Y386643D02*
D03*
Y379163D02*
D03*
X283224Y382400D02*
D03*
X273776Y378660D02*
D03*
Y386140D02*
D03*
X287409Y221957D02*
D03*
Y214476D02*
D03*
X276583D02*
D03*
Y218217D02*
D03*
Y221957D02*
D03*
D87*
X260860Y265413D02*
D03*
X268340D02*
D03*
Y254587D02*
D03*
X264600D02*
D03*
X260860D02*
D03*
D88*
X313000Y220335D02*
D03*
X308000D02*
D03*
X303000D02*
D03*
X298000D02*
D03*
X313000Y199665D02*
D03*
X308000D02*
D03*
X303000D02*
D03*
X298000D02*
D03*
D89*
X247391Y241496D02*
D03*
X263335Y243465D02*
D03*
Y241496D02*
D03*
Y239528D02*
D03*
Y237559D02*
D03*
Y235591D02*
D03*
X247391D02*
D03*
Y237559D02*
D03*
Y239528D02*
D03*
Y243465D02*
D03*
D90*
X255363Y239528D02*
D03*
D91*
X259300Y231555D02*
D03*
X257331D02*
D03*
X255363D02*
D03*
X253395D02*
D03*
X251426D02*
D03*
Y247500D02*
D03*
X253395D02*
D03*
X255363D02*
D03*
X257331D02*
D03*
X259300D02*
D03*
D92*
X153100Y258653D02*
D03*
Y252747D02*
D03*
X297300Y262753D02*
D03*
Y256847D02*
D03*
D93*
X316777Y312539D02*
D03*
Y309153D02*
D03*
X89021Y180516D02*
D03*
Y177051D02*
D03*
X205438Y378425D02*
D03*
Y375039D02*
D03*
X168576Y310911D02*
D03*
Y307525D02*
D03*
D94*
X234095Y287992D02*
D03*
X237559D02*
D03*
X359932Y125100D02*
D03*
X356468D02*
D03*
D95*
X85650Y186083D02*
D03*
X81791D02*
D03*
D96*
X91376Y191412D02*
D03*
X95235D02*
D03*
D97*
X259009Y327183D02*
D03*
X257617Y328575D02*
D03*
X256225Y329967D02*
D03*
X254833Y331359D02*
D03*
X253441Y332751D02*
D03*
X252049Y334143D02*
D03*
X250657Y335535D02*
D03*
X249265Y336927D02*
D03*
X247873Y338319D02*
D03*
X246481Y339711D02*
D03*
X245090Y341103D02*
D03*
X243698Y342495D02*
D03*
X242306Y343886D02*
D03*
X240914Y345278D02*
D03*
X239522Y346670D02*
D03*
X238130Y348062D02*
D03*
X234511Y302685D02*
D03*
X233119Y304077D02*
D03*
X231727Y305469D02*
D03*
X230335Y306861D02*
D03*
X228943Y308253D02*
D03*
X227551Y309645D02*
D03*
X226159Y311037D02*
D03*
X224767Y312429D02*
D03*
X223375Y313821D02*
D03*
X221983Y315212D02*
D03*
X220591Y316604D02*
D03*
X219199Y317996D02*
D03*
X217808Y319388D02*
D03*
X216416Y320780D02*
D03*
X215024Y322172D02*
D03*
X213632Y323564D02*
D03*
D98*
X236320Y335952D02*
D03*
X225742Y325374D02*
D03*
X246899D02*
D03*
X236320Y314795D02*
D03*
D99*
X213632Y327183D02*
D03*
X215024Y328575D02*
D03*
X216416Y329967D02*
D03*
X217808Y331359D02*
D03*
X219199Y332751D02*
D03*
X220591Y334143D02*
D03*
X221983Y335535D02*
D03*
X223375Y336927D02*
D03*
X224767Y338319D02*
D03*
X226159Y339711D02*
D03*
X227551Y341103D02*
D03*
X228943Y342495D02*
D03*
X230335Y343886D02*
D03*
X231727Y345278D02*
D03*
X233119Y346670D02*
D03*
X234511Y348062D02*
D03*
X259009Y323564D02*
D03*
X257617Y322172D02*
D03*
X256225Y320780D02*
D03*
X254833Y319388D02*
D03*
X253441Y317996D02*
D03*
X252049Y316604D02*
D03*
X250657Y315212D02*
D03*
X249265Y313821D02*
D03*
X247873Y312429D02*
D03*
X246481Y311037D02*
D03*
X245090Y309645D02*
D03*
X243698Y308253D02*
D03*
X242306Y306861D02*
D03*
X240914Y305469D02*
D03*
X239522Y304077D02*
D03*
X238130Y302685D02*
D03*
D100*
X136600Y218826D02*
D03*
Y209574D02*
D03*
D101*
X186229Y366400D02*
D03*
Y361400D02*
D03*
X278320Y362547D02*
D03*
Y367547D02*
D03*
D102*
X85900Y164336D02*
D03*
Y156064D02*
D03*
X189400Y198836D02*
D03*
Y190564D02*
D03*
X112900Y188664D02*
D03*
Y196936D02*
D03*
X109000Y241836D02*
D03*
Y233564D02*
D03*
X225400Y222764D02*
D03*
Y231036D02*
D03*
X323400Y219636D02*
D03*
Y211364D02*
D03*
X242126Y381494D02*
D03*
Y389766D02*
D03*
X226200Y397136D02*
D03*
Y388864D02*
D03*
D103*
X238007Y236200D02*
D03*
X241393D02*
D03*
X260907Y391800D02*
D03*
X264293D02*
D03*
X325607Y393100D02*
D03*
X328993D02*
D03*
X132607Y360700D02*
D03*
X135993D02*
D03*
X136374Y319414D02*
D03*
X132989D02*
D03*
X146117Y319515D02*
D03*
X142731D02*
D03*
X155566Y319414D02*
D03*
X152180D02*
D03*
X283429Y318585D02*
D03*
X280043D02*
D03*
X293478D02*
D03*
X290092D02*
D03*
X303527D02*
D03*
X300141D02*
D03*
D104*
X230217Y293043D02*
D03*
X227990Y290816D02*
D03*
X211993Y334202D02*
D03*
X209766Y331975D02*
D03*
X238813Y356414D02*
D03*
X236586Y354186D02*
D03*
D105*
X354800Y133832D02*
D03*
Y130368D02*
D03*
X239124Y367435D02*
D03*
Y363970D02*
D03*
D106*
X256636Y307260D02*
D03*
X254409Y309488D02*
D03*
X214286Y342914D02*
D03*
X216514Y340686D02*
D03*
X223886Y352414D02*
D03*
X226114Y350186D02*
D03*
X245857Y346931D02*
D03*
X248084Y344704D02*
D03*
X213936Y315626D02*
D03*
X216163Y313398D02*
D03*
D107*
X250463Y307415D02*
D03*
X248068Y305021D02*
D03*
X229703Y352303D02*
D03*
X232097Y354697D02*
D03*
D108*
X214439Y337403D02*
D03*
X212045Y339797D02*
D03*
D109*
X100400Y152326D02*
D03*
Y168074D02*
D03*
X140084Y231857D02*
D03*
Y247605D02*
D03*
D110*
X230954Y213400D02*
D03*
X227646D02*
D03*
X253053Y215900D02*
D03*
X249746D02*
D03*
D111*
X187564Y172503D02*
D03*
Y177039D02*
D03*
X251673Y285823D02*
D03*
Y290359D02*
D03*
X205906Y260724D02*
D03*
Y265260D02*
D03*
X332900Y244268D02*
D03*
Y239732D02*
D03*
D112*
X82500Y262170D02*
D03*
Y197800D02*
D03*
D113*
X93327Y252131D02*
D03*
Y247210D02*
D03*
Y242288D02*
D03*
Y237367D02*
D03*
Y207839D02*
D03*
Y212761D02*
D03*
Y217682D02*
D03*
Y222603D02*
D03*
Y227524D02*
D03*
Y232446D02*
D03*
D114*
X271224Y249000D02*
D03*
X274176D02*
D03*
X281576D02*
D03*
X278624D02*
D03*
X288276Y248800D02*
D03*
X285324D02*
D03*
X198917Y263091D02*
D03*
X195965D02*
D03*
D115*
X151543Y216372D02*
D03*
X147589D02*
D03*
D116*
X366876Y125500D02*
D03*
X363924D02*
D03*
X240824Y359400D02*
D03*
X243776D02*
D03*
X270076Y362700D02*
D03*
X267124D02*
D03*
D117*
X81520Y178312D02*
D03*
Y181855D02*
D03*
X358760Y152065D02*
D03*
Y148521D02*
D03*
X355035Y152075D02*
D03*
Y148531D02*
D03*
D118*
X292100Y258553D02*
D03*
Y252647D02*
D03*
X158865Y266317D02*
D03*
Y260412D02*
D03*
D119*
X171876Y346790D02*
D03*
Y341869D02*
D03*
X317500Y325461D02*
D03*
Y320539D02*
D03*
X308700Y322661D02*
D03*
Y317739D02*
D03*
X164002Y334585D02*
D03*
Y329664D02*
D03*
D120*
X259053Y352000D02*
D03*
X265746D02*
D03*
D121*
X300242Y338700D02*
D03*
X306358D02*
D03*
X259642Y344500D02*
D03*
X265758D02*
D03*
X329858Y324100D02*
D03*
X323742D02*
D03*
X191863Y330156D02*
D03*
X185747D02*
D03*
X300142Y331000D02*
D03*
X306258D02*
D03*
D122*
X223567Y347969D02*
D03*
X221340Y350196D02*
D03*
X221261Y345302D02*
D03*
X219034Y347529D02*
D03*
X218899Y343137D02*
D03*
X216671Y345364D02*
D03*
X252414Y345786D02*
D03*
X250186Y348013D02*
D03*
X255000Y348300D02*
D03*
X252773Y350527D02*
D03*
D123*
X226363Y304182D02*
D03*
X224136Y301955D02*
D03*
X228725Y301820D02*
D03*
X226498Y299593D02*
D03*
X231087Y299458D02*
D03*
X228860Y297231D02*
D03*
D124*
X238960Y298308D02*
D03*
X236454Y295802D02*
D03*
D125*
X161452Y218225D02*
D03*
X204625Y210928D02*
D03*
D126*
X166846Y222063D02*
D03*
Y219504D02*
D03*
Y216945D02*
D03*
Y214386D02*
D03*
X156058D02*
D03*
Y216945D02*
D03*
Y219504D02*
D03*
Y222063D02*
D03*
X210018Y214766D02*
D03*
Y212207D02*
D03*
Y209648D02*
D03*
Y207089D02*
D03*
X199231D02*
D03*
Y209648D02*
D03*
Y212207D02*
D03*
Y214766D02*
D03*
D167*
X274014Y231300D02*
D03*
X280786D02*
D03*
D168*
X276416Y233810D02*
D03*
X278384D02*
D03*
Y228790D02*
D03*
X276416D02*
D03*
D169*
X274447Y233810D02*
D03*
X280353D02*
D03*
Y228790D02*
D03*
X274447D02*
D03*
D220*
X224800Y231636D02*
X225400Y231036D01*
X224800Y231636D02*
Y235400D01*
X317100Y201000D02*
X317153Y200947D01*
X320014D01*
X320067Y200894D01*
X325377Y221613D02*
Y225125D01*
X323400Y219636D02*
X325377Y221613D01*
X321500Y221536D02*
X323400Y219636D01*
X321500Y221536D02*
Y225300D01*
X320700Y206300D02*
Y208762D01*
X321002Y209064D02*
X321100D01*
X320700Y208762D02*
X321002Y209064D01*
X324500Y206200D02*
Y210264D01*
X323400Y211364D02*
X324500Y210264D01*
X321100Y209064D02*
X323400Y211364D01*
X220600Y236300D02*
Y236468D01*
X219390Y237678D02*
X220600Y236468D01*
X219390Y237678D02*
Y242815D01*
X201400Y236900D02*
Y242008D01*
X199412Y243996D02*
X201400Y242008D01*
X197623Y196500D02*
X200064D01*
X202664Y193900D01*
X201264Y192500D02*
X202664Y193900D01*
X197300Y192500D02*
X201264D01*
X213200Y196164D02*
Y200900D01*
X210936Y193900D02*
X213200Y196164D01*
X187564Y177039D02*
Y181564D01*
X210966Y201034D02*
X213066D01*
X213200Y200900D01*
X210900Y201100D02*
X210966Y201034D01*
X213200Y200900D02*
Y201089D01*
X213980Y201869D01*
Y202619D02*
X215002Y203641D01*
X215100D01*
X213980Y201869D02*
Y202619D01*
X215002Y208759D02*
X215198D01*
X213532Y207089D02*
Y207289D01*
X215002Y208759D01*
X210018Y207089D02*
X213532D01*
X216220Y210739D02*
X217000Y211519D01*
X216220Y209781D02*
Y210739D01*
X215198Y208759D02*
X216220Y209781D01*
X217000Y211519D02*
Y211709D01*
X200203Y393350D02*
X203950D01*
X204000Y393400D01*
X200153Y393300D02*
X200203Y393350D01*
X197071Y222971D02*
X197100Y223000D01*
X196909Y219766D02*
X197071Y219929D01*
Y222971D01*
X275496Y372996D02*
X275500Y373000D01*
X272169Y372991D02*
X272174Y372996D01*
X275496D01*
X213429Y299577D02*
X213740Y299887D01*
X213429Y296729D02*
Y299577D01*
X213400Y296700D02*
X213429Y296729D01*
X234700Y237500D02*
Y242377D01*
X220366Y362118D02*
Y362348D01*
Y362118D02*
X220500Y361984D01*
X218614Y364100D02*
X220366Y362348D01*
X212300Y363100D02*
X213026Y363826D01*
X215191D01*
X215465Y364100D01*
X194808Y219717D02*
X195762D01*
X152366Y223234D02*
Y225514D01*
X151700Y226180D02*
Y226369D01*
Y226180D02*
X152366Y225514D01*
X139281Y209574D02*
X140500Y208355D01*
Y205300D02*
Y208355D01*
X136600Y209574D02*
X139281D01*
X134519Y209574D02*
X136600D01*
X133300Y208355D02*
X134519Y209574D01*
X133300Y205100D02*
Y208355D01*
X224400Y221764D02*
X225400Y222764D01*
X224400Y217600D02*
Y221764D01*
X100548Y225112D02*
X106049Y230613D01*
Y230961D02*
X108651Y233564D01*
X100548Y222957D02*
Y225112D01*
X108651Y233564D02*
X109000D01*
X100548Y222957D02*
X101800D01*
X106049Y230613D02*
Y230961D01*
X101800Y222957D02*
X102198Y222559D01*
X108600Y228500D02*
Y228689D01*
X108398Y233564D02*
X109050Y232911D01*
Y229139D02*
Y232911D01*
X108600Y228689D02*
X109050Y229139D01*
X105700Y228300D02*
Y230961D01*
X204571Y211075D02*
X204625D01*
X188537Y245100D02*
X188681Y244956D01*
X185900Y245100D02*
X188537D01*
X188681Y243996D02*
Y244956D01*
X126575Y239961D02*
Y244331D01*
X125689Y245217D02*
X126575Y244331D01*
X112500Y197336D02*
Y202300D01*
Y197336D02*
X112900Y196936D01*
X110344Y199394D02*
X112802Y196936D01*
X112900D01*
X113900Y197936D02*
Y199394D01*
X116544D01*
X112900Y196936D02*
X113900Y197936D01*
X114800Y183300D02*
Y186764D01*
X112900Y188664D02*
X114800Y186764D01*
X110000Y183200D02*
Y186062D01*
X112602Y188664D01*
X112900D01*
X216911Y387576D02*
X218225Y386262D01*
X216911Y387576D02*
Y387669D01*
X216775Y387805D02*
X216911Y387669D01*
X218225Y386262D02*
X223598D01*
X227800Y398143D02*
Y402500D01*
X226496Y396840D02*
X227800Y398143D01*
X227600Y383900D02*
Y387464D01*
X226200Y388864D02*
X227600Y387464D01*
X223100Y399739D02*
Y402300D01*
Y399739D02*
X225702Y397136D01*
X226200D01*
X221861Y384808D02*
X222988Y385935D01*
X221861Y378494D02*
Y384808D01*
X223598Y386262D02*
X226200Y388864D01*
X246506Y395106D02*
X246800Y395400D01*
X246506Y392368D02*
Y395106D01*
X242126Y389766D02*
X243904D01*
X246506Y392368D01*
X240600Y391292D02*
Y395600D01*
Y391292D02*
X242126Y389766D01*
X99748Y244980D02*
X99862Y245094D01*
Y247262D01*
X99900Y247300D01*
X99410Y244980D02*
X99748D01*
X85700Y164536D02*
X85900Y164336D01*
X190238Y198300D02*
X192400Y200462D01*
Y203900D01*
X187100Y201438D02*
X190238Y198300D01*
X187100Y201438D02*
Y204000D01*
X260860Y265413D02*
X260899Y265453D01*
X264665D01*
X149412Y158112D02*
Y160728D01*
X152205Y163521D01*
X149400Y158100D02*
X149412Y158112D01*
X163718Y203679D02*
X164092D01*
X160925Y206472D02*
X163718Y203679D01*
X160925Y206472D02*
Y209055D01*
X164092Y203679D02*
Y208777D01*
X164370Y209055D01*
X152205Y163521D02*
X171779D01*
X176235Y173426D02*
X181981D01*
X174722Y174939D02*
X176235Y173426D01*
X143079Y250600D02*
X146200D01*
X140084Y247605D02*
X143079Y250600D01*
X239860Y284203D02*
X240270Y284613D01*
X243766D02*
X244094Y284941D01*
X240270Y284613D02*
X243766D01*
X239616Y284203D02*
X239860D01*
X204625Y210928D02*
Y211075D01*
X334791Y172744D02*
Y180791D01*
X287231Y194473D02*
Y202569D01*
X222861Y194473D02*
Y202761D01*
X123327Y242854D02*
X125689Y245217D01*
X123327Y240059D02*
Y242854D01*
X139567Y248123D02*
X140084Y247606D01*
X239592Y284227D02*
X239616Y284203D01*
X236516Y284252D02*
X236540Y284227D01*
X239592D01*
X195811Y219766D02*
X196909D01*
X195762Y219717D02*
X195811Y219766D01*
X194808Y219012D02*
X198878Y214942D01*
X199056D01*
X199231Y214766D01*
X248000Y294500D02*
X250400D01*
Y294311D02*
Y294500D01*
Y294311D02*
X250734Y293977D01*
Y291298D02*
Y293977D01*
Y291298D02*
X251673Y290359D01*
X251673Y285728D02*
Y285823D01*
X249646Y283701D02*
X251673Y285728D01*
X249001Y283701D02*
X249646D01*
X248867Y283567D02*
X249001Y283701D01*
X99157Y151083D02*
X100400Y152326D01*
Y168074D02*
X102700Y170374D01*
X100300Y152226D02*
X100400Y152326D01*
X100300Y141865D02*
X100492Y141673D01*
X98053Y144112D02*
X100492Y141673D01*
X241220Y289604D02*
X241354Y289738D01*
X243774D02*
X244094Y290059D01*
X241354Y289738D02*
X243774D01*
X118565Y174939D02*
X127478D01*
X118504Y175000D02*
X118565Y174939D01*
X131200Y185500D02*
Y187697D01*
X130294Y188602D02*
X131200Y187697D01*
X124213Y188602D02*
X130294D01*
X124606Y172067D02*
X127478Y174939D01*
X124606Y167028D02*
Y172067D01*
X124213Y188602D02*
X127478Y191868D01*
X124113Y185900D02*
Y188702D01*
X123917Y188898D02*
X124113Y188702D01*
X127067Y208366D02*
X133081D01*
X120866Y202165D02*
X127067Y208366D01*
X147300Y232700D02*
X149963D01*
X328896Y393197D02*
X328993Y393100D01*
X328896Y393197D02*
Y395604D01*
X328799Y395701D02*
X328896Y395604D01*
X99506Y236994D02*
Y238950D01*
X99630Y239075D01*
X99506Y236994D02*
X99602Y236898D01*
X136700Y393800D02*
X136800Y393700D01*
Y390100D02*
X136900Y390000D01*
X136800Y390100D02*
Y393700D01*
X123834Y380334D02*
X127234D01*
X127400Y380500D01*
X123700Y380200D02*
X123834Y380334D01*
X325441Y393266D02*
X325607Y393100D01*
X323234Y393266D02*
X325441D01*
X323100Y393400D02*
X323234Y393266D01*
X328993Y393100D02*
X329072D01*
X329542Y391840D02*
X331700Y389682D01*
X329542Y391840D02*
Y392630D01*
X329072Y393100D02*
X329542Y392630D01*
X331700Y388182D02*
X331856Y388027D01*
X331700Y388182D02*
Y389682D01*
X339734Y373277D02*
X339911Y373100D01*
X336606Y373277D02*
X339734D01*
X336356Y373527D02*
X336606Y373277D01*
X339911Y373100D02*
X340100D01*
X266261Y372988D02*
X266264Y372991D01*
X262988Y372988D02*
X266261D01*
X262985Y372985D02*
X262988Y372988D01*
X130163Y358335D02*
X132528Y360700D01*
X129701Y358201D02*
X129835Y358335D01*
X130163D01*
X334300Y302119D02*
Y307400D01*
Y302119D02*
X337513Y298906D01*
X194809Y306410D02*
X195800Y307400D01*
X194809Y298527D02*
Y306410D01*
X229554Y381454D02*
X229569Y381469D01*
X229539Y378494D02*
X229554Y378509D01*
Y381454D01*
X225600Y373200D02*
X225700Y373100D01*
X244094Y290059D02*
X247859D01*
X139100Y360700D02*
X139600Y360200D01*
X135993Y360700D02*
X139100D01*
X132528D02*
X132607D01*
X131900Y361328D02*
Y366000D01*
X182700Y375100D02*
X182800Y375200D01*
Y378165D01*
X182700Y384500D02*
X182800Y384400D01*
Y381235D02*
Y384400D01*
X194247Y397547D02*
X194300Y397600D01*
X194247Y393300D02*
Y397547D01*
X190000Y386300D02*
X190352Y385948D01*
Y382903D02*
Y385948D01*
X199801Y392161D02*
X200153Y392513D01*
X199801Y386643D02*
Y392161D01*
X200153Y392513D02*
Y393300D01*
X218614Y364100D02*
X221686Y367172D01*
Y367531D01*
X221861Y367706D01*
X205438Y371362D02*
Y375039D01*
Y378425D02*
Y381638D01*
X283900Y382831D02*
Y385400D01*
X283469Y382400D02*
X283900Y382831D01*
X283224Y382400D02*
X283469D01*
X268670Y378730D02*
X273706D01*
X273776Y378660D01*
X268600Y378800D02*
X268670Y378730D01*
X270199Y386968D02*
X270595Y386571D01*
X273344D01*
X273776Y386140D01*
X326856Y358744D02*
X326900Y358700D01*
X326856Y358744D02*
Y364027D01*
X307600Y383300D02*
X307827Y383527D01*
X312356D01*
X268013Y391207D02*
X268202D01*
X267420Y391800D02*
X268013Y391207D01*
X264293Y391800D02*
X267420D01*
X199801Y379163D02*
X204779D01*
X150101Y223472D02*
X150340Y223234D01*
X152366D01*
X152689Y223100D02*
X153551Y222239D01*
X152500Y223100D02*
X152689D01*
X152366Y223234D02*
X152500Y223100D01*
X155883Y222239D02*
X156058Y222063D01*
X153551Y222239D02*
X155883D01*
X183934Y170034D02*
X185189D01*
X183900Y170000D02*
X183934Y170034D01*
X185189D02*
X187564Y172409D01*
X153150Y235887D02*
Y238602D01*
X149963Y232700D02*
X153150Y235887D01*
X187564Y172409D02*
Y172503D01*
X175200Y219227D02*
X175442Y218984D01*
X175142Y216978D02*
Y218984D01*
X175200Y219227D02*
Y219416D01*
X175385Y216920D02*
X175442Y216978D01*
X172173Y216920D02*
X175385D01*
X172166Y216913D02*
X172173Y216920D01*
X152347Y237800D02*
X153150Y238602D01*
X147300Y237800D02*
X152347D01*
X98500Y127051D02*
X100492Y125059D01*
X204600Y300000D02*
X207947D01*
X210193Y214942D02*
X213186D01*
X210018Y214766D02*
X210193Y214942D01*
X213186D02*
X213798Y215554D01*
X166846Y222063D02*
X166862Y222047D01*
X172150D01*
X172166Y222031D01*
X121851Y222559D02*
X125584Y218826D01*
X131285D01*
X137303Y225689D02*
Y229076D01*
X140084Y231857D01*
X166929Y238602D02*
X170098Y235433D01*
X172146D01*
X166929Y239042D02*
Y240908D01*
Y238602D02*
Y239042D01*
Y240908D02*
X170116Y244094D01*
X172343D01*
X130067Y220044D02*
X131285Y218826D01*
X125689Y228602D02*
X126791D01*
X131285Y218826D02*
X136600D01*
X130067Y220044D02*
Y225327D01*
X126791Y228602D02*
X130067Y225327D01*
X119291Y222559D02*
X121851D01*
X116544Y199394D02*
X119315Y202165D01*
X120866D01*
X215945Y383957D02*
X215987Y383999D01*
Y387805D01*
X216775D01*
D221*
X135827Y154016D02*
D03*
Y124016D02*
D03*
X145827Y154016D02*
D03*
Y124016D02*
D03*
X155827Y154016D02*
D03*
Y124016D02*
D03*
X165827Y154016D02*
D03*
Y124016D02*
D03*
X175827Y154016D02*
D03*
Y124016D02*
D03*
X185827Y154016D02*
D03*
Y124016D02*
D03*
X195827Y154016D02*
D03*
Y124016D02*
D03*
X205827Y154016D02*
D03*
Y124016D02*
D03*
X215827Y154016D02*
D03*
Y124016D02*
D03*
X226002Y153998D02*
D03*
Y123998D02*
D03*
X236002Y153998D02*
D03*
Y123998D02*
D03*
X246002Y153998D02*
D03*
Y123998D02*
D03*
X256002Y153998D02*
D03*
Y123998D02*
D03*
X266002Y153998D02*
D03*
Y123998D02*
D03*
X276002Y153998D02*
D03*
Y123998D02*
D03*
X286002Y153998D02*
D03*
Y123998D02*
D03*
X296002Y153998D02*
D03*
Y123998D02*
D03*
X306002Y153998D02*
D03*
Y123998D02*
D03*
X316002Y153998D02*
D03*
Y123998D02*
D03*
X325915Y124234D02*
D03*
D222*
Y154234D02*
D03*
D223*
X227002Y66942D02*
D03*
X231923D02*
D03*
X236844D02*
D03*
X227002Y71863D02*
D03*
X231923D02*
D03*
X186647Y71863D02*
D03*
X191569D02*
D03*
X181726Y66942D02*
D03*
X186647D02*
D03*
X191569D02*
D03*
X104364Y71863D02*
D03*
Y66942D02*
D03*
X109285Y71863D02*
D03*
Y66942D02*
D03*
X114206Y71863D02*
D03*
Y66942D02*
D03*
X133891Y71863D02*
D03*
X128970D02*
D03*
X124049D02*
D03*
X119128D02*
D03*
X138813Y66942D02*
D03*
X133891D02*
D03*
X128970D02*
D03*
X124049D02*
D03*
X119128D02*
D03*
X277198D02*
D03*
X282120D02*
D03*
X287041D02*
D03*
X291962D02*
D03*
X296883D02*
D03*
X277198Y71863D02*
D03*
X282120D02*
D03*
X287041D02*
D03*
X291962D02*
D03*
X272277Y66942D02*
D03*
Y71863D02*
D03*
X339797Y66942D02*
D03*
X344718D02*
D03*
X349639D02*
D03*
X354561D02*
D03*
X359482D02*
D03*
X339797Y71863D02*
D03*
X344718D02*
D03*
X349639D02*
D03*
X354561D02*
D03*
D224*
X236844Y71863D02*
D03*
X181726Y71863D02*
D03*
X138813Y71863D02*
D03*
X296883D02*
D03*
X359482Y71863D02*
D03*
D225*
X383700Y250500D02*
D03*
X340233Y241088D02*
D03*
X340895Y238264D02*
D03*
X342600Y245800D02*
D03*
X351700Y208100D02*
D03*
X340510Y235390D02*
D03*
X352561Y224828D02*
D03*
X349791Y225687D02*
D03*
X351400Y228100D02*
D03*
X342699Y242614D02*
D03*
X345221Y248882D02*
D03*
X348281Y245500D02*
D03*
X335200Y237300D02*
D03*
X380100Y250000D02*
D03*
X383300Y259786D02*
D03*
X387800Y259500D02*
D03*
X380766Y245965D02*
D03*
X360416Y240716D02*
D03*
X384500Y234500D02*
D03*
X384575Y237575D02*
D03*
X258300Y295200D02*
D03*
X328900Y226900D02*
D03*
X342200Y249000D02*
D03*
X352600Y143300D02*
D03*
X386300Y220900D02*
D03*
X371194Y217407D02*
D03*
X371100Y221500D02*
D03*
X364018Y217705D02*
D03*
X366831Y218408D02*
D03*
X382800Y209500D02*
D03*
X343000Y215500D02*
D03*
X344396Y212958D02*
D03*
X335000Y158100D02*
D03*
X175900Y163300D02*
D03*
X202700Y158400D02*
D03*
X224800Y235400D02*
D03*
X293600Y232200D02*
D03*
X364700Y168100D02*
D03*
X357500Y194500D02*
D03*
X350100Y238200D02*
D03*
X350600Y234400D02*
D03*
X351800Y231300D02*
D03*
X353064Y140236D02*
D03*
X233400Y209100D02*
D03*
X317100Y201000D02*
D03*
X246600Y228820D02*
D03*
X182100Y209600D02*
D03*
X367300Y145500D02*
D03*
X297338Y195000D02*
D03*
X221500Y214800D02*
D03*
X217500Y235800D02*
D03*
X340716Y182516D02*
D03*
X352800Y221938D02*
D03*
X355483Y220800D02*
D03*
X273300Y251700D02*
D03*
X275486Y237089D02*
D03*
X269100Y235000D02*
D03*
X281876Y214476D02*
D03*
X150900Y265900D02*
D03*
X354976Y217476D02*
D03*
X333600Y192000D02*
D03*
X342729Y208929D02*
D03*
X325377Y225125D02*
D03*
X328600Y229983D02*
D03*
X335776Y226700D02*
D03*
X321500Y225300D02*
D03*
X332300Y235800D02*
D03*
X328700Y204600D02*
D03*
X252200Y225800D02*
D03*
X250244Y227941D02*
D03*
X254301Y227799D02*
D03*
X185600Y166700D02*
D03*
X221000Y158000D02*
D03*
X237400Y158400D02*
D03*
X244861Y158143D02*
D03*
X265593Y158278D02*
D03*
X273687Y157621D02*
D03*
X293000Y157600D02*
D03*
X304418Y157995D02*
D03*
X312000Y158000D02*
D03*
X317452Y158046D02*
D03*
X338293Y158107D02*
D03*
X324500Y206200D02*
D03*
X320700Y206300D02*
D03*
X291600Y234500D02*
D03*
X283100Y262600D02*
D03*
X220600Y236300D02*
D03*
X217600Y222300D02*
D03*
X217800Y228800D02*
D03*
X210121Y238500D02*
D03*
X201400Y236900D02*
D03*
X87876Y227524D02*
D03*
X349900Y220700D02*
D03*
X335976Y221000D02*
D03*
X378000Y165950D02*
D03*
Y169950D02*
D03*
X377900Y195500D02*
D03*
Y191500D02*
D03*
X382500Y142500D02*
D03*
X373200Y136700D02*
D03*
X341250Y90000D02*
D03*
X371250Y105000D02*
D03*
X338710Y190991D02*
D03*
X370538Y240500D02*
D03*
X367804Y239400D02*
D03*
X363666Y239892D02*
D03*
X364900Y237100D02*
D03*
X383900Y230400D02*
D03*
X371300Y225900D02*
D03*
X324500Y177800D02*
D03*
X216927Y189000D02*
D03*
X214009Y212331D02*
D03*
X216970Y225631D02*
D03*
X242300Y169700D02*
D03*
X215900Y170100D02*
D03*
X295000Y247000D02*
D03*
X316844Y251357D02*
D03*
X333750Y255024D02*
D03*
X328437Y248712D02*
D03*
X355079Y238870D02*
D03*
X358800Y146200D02*
D03*
X355200Y136400D02*
D03*
X355100Y146300D02*
D03*
X344144Y203562D02*
D03*
X333500Y248000D02*
D03*
X355600Y121400D02*
D03*
X361832Y121700D02*
D03*
X356000Y256200D02*
D03*
X228900Y178700D02*
D03*
X228340Y170400D02*
D03*
X232300D02*
D03*
X339000Y129200D02*
D03*
X332200Y146000D02*
D03*
X307100Y179000D02*
D03*
X308701Y157623D02*
D03*
X238450Y172350D02*
D03*
X212193Y169706D02*
D03*
X208870Y172283D02*
D03*
X210200Y167600D02*
D03*
X197300Y192500D02*
D03*
Y196500D02*
D03*
X308700Y166800D02*
D03*
X186000Y235100D02*
D03*
X180900Y229200D02*
D03*
X329300Y133000D02*
D03*
X275550Y210375D02*
D03*
X271500Y225400D02*
D03*
X92600Y172500D02*
D03*
X96563Y54423D02*
D03*
X102063Y54323D02*
D03*
X108063D02*
D03*
X114063D02*
D03*
X120063D02*
D03*
X126063D02*
D03*
X132063D02*
D03*
X138063D02*
D03*
X144063D02*
D03*
X150063D02*
D03*
X303800Y215100D02*
D03*
X306700Y215856D02*
D03*
X183000Y183600D02*
D03*
X179700Y183700D02*
D03*
X177100Y198800D02*
D03*
X165500Y196200D02*
D03*
X176500Y183700D02*
D03*
X208110Y177500D02*
D03*
X184929Y180354D02*
D03*
X211400Y173700D02*
D03*
X218800Y177500D02*
D03*
X199600D02*
D03*
X212000D02*
D03*
X187564Y181564D02*
D03*
X191643Y182755D02*
D03*
X69000Y264000D02*
D03*
Y252000D02*
D03*
Y240000D02*
D03*
Y228000D02*
D03*
Y216000D02*
D03*
Y204000D02*
D03*
Y192000D02*
D03*
Y180000D02*
D03*
Y168000D02*
D03*
Y156000D02*
D03*
X366000Y54000D02*
D03*
X360000D02*
D03*
X354000D02*
D03*
X348000D02*
D03*
X342000D02*
D03*
X336000D02*
D03*
X330000D02*
D03*
X324000D02*
D03*
X318000D02*
D03*
X312000D02*
D03*
X306000D02*
D03*
X300000D02*
D03*
X294000D02*
D03*
X288000D02*
D03*
X282000D02*
D03*
X276000D02*
D03*
X270000D02*
D03*
X264000D02*
D03*
X258000D02*
D03*
X252000D02*
D03*
X246000D02*
D03*
X240000D02*
D03*
X234000D02*
D03*
X228000D02*
D03*
X222000D02*
D03*
X216000D02*
D03*
X210000D02*
D03*
X204000D02*
D03*
X198000D02*
D03*
X192000D02*
D03*
X186000D02*
D03*
X180000D02*
D03*
X174000D02*
D03*
X168000D02*
D03*
X162000D02*
D03*
X156000D02*
D03*
X333000Y276000D02*
D03*
X327000D02*
D03*
X321000D02*
D03*
X315000D02*
D03*
X309000D02*
D03*
X303000D02*
D03*
X291000D02*
D03*
X279000D02*
D03*
X273000D02*
D03*
X267000D02*
D03*
X249000D02*
D03*
X237000D02*
D03*
X225000D02*
D03*
X222000Y270000D02*
D03*
X219000Y276000D02*
D03*
X195000D02*
D03*
X189000D02*
D03*
X177000D02*
D03*
X171000D02*
D03*
X159000D02*
D03*
X153000D02*
D03*
X147000D02*
D03*
X141000D02*
D03*
X135000D02*
D03*
X129000D02*
D03*
X393750Y285000D02*
D03*
X390000Y277500D02*
D03*
X393750Y270000D02*
D03*
Y255000D02*
D03*
Y240000D02*
D03*
Y225000D02*
D03*
Y210000D02*
D03*
Y195000D02*
D03*
Y180000D02*
D03*
Y165000D02*
D03*
Y150000D02*
D03*
X390000Y142500D02*
D03*
Y67500D02*
D03*
X382500Y277500D02*
D03*
Y127500D02*
D03*
Y112500D02*
D03*
Y97500D02*
D03*
Y67500D02*
D03*
X375000Y292500D02*
D03*
X378750Y285000D02*
D03*
X375000Y277500D02*
D03*
X378750Y105000D02*
D03*
Y90000D02*
D03*
Y75000D02*
D03*
X375000Y67500D02*
D03*
X367500Y292500D02*
D03*
X371250Y285000D02*
D03*
X367500Y277500D02*
D03*
Y97500D02*
D03*
X371250Y90000D02*
D03*
X363750Y300000D02*
D03*
Y285000D02*
D03*
X360000Y277500D02*
D03*
Y262500D02*
D03*
X363750Y105000D02*
D03*
X360000Y97500D02*
D03*
X363750Y90000D02*
D03*
X352500Y307500D02*
D03*
X356250Y300000D02*
D03*
X352500Y292500D02*
D03*
Y277500D02*
D03*
X356250Y105000D02*
D03*
X348750Y405000D02*
D03*
Y390000D02*
D03*
Y375000D02*
D03*
Y360000D02*
D03*
Y345000D02*
D03*
Y330000D02*
D03*
Y315000D02*
D03*
Y300000D02*
D03*
Y285000D02*
D03*
Y255000D02*
D03*
X337500Y277500D02*
D03*
X341250Y270000D02*
D03*
Y105000D02*
D03*
X330000Y412500D02*
D03*
X333750Y105000D02*
D03*
X330000Y97500D02*
D03*
X322500Y412500D02*
D03*
X326250Y105000D02*
D03*
Y90000D02*
D03*
X315000Y412500D02*
D03*
X318750Y105000D02*
D03*
X315000Y97500D02*
D03*
X307500Y412500D02*
D03*
X311250Y105000D02*
D03*
X307500Y97500D02*
D03*
X300000Y412500D02*
D03*
X303750Y105000D02*
D03*
X300000Y97500D02*
D03*
X296250Y105000D02*
D03*
X292500Y97500D02*
D03*
X296250Y90000D02*
D03*
X285000Y412500D02*
D03*
X288750Y105000D02*
D03*
X285000Y97500D02*
D03*
X288750Y90000D02*
D03*
X277500Y412500D02*
D03*
X281250Y405000D02*
D03*
Y105000D02*
D03*
X277500Y97500D02*
D03*
X281250Y90000D02*
D03*
X270000Y412500D02*
D03*
X273750Y105000D02*
D03*
X270000Y97500D02*
D03*
X273750Y90000D02*
D03*
X262500Y412500D02*
D03*
Y232500D02*
D03*
Y217500D02*
D03*
X266250Y105000D02*
D03*
X262500Y97500D02*
D03*
X266250Y90000D02*
D03*
X255000Y412500D02*
D03*
X258750Y105000D02*
D03*
X255000Y97500D02*
D03*
X258750Y90000D02*
D03*
X247500Y412500D02*
D03*
X240000D02*
D03*
X243750Y105000D02*
D03*
X240000Y97500D02*
D03*
X243750Y90000D02*
D03*
X232500Y412500D02*
D03*
X236250Y255000D02*
D03*
Y105000D02*
D03*
X225000Y412500D02*
D03*
Y262500D02*
D03*
X228750Y255000D02*
D03*
X225000Y97500D02*
D03*
X217500Y412500D02*
D03*
X221250Y105000D02*
D03*
Y90000D02*
D03*
X210000Y412500D02*
D03*
X213750Y105000D02*
D03*
X210000Y97500D02*
D03*
X213750Y90000D02*
D03*
X202500Y412500D02*
D03*
X206250Y105000D02*
D03*
X202500Y97500D02*
D03*
X206250Y90000D02*
D03*
X195000Y412500D02*
D03*
X198750Y105000D02*
D03*
X195000Y97500D02*
D03*
X198750Y90000D02*
D03*
X187500Y412500D02*
D03*
X191250Y105000D02*
D03*
X187500Y97500D02*
D03*
X191250Y90000D02*
D03*
X180000Y412500D02*
D03*
X183750Y105000D02*
D03*
X180000Y97500D02*
D03*
X183750Y90000D02*
D03*
X176250Y105000D02*
D03*
X172500Y97500D02*
D03*
X176250Y90000D02*
D03*
X165000Y412500D02*
D03*
X168750Y105000D02*
D03*
X165000Y97500D02*
D03*
X168750Y90000D02*
D03*
X157500Y412500D02*
D03*
X161250Y105000D02*
D03*
X157500Y97500D02*
D03*
X161250Y90000D02*
D03*
X150000Y412500D02*
D03*
X153750Y210000D02*
D03*
Y105000D02*
D03*
Y90000D02*
D03*
X142500Y412500D02*
D03*
X146250Y105000D02*
D03*
Y90000D02*
D03*
X135000Y412500D02*
D03*
X138750Y105000D02*
D03*
X135000Y97500D02*
D03*
X138750Y90000D02*
D03*
X131250Y405000D02*
D03*
Y240000D02*
D03*
Y105000D02*
D03*
X127500Y97500D02*
D03*
X131250Y90000D02*
D03*
X123750Y270000D02*
D03*
Y105000D02*
D03*
X120000Y97500D02*
D03*
X123750Y90000D02*
D03*
X116250Y405000D02*
D03*
Y390000D02*
D03*
Y375000D02*
D03*
Y360000D02*
D03*
Y345000D02*
D03*
Y330000D02*
D03*
Y315000D02*
D03*
X112500Y307500D02*
D03*
X116250Y300000D02*
D03*
X112500Y292500D02*
D03*
X116250Y285000D02*
D03*
X112500Y277500D02*
D03*
X116250Y255000D02*
D03*
Y105000D02*
D03*
X108750Y300000D02*
D03*
X105000Y277500D02*
D03*
Y262500D02*
D03*
X108750Y255000D02*
D03*
Y105000D02*
D03*
X105000Y97500D02*
D03*
X101250Y300000D02*
D03*
X97500Y292500D02*
D03*
X101250Y285000D02*
D03*
X97500Y277500D02*
D03*
X101250Y105000D02*
D03*
X97500Y97500D02*
D03*
X101250Y90000D02*
D03*
X90000Y292500D02*
D03*
X93750Y285000D02*
D03*
X90000Y277500D02*
D03*
X93750Y105000D02*
D03*
X90000Y97500D02*
D03*
X93750Y90000D02*
D03*
X90000Y82500D02*
D03*
X86250Y285000D02*
D03*
X82500Y277500D02*
D03*
Y127500D02*
D03*
Y112500D02*
D03*
X86250Y105000D02*
D03*
X82500Y97500D02*
D03*
X86250Y90000D02*
D03*
X82500Y82500D02*
D03*
X86250Y75000D02*
D03*
X82500Y67500D02*
D03*
X75000Y277500D02*
D03*
Y142500D02*
D03*
Y67500D02*
D03*
X213200Y200900D02*
D03*
X102508Y190208D02*
D03*
X273300Y257200D02*
D03*
X204000Y393400D02*
D03*
X197100Y223000D02*
D03*
X289600Y315400D02*
D03*
X275500Y373000D02*
D03*
X208525Y255375D02*
D03*
X212163Y256111D02*
D03*
X210900Y201100D02*
D03*
X217000Y211709D02*
D03*
X191615Y225394D02*
D03*
X188896Y229884D02*
D03*
X279900Y315500D02*
D03*
X290369Y248631D02*
D03*
X207429Y237370D02*
D03*
X283900Y315500D02*
D03*
X293900Y315400D02*
D03*
X304100D02*
D03*
X300100Y315500D02*
D03*
X171600Y307700D02*
D03*
Y311000D02*
D03*
X213400Y296700D02*
D03*
X338300Y307600D02*
D03*
X265700Y307500D02*
D03*
X260500Y307600D02*
D03*
X214862Y234300D02*
D03*
X298400Y345800D02*
D03*
X301300D02*
D03*
X293600Y329400D02*
D03*
X153900Y331500D02*
D03*
X167800Y348700D02*
D03*
X163500Y348900D02*
D03*
X295600Y266620D02*
D03*
X299600Y266300D02*
D03*
X262900Y229100D02*
D03*
X235501Y231200D02*
D03*
X285800Y250900D02*
D03*
X253263Y250293D02*
D03*
X252500Y263300D02*
D03*
X262809Y259409D02*
D03*
X231800Y236900D02*
D03*
X234700Y237500D02*
D03*
X246222Y248323D02*
D03*
X262700Y224300D02*
D03*
X220200Y359100D02*
D03*
X220500Y361984D02*
D03*
X212300Y363100D02*
D03*
X148446Y259771D02*
D03*
X215900Y397300D02*
D03*
X208700Y393900D02*
D03*
X211500Y385100D02*
D03*
X286301Y239697D02*
D03*
X315700Y194800D02*
D03*
X257000Y356600D02*
D03*
X199500Y367700D02*
D03*
X287450Y372800D02*
D03*
X279450Y340100D02*
D03*
X279950Y390700D02*
D03*
X272550Y392200D02*
D03*
X215550Y371500D02*
D03*
X236150Y371300D02*
D03*
X200550Y372800D02*
D03*
X172050Y356600D02*
D03*
X163750Y357000D02*
D03*
X339650Y392700D02*
D03*
X313050Y359200D02*
D03*
X143700Y404000D02*
D03*
X341250Y383500D02*
D03*
Y357500D02*
D03*
Y344500D02*
D03*
Y318500D02*
D03*
X338000Y286000D02*
D03*
X331500Y377000D02*
D03*
Y286000D02*
D03*
X325000Y403000D02*
D03*
X328250Y383500D02*
D03*
X318500Y403000D02*
D03*
X321750Y396500D02*
D03*
Y383500D02*
D03*
Y331500D02*
D03*
Y318500D02*
D03*
Y305500D02*
D03*
X312000Y403000D02*
D03*
X315250Y396500D02*
D03*
Y305500D02*
D03*
X308750Y396500D02*
D03*
Y357500D02*
D03*
X305500Y299000D02*
D03*
X299000Y390000D02*
D03*
Y364000D02*
D03*
X302250Y357500D02*
D03*
X299000Y351000D02*
D03*
X292500Y390000D02*
D03*
X289250Y357500D02*
D03*
X282750Y370500D02*
D03*
X279500Y286000D02*
D03*
X273000Y403000D02*
D03*
Y312000D02*
D03*
X266500Y403000D02*
D03*
X269750Y396500D02*
D03*
Y383500D02*
D03*
X260000Y403000D02*
D03*
X263250Y396500D02*
D03*
Y383500D02*
D03*
X260000Y377000D02*
D03*
X253500Y403000D02*
D03*
X256750Y396500D02*
D03*
X253500Y390000D02*
D03*
X256750Y383500D02*
D03*
Y370500D02*
D03*
X247000Y403000D02*
D03*
X250250Y396500D02*
D03*
Y383500D02*
D03*
X240500Y403000D02*
D03*
X243750Y396500D02*
D03*
X234000Y403000D02*
D03*
X237250Y396500D02*
D03*
X221000Y286000D02*
D03*
X214500Y403000D02*
D03*
Y377000D02*
D03*
X208000Y403000D02*
D03*
X211250Y396500D02*
D03*
X208000Y390000D02*
D03*
X211250Y370500D02*
D03*
X208000Y351000D02*
D03*
X201500Y403000D02*
D03*
X204750Y396500D02*
D03*
X201500Y364000D02*
D03*
X195000Y403000D02*
D03*
X198250Y383500D02*
D03*
X195000Y325000D02*
D03*
Y286000D02*
D03*
X188500Y390000D02*
D03*
Y377000D02*
D03*
Y286000D02*
D03*
X182000Y390000D02*
D03*
X175500D02*
D03*
X178750Y383500D02*
D03*
X169000Y390000D02*
D03*
X172250Y383500D02*
D03*
X169000Y364000D02*
D03*
X162500Y390000D02*
D03*
X165750Y383500D02*
D03*
X162500Y364000D02*
D03*
X156000Y403000D02*
D03*
Y390000D02*
D03*
X149500Y403000D02*
D03*
X152750Y396500D02*
D03*
X146250D02*
D03*
Y305500D02*
D03*
X139750Y396500D02*
D03*
Y370500D02*
D03*
Y305500D02*
D03*
X136500Y286000D02*
D03*
X133250Y396500D02*
D03*
X130000Y325000D02*
D03*
Y286000D02*
D03*
X123500Y390000D02*
D03*
Y364000D02*
D03*
Y351000D02*
D03*
Y338000D02*
D03*
Y325000D02*
D03*
X126750Y318500D02*
D03*
X123500Y312000D02*
D03*
Y299000D02*
D03*
X289299Y211300D02*
D03*
X281400Y167600D02*
D03*
X293100Y211200D02*
D03*
X207600Y305200D02*
D03*
X221600Y309100D02*
D03*
X211500Y311926D02*
D03*
X214400Y311900D02*
D03*
X254400Y354400D02*
D03*
X251200Y354700D02*
D03*
X249685Y342885D02*
D03*
X263300Y363100D02*
D03*
X246200Y350500D02*
D03*
X258224Y333785D02*
D03*
X254592Y336798D02*
D03*
X257485Y336590D02*
D03*
X250000Y351800D02*
D03*
X222500Y293500D02*
D03*
X213100Y292800D02*
D03*
X151700Y226369D02*
D03*
X215400Y166500D02*
D03*
X267400Y164900D02*
D03*
X341700Y202000D02*
D03*
X180640Y251900D02*
D03*
X330600Y185500D02*
D03*
X336519Y192890D02*
D03*
X140500Y205300D02*
D03*
X133300Y205100D02*
D03*
X187900Y218900D02*
D03*
X329500Y260400D02*
D03*
X96494Y131891D02*
D03*
X104194Y131691D02*
D03*
X93600Y166400D02*
D03*
X78300Y170200D02*
D03*
X93000Y147200D02*
D03*
X111800Y140900D02*
D03*
X112500Y155000D02*
D03*
X110000Y150000D02*
D03*
X112500Y145000D02*
D03*
X107500Y155000D02*
D03*
Y145000D02*
D03*
X90000Y150000D02*
D03*
X100400Y131900D02*
D03*
X111500Y130900D02*
D03*
X297900Y248300D02*
D03*
X224400Y217600D02*
D03*
X318100Y167100D02*
D03*
X108600Y228500D02*
D03*
X105700Y228300D02*
D03*
X222100Y167100D02*
D03*
X237300Y178000D02*
D03*
X309700Y188900D02*
D03*
X312300Y213600D02*
D03*
X311623Y250363D02*
D03*
X204571Y211075D02*
D03*
X266700Y245900D02*
D03*
X185900Y245100D02*
D03*
X185700Y241700D02*
D03*
X200500Y252300D02*
D03*
X84800Y231700D02*
D03*
X126575Y239961D02*
D03*
X175800Y247900D02*
D03*
X191989Y250926D02*
D03*
X186000Y249900D02*
D03*
X87800Y234200D02*
D03*
X112500Y202300D02*
D03*
X114800Y183300D02*
D03*
X110000Y183200D02*
D03*
X227600Y383900D02*
D03*
X227800Y402500D02*
D03*
X223100Y402300D02*
D03*
X245000Y375600D02*
D03*
X239500D02*
D03*
X246800Y395400D02*
D03*
X240600Y395600D02*
D03*
X111500Y246900D02*
D03*
X106600Y247000D02*
D03*
X192400Y203900D02*
D03*
X187100Y204000D02*
D03*
X229400Y217300D02*
D03*
X294400Y194033D02*
D03*
X112500Y125000D02*
D03*
X110000Y120000D02*
D03*
X112500Y168000D02*
D03*
X111000Y165000D02*
D03*
X109500Y168000D02*
D03*
X108000Y165000D02*
D03*
X106500Y168000D02*
D03*
X78000Y165000D02*
D03*
X256900Y290300D02*
D03*
X264665Y265453D02*
D03*
X343400Y169200D02*
D03*
X252063Y170137D02*
D03*
X255200Y167900D02*
D03*
X295100Y170500D02*
D03*
X326300Y169700D02*
D03*
X323300Y188700D02*
D03*
X321613Y192133D02*
D03*
X327400Y192800D02*
D03*
X319815Y228634D02*
D03*
X315800Y229200D02*
D03*
X303400Y251500D02*
D03*
X299400Y168000D02*
D03*
X307000Y251000D02*
D03*
X341137Y194137D02*
D03*
X327794Y200894D02*
D03*
X312200Y173300D02*
D03*
X315500Y172300D02*
D03*
X311300Y179200D02*
D03*
X82500Y256900D02*
D03*
X97900Y191400D02*
D03*
X185365Y210531D02*
D03*
X196700Y236400D02*
D03*
X148991Y209646D02*
D03*
X154300Y265800D02*
D03*
X158100Y256800D02*
D03*
X167379Y261839D02*
D03*
X141399Y256001D02*
D03*
X253274Y219501D02*
D03*
X245100Y221700D02*
D03*
X146200Y250600D02*
D03*
X146800Y225900D02*
D03*
X249500Y218400D02*
D03*
X261300Y179680D02*
D03*
X270421Y180657D02*
D03*
X288500Y230700D02*
D03*
X285200Y230300D02*
D03*
X281700Y238500D02*
D03*
X281791Y218110D02*
D03*
X282311Y254900D02*
D03*
X181981Y173426D02*
D03*
X308042Y261396D02*
D03*
X325603Y262068D02*
D03*
X185341Y261986D02*
D03*
X270200Y211000D02*
D03*
X226500Y212000D02*
D03*
X276900Y199800D02*
D03*
X251752Y178648D02*
D03*
X171779Y163521D02*
D03*
X149400Y158100D02*
D03*
X267712Y241672D02*
D03*
X212300Y247100D02*
D03*
X161417Y218701D02*
D03*
X99900Y247300D02*
D03*
X316200Y240800D02*
D03*
X196683Y252097D02*
D03*
X173200Y209600D02*
D03*
X200984Y261122D02*
D03*
X302500Y209000D02*
D03*
X334791Y180791D02*
D03*
X287231Y202569D02*
D03*
X222861Y202761D02*
D03*
X169193Y209547D02*
D03*
X123327Y240059D02*
D03*
X160925Y209055D02*
D03*
X164370D02*
D03*
X85628Y191609D02*
D03*
X81790Y190624D02*
D03*
X87697Y214961D02*
D03*
X87598Y210039D02*
D03*
X98819Y203150D02*
D03*
X341929Y157972D02*
D03*
X290059D02*
D03*
X252264Y158169D02*
D03*
X239616Y284203D02*
D03*
X236516Y284252D02*
D03*
X197043Y219900D02*
D03*
X192900Y366300D02*
D03*
X235678Y366910D02*
D03*
X233800Y364700D02*
D03*
X254800Y374700D02*
D03*
X262985Y372985D02*
D03*
X229569Y381469D02*
D03*
X257600Y391900D02*
D03*
X225600Y373200D02*
D03*
X267200Y365000D02*
D03*
X195300Y373400D02*
D03*
X194300Y397600D02*
D03*
X190000Y386300D02*
D03*
X205438Y371362D02*
D03*
Y381638D02*
D03*
X206500Y364700D02*
D03*
X283900Y385400D02*
D03*
X268600Y378800D02*
D03*
X268202Y391207D02*
D03*
X270004Y386973D02*
D03*
X223395Y364090D02*
D03*
X225295Y381890D02*
D03*
X251220Y375138D02*
D03*
X215945Y383957D02*
D03*
X99000Y197400D02*
D03*
X248000Y294500D02*
D03*
X246000Y299300D02*
D03*
X241220Y289604D02*
D03*
X238269Y294012D02*
D03*
X188263Y210059D02*
D03*
X191400Y231800D02*
D03*
X147300Y232700D02*
D03*
X328799Y395701D02*
D03*
X176046Y255771D02*
D03*
X182000Y261300D02*
D03*
X99602Y236898D02*
D03*
X171446Y260871D02*
D03*
X136700Y393800D02*
D03*
X123700Y380200D02*
D03*
X323100Y393400D02*
D03*
X340100Y373100D02*
D03*
X149500Y325000D02*
D03*
X260700Y250818D02*
D03*
X248867Y283567D02*
D03*
X177289Y335300D02*
D03*
X217449Y306400D02*
D03*
X254900Y311800D02*
D03*
X155225Y370275D02*
D03*
X250400Y294500D02*
D03*
X266400Y297300D02*
D03*
X282302Y259102D02*
D03*
X141400Y260800D02*
D03*
X133402Y372911D02*
D03*
X135900Y374900D02*
D03*
X242300Y188500D02*
D03*
X239000Y194518D02*
D03*
X195600Y359800D02*
D03*
X235300Y358954D02*
D03*
X129701Y358201D02*
D03*
X162600Y314100D02*
D03*
X334300Y307400D02*
D03*
X307786Y312814D02*
D03*
X226993Y295118D02*
D03*
X195800Y307400D02*
D03*
X232100Y295400D02*
D03*
X241710Y350657D02*
D03*
X242700Y354000D02*
D03*
X221334Y299372D02*
D03*
X227796Y355600D02*
D03*
X224900Y297300D02*
D03*
X217000Y350100D02*
D03*
X223796Y354787D02*
D03*
X220000Y355700D02*
D03*
X329524Y348200D02*
D03*
X335500Y352000D02*
D03*
X303900Y306300D02*
D03*
X293754Y306946D02*
D03*
X283705Y306095D02*
D03*
X273143Y307157D02*
D03*
X282900Y292900D02*
D03*
X262432Y297232D02*
D03*
X259472Y299928D02*
D03*
X200700Y347400D02*
D03*
X235900Y362100D02*
D03*
X247859Y290059D02*
D03*
X277500Y357200D02*
D03*
X163600Y344800D02*
D03*
X149300Y310400D02*
D03*
X160600Y324600D02*
D03*
X151841Y316300D02*
D03*
X132972Y250984D02*
D03*
X112400Y215700D02*
D03*
X179800Y293500D02*
D03*
X185000Y292500D02*
D03*
X143300Y294600D02*
D03*
X165500Y292500D02*
D03*
X136433Y316378D02*
D03*
X137600Y297200D02*
D03*
X155300Y292700D02*
D03*
X152300Y293900D02*
D03*
X170300Y294700D02*
D03*
X170349Y325851D02*
D03*
X172400Y323800D02*
D03*
X165800Y325000D02*
D03*
X173999Y293267D02*
D03*
X204600Y300000D02*
D03*
X218858Y302334D02*
D03*
X220000Y305000D02*
D03*
X208245Y314406D02*
D03*
X204600Y316000D02*
D03*
X155841Y316372D02*
D03*
X142849Y316400D02*
D03*
X207100Y319838D02*
D03*
X202400Y321900D02*
D03*
X140000Y325700D02*
D03*
X146392Y316400D02*
D03*
X133126Y316362D02*
D03*
X129800Y310300D02*
D03*
X139700D02*
D03*
X180000Y307900D02*
D03*
X187700Y300700D02*
D03*
X210900Y355200D02*
D03*
X191985Y357500D02*
D03*
X144700Y355900D02*
D03*
X141100Y355500D02*
D03*
X137900Y330000D02*
D03*
X160300Y293200D02*
D03*
X140700Y292500D02*
D03*
X131200Y290700D02*
D03*
X163700Y301300D02*
D03*
X163900Y261400D02*
D03*
X178800Y298200D02*
D03*
X155100Y361800D02*
D03*
X156500Y385600D02*
D03*
X134900Y332800D02*
D03*
X141800Y344800D02*
D03*
X138891Y349700D02*
D03*
X158000Y356300D02*
D03*
X187400Y369750D02*
D03*
X138234Y377534D02*
D03*
X187400Y372650D02*
D03*
X137207Y381524D02*
D03*
X197749Y328749D02*
D03*
X199800Y330800D02*
D03*
X174660Y379524D02*
D03*
X143900Y383524D02*
D03*
X126549Y341549D02*
D03*
X128600Y343600D02*
D03*
X172609Y376609D02*
D03*
X139900Y382600D02*
D03*
X206900Y333900D02*
D03*
X209800Y336400D02*
D03*
X219009Y338509D02*
D03*
X209600Y342400D02*
D03*
X212100Y345000D02*
D03*
X214600Y347300D02*
D03*
X232891Y350955D02*
D03*
X226400Y344900D02*
D03*
X328300Y178400D02*
D03*
X285300Y179200D02*
D03*
X292500Y172500D02*
D03*
X290200Y178600D02*
D03*
X276900Y166661D02*
D03*
X344700Y163500D02*
D03*
X287700Y259000D02*
D03*
X274200Y286800D02*
D03*
X242600Y296100D02*
D03*
X139600Y360200D02*
D03*
X182700Y375100D02*
D03*
Y384500D02*
D03*
X233760Y291142D02*
D03*
X226000Y288300D02*
D03*
X248000Y200900D02*
D03*
X250900D02*
D03*
X249439Y299631D02*
D03*
X281000Y196300D02*
D03*
X266700Y326500D02*
D03*
X311600Y261600D02*
D03*
X190853Y167456D02*
D03*
X204100Y295500D02*
D03*
X197681Y158097D02*
D03*
X240200Y220100D02*
D03*
X237200Y188100D02*
D03*
X230000Y192800D02*
D03*
X265900Y250000D02*
D03*
X250300Y302400D02*
D03*
X254600Y304500D02*
D03*
X243800Y179100D02*
D03*
X256991Y314209D02*
D03*
X259243Y316600D02*
D03*
X266800Y200200D02*
D03*
X281000Y209200D02*
D03*
X278732Y237738D02*
D03*
X263600Y313100D02*
D03*
X291900Y382100D02*
D03*
X292100Y385600D02*
D03*
X281900Y357900D02*
D03*
X296600Y190100D02*
D03*
X277450Y188250D02*
D03*
X260774Y187271D02*
D03*
X267453Y335553D02*
D03*
X265179Y337900D02*
D03*
X287191Y325091D02*
D03*
X276500Y328500D02*
D03*
X289313Y334600D02*
D03*
X246600Y353400D02*
D03*
X271666Y335366D02*
D03*
X312300Y321500D02*
D03*
X310700Y326600D02*
D03*
X193600Y260500D02*
D03*
X200295Y286713D02*
D03*
X330000Y309300D02*
D03*
X328000Y297900D02*
D03*
X308200Y296300D02*
D03*
X319800Y309291D02*
D03*
Y312598D02*
D03*
X317800Y357600D02*
D03*
X315800Y316700D02*
D03*
X322300Y293800D02*
D03*
X325300Y338700D02*
D03*
X297018Y321829D02*
D03*
X291700Y373600D02*
D03*
Y294300D02*
D03*
X294600Y295200D02*
D03*
X295200Y379400D02*
D03*
X294400Y356900D02*
D03*
X287900Y292727D02*
D03*
X288000Y303400D02*
D03*
X336700Y320100D02*
D03*
X330800Y314700D02*
D03*
Y317600D02*
D03*
X327200Y377100D02*
D03*
X324100Y373400D02*
D03*
X329852Y356052D02*
D03*
X332700Y356600D02*
D03*
X326900Y358700D02*
D03*
X329000Y371400D02*
D03*
X327300Y373800D02*
D03*
X307600Y383300D02*
D03*
X338500Y338000D02*
D03*
X313500Y345200D02*
D03*
X282706Y346675D02*
D03*
X327530Y294073D02*
D03*
X312963Y293876D02*
D03*
X317294Y294172D02*
D03*
X301818Y293713D02*
D03*
X278908Y291613D02*
D03*
X277588Y346675D02*
D03*
X235500Y200200D02*
D03*
X262500Y200748D02*
D03*
X206700Y158800D02*
D03*
X278445Y157874D02*
D03*
X272244Y200394D02*
D03*
X248622Y178248D02*
D03*
X247933Y135827D02*
D03*
X131100Y235100D02*
D03*
X152500Y223100D02*
D03*
X107677Y211910D02*
D03*
X183900Y170000D02*
D03*
X200400Y155700D02*
D03*
X125318Y215818D02*
D03*
X320900Y134900D02*
D03*
X321000Y158900D02*
D03*
X321700Y170500D02*
D03*
X279100Y193900D02*
D03*
X124113Y185600D02*
D03*
X131200Y185500D02*
D03*
X232400Y141000D02*
D03*
X228000Y130300D02*
D03*
X224606Y132300D02*
D03*
X201900Y148700D02*
D03*
X207000Y166300D02*
D03*
X175300Y219416D02*
D03*
X272400Y236000D02*
D03*
X175192Y216928D02*
D03*
X137303Y225689D02*
D03*
X271400Y149800D02*
D03*
X280413Y221555D02*
D03*
X147300Y237800D02*
D03*
X313900Y209500D02*
D03*
X299600Y228300D02*
D03*
X293100Y205600D02*
D03*
X317400Y247700D02*
D03*
X269700Y220900D02*
D03*
X236583Y209659D02*
D03*
X240583Y209700D02*
D03*
X87695Y173597D02*
D03*
X318307Y190133D02*
D03*
X202461Y201870D02*
D03*
X203761Y170221D02*
D03*
X262106Y221161D02*
D03*
X257496Y251311D02*
D03*
X253496Y137055D02*
D03*
X202071Y265260D02*
D03*
X208563Y292421D02*
D03*
X287402Y218110D02*
D03*
X247234Y359009D02*
D03*
X172146Y235433D02*
D03*
X175984Y230318D02*
D03*
X273327Y141732D02*
D03*
X87992Y239370D02*
D03*
X88779Y249213D02*
D03*
X87205Y219390D02*
D03*
X240059Y224114D02*
D03*
X172343Y244094D02*
D03*
X115748Y180118D02*
D03*
X116634Y203937D02*
D03*
X106791Y177657D02*
D03*
X124606Y167028D02*
D03*
X118504Y175000D02*
D03*
X310039Y149606D02*
D03*
X301279Y131890D02*
D03*
X301584Y157380D02*
D03*
X298524Y157874D02*
D03*
X283563Y158268D02*
D03*
X281496Y133563D02*
D03*
X281502Y154921D02*
D03*
X279232Y149213D02*
D03*
X268110Y134843D02*
D03*
X261319Y133661D02*
D03*
X261811Y157579D02*
D03*
X248917Y158169D02*
D03*
X228346Y159449D02*
D03*
X220276Y154724D02*
D03*
X224080Y157956D02*
D03*
X212795Y148622D02*
D03*
X219685Y149016D02*
D03*
X209744Y129921D02*
D03*
X209819Y157084D02*
D03*
X196161Y130512D02*
D03*
X212894Y157480D02*
D03*
X191667Y157634D02*
D03*
X190748Y132776D02*
D03*
X181398Y156496D02*
D03*
X180118Y145079D02*
D03*
X190453Y148032D02*
D03*
D226*
X182231Y219300D02*
D03*
X204349Y229562D02*
D03*
D227*
X307075Y241642D02*
D03*
Y237311D02*
D03*
X302744Y241642D02*
D03*
Y237311D02*
D03*
X253198Y237362D02*
D03*
Y241693D02*
D03*
X257528Y237362D02*
D03*
Y241693D02*
D03*
D228*
X232771Y339780D02*
D03*
X236390Y343399D02*
D03*
X254137Y325374D02*
D03*
X232632Y311245D02*
D03*
X236251Y307626D02*
D03*
X243489Y314864D02*
D03*
X239870Y311245D02*
D03*
Y318483D02*
D03*
X236251Y314864D02*
D03*
Y322103D02*
D03*
X232632Y318483D02*
D03*
X229013Y314864D02*
D03*
X232980Y325652D02*
D03*
X229361Y322033D02*
D03*
X225742Y318414D02*
D03*
X229361Y329271D02*
D03*
X225742Y325652D02*
D03*
X222123Y322033D02*
D03*
X225742Y332890D02*
D03*
X222123Y329271D02*
D03*
X218503Y325652D02*
D03*
X250518Y321755D02*
D03*
X246899Y318136D02*
D03*
X250518Y328993D02*
D03*
X246899Y325374D02*
D03*
X243280Y321755D02*
D03*
X246899Y332612D02*
D03*
X243280Y328993D02*
D03*
X239661Y325374D02*
D03*
X243628Y336161D02*
D03*
X240009Y332542D02*
D03*
X236390Y328923D02*
D03*
X240009Y339780D02*
D03*
X236390Y336161D02*
D03*
X232771Y332542D02*
D03*
X229152Y336161D02*
D03*
M02*
