M48
;Layer_Color=9474304
;FILE_FORMAT=2:5
INCH,LZ
;TYPE=PLATED
T1F00S00C0.00787
T2F00S00C0.00984
T3F00S00C0.01000
T4F00S00C0.02165
T5F00S00C0.03200
;TYPE=NON_PLATED
T8F00S00C0.10000
%
T01
X0253198Y0237362
Y0241693
X0257528
Y0237362
X0302744Y0237311
X0307075
Y0241642
X0302744
T02
X0236251Y0307626
X0232632Y0311245
X023987
X0243489Y0314864
X0246899Y0318136
X0250518Y0321755
Y0328993
X0246899Y0325374
X024328Y0321755
X023987Y0318483
X0239661Y0325374
X0236251Y0322103
X023298Y0325652
X023639Y0328923
X024328Y0328993
X0240009Y0332542
X0246899Y0332612
X0243628Y0336161
X0240009Y033978
X023639Y0336161
X0232771Y033978
Y0332542
X0229361Y0329271
X0229152Y0336161
X0225742Y033289
Y0325652
X0229361Y0322033
X0232632Y0318483
X0225742Y0318414
X0229013Y0314864
X0236251
X0222123Y0322033
Y0329271
X0218503Y0325652
X023639Y0343399
X0254137Y0325374
T03
X0075Y00675
X00825
X008625Y0075
X009Y00825
X00825
X008625Y009
X009375
X010125
X0105Y00975
X00975
X009
X00825
X008625Y0105
X009375
X010125
X010875
X011625
X012375
X013125
X013875
X014625
X015375
Y009
X014625
X013875
X013125
X012375
X01275Y00975
X0135
X012
X011Y012
X01125Y0125
X01115Y01309
X0104194Y0131691
X01004Y01319
X0096494Y0131891
X00825Y01275
Y01125
X0075Y01425
X0069Y0156
X009Y015
X0093Y01472
X01075Y0145
X01125
X01118Y01409
X011Y015
X01125Y0155
X01075
X0108063Y0054323
X0102063
X0096563Y0054423
X0114063Y0054323
X0120063
X0126063
X0132063
X0138063
X0144063
X0150063
X0156Y0054
X0162
X0168
X0174
X018
X0186
X0192
X0198
X0204
X021
X0216
X0222
X0228
X0234
X024
X0246
X0252
X0258
X0264
X027
X0276
X0282
X0288
X0294
X03
X0306
X0312
X03075Y00975
X03
X02925
X0285
X02775
X027
X02625
X0255
X025875Y0105
X026625
X027375
X028125
X028875
X029625
X030375
X031125
X029625Y009
X028875
X028125
X027375
X026625
X025875
X024375
X024Y00975
X024375Y0105
X023625
X022125
X021375
X020625
X019875
X019125
X018375
X017625
X016875
X016125
X0165Y00975
X01725
X018
X01875
X0195
X02025
X021
X021375Y009
X022125
X0225Y00975
X020625Y009
X019875
X019125
X018375
X017625
X016875
X016125
X01575Y00975
X0190748Y0132776
X0196161Y0130512
X0209744Y0129921
X0224606Y01323
X0228Y01303
X02324Y0141
X0247933Y0135827
X0253496Y0137055
X0261319Y0133661
X026811Y0134843
X0273327Y0141732
X02714Y01498
X0279232Y0149213
X0281502Y0154921
X0281496Y0133563
X0301279Y013189
X0310039Y0149606
X0219685Y0149016
X0220276Y0154724
X0212795Y0148622
X02019Y01487
X02004Y01557
X0190453Y0148032
X0180118Y0145079
X03209Y01349
X03293Y0133
X0339Y01292
X03552Y01364
X0353064Y0140236
X03526Y01433
X03551Y01463
X03588Y01462
X03673Y01455
X03732Y01367
X03825Y01425
X039
X039375Y015
X03825Y01275
Y01125
X037875Y0105
X037125
X036375
X035625
X036Y00975
X03675
X037125Y009
X037875
X03825Y00975
X037875Y0075
X03825Y00675
X039
X0375
X0366Y0054
X036
X0354
X0348
X0342
X0336
X033
X0324
X0318
X032625Y009
X033Y00975
X033375Y0105
X034125
Y009
X036375
X0361832Y01217
X03556Y01214
X032625Y0105
X031875
X0315Y00975
X03322Y0146
X0335Y01581
X0338293Y0158107
X0341929Y0157972
X03447Y01635
X03434Y01692
X0340716Y0182516
X0334791Y0180791
X03283Y01784
X03245Y01778
X03263Y01697
X03217Y01705
X03181Y01671
X03155Y01723
X0317452Y0158046
X0321Y01589
X03233Y01887
X0321613Y0192133
X0318307Y0190133
X03157Y01948
X03171Y0201
X03207Y02063
X03245Y02062
X03287Y02046
X0327794Y0200894
X03274Y01928
X03336Y0192
X0336519Y019289
X033871Y0190991
X0341137Y0194137
X03417Y0202
X0344144Y0203562
X0342729Y0208929
X0344396Y0212958
X0343Y02155
X03499Y02207
X03528Y0221938
X0352561Y0224828
X0349791Y0225687
X03514Y02281
X03518Y02313
X03506Y02344
X03501Y02382
X0355079Y023887
X0360416Y0240716
X0363666Y0239892
X03649Y02371
X0367804Y02394
X0370538Y02405
X03713Y02259
X03711Y02215
X0371194Y0217407
X0366831Y0218408
X0364018Y0217705
X0354976Y0217476
X0355483Y02208
X03517Y02081
X03575Y01945
X03779Y01955
Y01915
X039375Y0195
Y021
X03828Y02095
X03863Y02209
X039375Y0225
Y024
X0384575Y0237575
X03845Y02345
X03839Y02304
X0380766Y0245965
X03801Y025
X03837Y02505
X03833Y0259786
X03878Y02595
X039375Y0255
Y027
X039Y02775
X03825
X0375
X03675
X036
X03525
X034875Y0285
X03525Y02925
X035625Y03
X036375
X03675Y02925
X0375
X037875Y0285
X037125
X036375
X036Y02625
X0356Y02562
X034875Y0255
X0345221Y0248882
X03422Y0249
X03426Y02458
X0342699Y0242614
X0340233Y0241088
X0340895Y0238264
X034051Y023539
X03352Y02373
X03323Y02358
X03286Y0229983
X03289Y02269
X0325377Y0225125
X03215Y02253
X0319815Y0228634
X03158Y02292
X03162Y02408
X03174Y02477
X0316844Y0251357
X0328437Y0248712
X03335Y0248
X033375Y0255024
X03295Y02604
X0325603Y0262068
X0327Y0276
X0333
X03375Y02775
X0338Y0286
X03315
X032753Y0294073
X0328Y02979
X03223Y02938
X0317294Y0294172
X0312963Y0293876
X031525Y03055
X032175
X03198Y0309291
X033Y03093
X03343Y03074
X03383Y03076
X03525Y03075
X034875Y03
X034125Y027
X0321Y0276
X0315
X0348281Y02455
X0335776Y02267
X0335976Y0221
X03139Y02095
X03306Y01855
X03647Y01681
X0378Y016995
Y016595
X039375Y0165
Y018
Y0285
X0309Y0276
X0303
X0291
X0279
X0273
X0267
X0264665Y0265453
X0262809Y0259409
X02607Y0250818
X0257496Y0251311
X0253263Y0250293
X0246222Y0248323
X023625Y0255
X022875
X0225Y02625
X0222Y027
X0225Y0276
X0219
X0221Y0286
X0226Y02883
X0226993Y0295118
X02249Y02973
X0221334Y0299372
X0218858Y0302334
X022Y0305
X0217449Y03064
X02216Y03091
X02144Y03119
X02115Y0311926
X02076Y03052
X02046Y03
X02041Y02955
X0208563Y0292421
X02131Y02928
X02134Y02967
X02225Y02935
X02321Y02954
X023376Y0291142
X0238269Y0294012
X02426Y02961
X0246Y02993
X0249439Y0299631
X02503Y03024
X02546Y03045
X02549Y03118
X02605Y03076
X02657Y03075
X0273143Y0307157
X0273Y0312
X0283705Y0306095
X0288Y03034
X0293754Y0306946
X03039Y03063
X03055Y0299
X03082Y02963
X0301818Y0293713
X02946Y02952
X02917Y02943
X02879Y0292727
X02829Y02929
X0278908Y0291613
X02795Y0286
X02742Y02868
X02664Y02973
X0262432Y0297232
X0259472Y0299928
X02583Y02952
X02569Y02903
X0247859Y0290059
X0248Y02945
X02504
X0248867Y0283567
X0249Y0276
X0237
X0236516Y0284252
X0239616Y0284203
X024122Y0289604
X02525Y02633
X02659Y025
X02667Y02459
X0267712Y0241672
X02691Y0235
X02724Y0236
X0275486Y0237089
X0278732Y0237738
X02817Y02385
X0286301Y0239697
X02916Y02345
X02936Y02322
X02885Y02307
X02852Y02303
X0280413Y0221555
X0281791Y021811
X0281876Y0214476
X0281Y02092
X027555Y0210375
X02702Y0211
X02697Y02209
X02715Y02254
X02627Y02243
X0262106Y0221161
X02625Y02175
X0253274Y0219501
X02495Y02184
X02451Y02217
X02402Y02201
X0240059Y0224114
X02466Y022882
X0250244Y0227941
X02522Y02258
X0254301Y0227799
X02629Y02291
X02625Y02325
X0235501Y02312
X02347Y02375
X02318Y02369
X02248Y02354
X02206Y02363
X02175Y02358
X0214862Y02343
X02178Y02288
X021697Y0225631
X02176Y02223
X0217Y0211709
X0214009Y0212331
X02215Y02148
X02244Y02176
X02294Y02173
X02265Y0212
X02334Y02091
X0236583Y0209659
X0240583Y02097
X02355Y02002
X0239Y0194518
X02372Y01881
X02423Y01885
X02438Y01791
X0248622Y0178248
X0251752Y0178648
X0252063Y0170137
X02552Y01679
X0252264Y0158169
X0248917
X0244861Y0158143
X02374Y01584
X0228346Y0159449
X022408Y0157956
X0221Y0158
X0212894Y015748
X0209819Y0157084
X02067Y01588
X02027Y01584
X0197681Y0158097
X0191667Y0157634
X0190853Y0167456
X01856Y01667
X01839Y017
X0181981Y0173426
X0184929Y0180354
X0187564Y0181564
X0191643Y0182755
X0183Y01836
X01797Y01837
X01765
X01771Y01988
X01655Y01962
X016437Y0209055
X0160925
X0169193Y0209547
X01732Y02096
X01821
X0185365Y0210531
X0188263Y0210059
X01871Y0204
X01924Y02039
X0202461Y020187
X02109Y02011
X02132Y02009
X0222861Y0202761
X023Y01928
X02289Y01787
X022834Y01704
X02323
X023845Y017235
X02423Y01697
X02373Y0178
X02188Y01775
X0212
X020811
X020887Y0172283
X02114Y01737
X0212193Y0169706
X02102Y01676
X0207Y01663
X0203761Y0170221
X01996Y01775
X01973Y01925
Y01965
X0204571Y0211075
X0197043Y02199
X01971Y0223
X0191615Y0225394
X01914Y02318
X0188896Y0229884
X0186Y02351
X01857Y02417
X01859Y02451
X0186Y02499
X0191989Y0250926
X0196683Y0252097
X02005Y02523
X0200984Y0261122
X0202071Y026526
X01936Y02605
X0185341Y0261986
X0182Y02613
X018064Y02519
X0176046Y0255771
X01758Y02479
X0172343Y0244094
X0172146Y0235433
X0175984Y0230318
X01809Y02292
X0182231Y02193
X01879Y02189
X01753Y0219416
X0175192Y0216928
X0161417Y0218701
X01581Y02568
X01639Y02614
X0167379Y0261839
X0171446Y0260871
X0171Y0276
X0177
X0189
X0195
Y0286
X0200295Y0286713
X01885Y0286
X0185Y02925
X01798Y02935
X01788Y02982
X0173999Y0293267
X01703Y02947
X01655Y02925
X01603Y02932
X01637Y03013
X01716Y03077
Y0311
X018Y03079
X01877Y03007
X01958Y03074
X0208525Y0255375
X0212163Y0256111
X02123Y02471
X0210121Y02385
X0207429Y023737
X02014Y02369
X01967Y02364
X0204349Y0229562
X0216927Y0189
X02159Y01701
X02154Y01665
X02221Y01671
X02674Y01649
X0265593Y0158278
X0261811Y0157579
X0273687Y0157621
X0278445Y0157874
X0283563Y0158268
X0290059Y0157972
X0293Y01576
X0298524Y0157874
X0301584Y015738
X0304418Y0157995
X0308701Y0157623
X0312Y0158
X03087Y01668
X03122Y01733
X03113Y01792
X03071Y0179
X03097Y01889
X02966Y01901
X0297338Y0195
X02944Y0194033
X02931Y02056
Y02112
X0289299Y02113
X0287402Y021811
X0287231Y0202569
X0281Y01963
X02791Y01939
X027745Y018825
X02769Y01998
X0272244Y0200394
X02668Y02002
X02625Y0200748
X02509Y02009
X0248
X0260774Y0187271
X02613Y017968
X0270421Y0180657
X02853Y01792
X02902Y01786
X02925Y01725
X02951Y01705
X02994Y0168
X02814Y01676
X02769Y0166661
X03025Y0209
X03038Y02151
X03067Y0215856
X03123Y02136
X02996Y02283
X02979Y02483
X0295Y0247
X0290369Y0248631
X02858Y02509
X0282311Y02549
X0282302Y0259102
X02831Y02626
X02877Y0259
X02956Y026662
X02996Y02663
X0308042Y0261396
X03116Y02616
X0311623Y0250363
X0307Y0251
X03034Y02515
X02733Y02517
Y02572
X0159Y0276
X0171779Y0163521
X01759Y01633
X0181398Y0156496
X01494Y01581
X0124606Y0167028
X01125Y0168
X01095
X01065
X0108Y0165
X0111
X0106791Y0177657
X011Y01832
X01148Y01833
X0115748Y0180118
X0118504Y0175
X0124113Y01856
X01312Y01855
X01333Y02051
X01405Y02053
X0148991Y0209646
X015375Y021
X01525Y02231
X01517Y0226369
X01468Y02259
X01473Y02327
Y02378
X01462Y02506
X0141399Y0256001
X01414Y02608
X0148446Y0259771
X01509Y02659
X01543Y02658
X0153Y0276
X0147
X0141
X0135
X0129
X013Y0286
X01312Y02907
X01365Y0286
X01407Y02925
X01433Y02946
X01376Y02972
X013975Y03055
X01397Y03103
X01493Y03104
X014625Y03055
X01523Y02939
X01553Y02927
X01235Y0299
X011625Y03
X010875
X010125
X00975Y02925
X009
X009375Y0285
X010125
X0105Y02775
X01125
X011625Y0285
X01125Y02925
Y03075
X01235Y0312
X01298Y03103
X012375Y027
X011625Y0255
X010875
X01066Y0247
X01115Y02469
X00999Y02473
X0099602Y0236898
X0087992Y023937
X00878Y02342
X00848Y02317
X0087876Y0227524
X0087205Y021939
X0087697Y0214961
X0087598Y0210039
X0098819Y020315
X0099Y01974
X00979Y01914
X0102508Y0190208
X0085628Y0191609
X008179Y0190624
X0069Y0192
Y0204
Y0216
Y0228
Y024
Y0252
Y0264
X0075Y02775
X00825
X009
X00975
X008625Y0285
X00825Y02569
X0088779Y0249213
X0105Y02625
X01057Y02283
X01086Y02285
X01124Y02157
X0107677Y021191
X01125Y02023
X0116634Y0203937
X0125318Y0215818
X0137303Y0225689
X01311Y02351
X013125Y024
X0126575Y0239961
X0123327Y0240059
X0132972Y0250984
X00926Y01725
X0087695Y0173597
X00783Y01702
X0078Y0165
X0069Y0168
Y018
X00936Y01664
X011625Y0315
X012675Y03185
X0133126Y0316362
X0136433Y0316378
X0142849Y03164
X0146392
X0151841Y03163
X0155841Y0316372
X01495Y0325
X014Y03257
X01379Y033
X01349Y03328
X013Y0325
X01235
X011625Y033
Y0345
X01235Y0351
X0126549Y0341549
X01286Y03436
X01235Y0338
X01418Y03448
X0138891Y03497
X01411Y03555
X01447Y03559
X01396Y03602
X013975Y03705
X01359Y03749
X0133402Y0372911
X0138234Y0377534
X0137207Y0381524
X01399Y03826
X01439Y0383524
X014625Y03965
X015275
X0156Y0403
X01495
X01437Y0404
X01425Y04125
X015
X0135
X013125Y0405
X013325Y03965
X01367Y03938
X013975Y03965
X0156Y039
X0155225Y0370275
X01551Y03618
X0129701Y0358201
X01235Y0364
X011625Y036
Y0375
X01237Y03802
X01235Y039
X011625
Y0405
X01539Y03315
X01606Y03246
X01658Y0325
X0170349Y0325851
X01724Y03238
X0177289Y03353
X01678Y03487
X01635Y03489
X01636Y03448
X016375Y0357
X0158Y03563
X01625Y0364
X0169
X017205Y03566
X0172609Y0376609
X017466Y0379524
X017225Y03835
X017875
X01827Y03845
X0182Y039
X01885
X019Y03863
X01885Y0377
X01874Y037265
Y036975
X01929Y03663
X01995Y03677
X02015Y0364
X02065Y03647
X02123Y03631
X021125Y03705
X021555Y03715
X02145Y0377
X0215945Y0383957
X02115Y03851
X0208Y039
X02087Y03939
X021125Y03965
X02159Y03973
X02145Y0403
X0208
X02015
X0195
X01943Y03976
X020475Y03965
X0204Y03934
X0205438Y0381638
X019825Y03835
X020055Y03728
X01953Y03734
X0205438Y0371362
X01956Y03598
X0191985Y03575
X02007Y03474
X0208Y0351
X02109Y03552
X022Y03557
X02202Y03591
X02205Y0361984
X0223395Y036409
X0223796Y0354787
X0227796Y03556
X0232891Y0350955
X024171Y0350657
X02427Y0354
X02466Y03534
X02462Y03505
X025Y03518
X02512Y03547
X02544Y03544
X0257Y03566
X0247234Y0359009
X02353Y0358954
X02359Y03621
X02338Y03647
X0235678Y036691
X023615Y03713
X02395Y03756
X0245
X025122Y0375138
X02548Y03747
X025675Y03705
X0262985Y0372985
X026Y0377
X026325Y03835
X026975
X0270004Y0386973
X0268202Y0391207
X027255Y03922
X026975Y03965
X026325
X025675
X02576Y03919
X02535Y039
X025675Y03835
X025025
Y03965
X02468Y03954
X024375Y03965
X02406Y03956
X023725Y03965
X02405Y0403
X0247
X02535
X026
X02665
X0273
X028125Y0405
X0285Y04125
X02775
X027
X02625
X0255
X02475
X024
X02325
X0225
X02175
X021
X02025
X0195
X01875
X018
X0165
X01575
X01625Y039
X0169
X01755
X016575Y03835
X01565Y03856
X01827Y03751
X02256Y03732
X0225295Y038189
X02276Y03839
X0229569Y0381469
X02278Y04025
X02231Y04023
X0234Y0403
X027995Y03907
X02839Y03854
X02921Y03856
X02919Y03821
X02952Y03794
X02917Y03736
X028745Y03728
X028275Y03705
X02755Y0373
X02686Y03788
X02672Y0365
X02633Y03631
X02775Y03572
X02819Y03579
X028925Y03575
X02944Y03569
X030225Y03575
X030875
X0299Y0364
Y0351
X02984Y03458
X03013
X0282706Y0346675
X0277588
X027945Y03401
X0271666Y0335366
X0267453Y0335553
X0265179Y03379
X0257485Y033659
X0254592Y0336798
X0258224Y0333785
X02667Y03265
X02765Y03285
X0287191Y0325091
X02936Y03294
X0289313Y03346
X02896Y03154
X02939
X03001Y03155
X03041Y03154
X0307786Y0312814
X03123Y03215
X03107Y03266
X0297018Y0321829
X02839Y03155
X02799
X02636Y03131
X0256991Y0314209
X0259243Y03166
X0249685Y0342885
X02264Y03449
X0219009Y0338509
X02098Y03364
X02069Y03339
X01998Y03308
X0197749Y0328749
X0195Y0325
X02024Y03219
X02071Y0319838
X02046Y0316
X0208245Y0314406
X02096Y03424
X02121Y0345
X02146Y03473
X0217Y03501
X01626Y03141
X02925Y039
X0299
X03076Y03833
X030875Y03965
X0312Y0403
X03075Y04125
X03
X0315
X03225
X033
X0325Y0403
X03185
X032175Y03965
X03231Y03934
X0328799Y0395701
X032825Y03835
X032175
X03272Y03771
X03273Y03738
X03241Y03734
X0329Y03714
X03315Y0377
X03401Y03731
X034875Y0375
Y039
X033965Y03927
X034125Y03835
Y03575
X03327Y03566
X0329852Y0356052
X03269Y03587
X03178Y03576
X031305Y03592
X03135Y03452
X03253Y03387
X032175Y03315
Y03185
X03158Y03167
X03198Y0312598
X03308Y03147
Y03176
X03367Y03201
X034125Y03185
X034875Y0315
Y033
Y0345
X034125Y03445
X03385Y0338
X03355Y0352
X0329524Y03482
X034875Y036
Y0405
X031525Y03965
T04
X0104364Y0066942
Y0071863
X0109285
Y0066942
X0114206
Y0071863
X0119128
X0124049
X012897
X0133891
X0138813
Y0066942
X0133891
X012897
X0124049
X0119128
X0181726Y0066942
Y0071863
X0186647
X0191569
Y0066942
X0186647
X0227002Y0066942
X0231923
X0236844
Y0071863
X0231923
X0227002
X0272277
X0277198
Y0066942
X028212
X0287041
X0291962
X0296883
Y0071863
X0291962
X0287041
X028212
X0272277Y0066942
X0339797Y0066942
X0344718
X0349639
X0354561
X0359482
Y0071863
X0354561
X0349639
X0344718
X0339797
T05
X0135827Y0124016
X0145827
X0155827
Y0154016
X0145827
X0135827
X0165827
X0175827
X0185827
X0195827
X0205827
X0215827
X0226002Y0153998
X0236002
X0246002
X0256002
X0266002
X0276002
X0286002
X0296002
X0306002
Y0123998
X0296002
X0286002
X0276002
X0266002
X0256002
X0246002
X0236002
X0226002
X0215827Y0124016
X0205827
X0195827
X0185827
X0175827
X0165827
X0316002Y0123998
X0325915Y0124234
X0316002Y0153998
T08
X0076378Y0076772
X0113386Y0090551
X0076378Y0133858
X0231496Y0090551
X0349606
X0387402Y0076772
Y0133858
Y028937
X035Y0266142
X023189
X011378
X0076378Y028937
X0123622Y0407087
X0172835
X0290945
X0340157
M30
