M48
;Layer_Color=9474304
;FILE_FORMAT=2:5
INCH,LZ
;TYPE=PLATED
T6F00S00C0.03200
;TYPE=NON_PLATED
T7F00S00C0.03937
%
G90
G05
T06
G00X0325915Y0154234
M15
G01Y0154234
M16
T07
G00X0099442Y0071174
M15
G01Y0067631
M16
G00X0143734Y0071174
M15
G01Y0067631
M16
G00X0176805Y0067631
M15
G01Y0071174
M16
G00X019649Y0067631
M15
G01Y0071174
M16
G00X022208Y0071174
M15
G01Y0067631
M16
G00X0241765Y0071174
M15
G01Y0067631
M16
G00X0267356Y0071174
M15
G01Y0067631
M16
G00X0301805Y0071174
M15
G01Y0067631
M16
G00X0334876Y0071174
M15
G01Y0067631
M16
G00X0364403Y0071174
M15
G01Y0067631
M16
M17
M30
